<svg xmlns="http://www.w3.org/2000/svg" width="600" height="200"><path d="m195.534 57.027-.071-4.797c2.362.394 5.476 1.754 5.476 5.656 0 1.324-.322 2.756-.823 3.508-.071.143-.108.25-.108.358 0 .25.144.465.394.572.25.108 4.797 2.327 5.334 2.327.859 0 2.97-3.007 2.97-6.872 0-6.05-5.118-11.884-13.279-12.6 0-.573-.036-1.11-.036-1.682l2.362-.036a.736.736 0 0 0 .68-.716l-.071-5.083a.665.665 0 0 0-.644-.644h-.071l-2.22.036v-1.432c0-.394-.25-1.002-.859-1.002h-5.799c-.644 0-.715.357-.715.787 0 .358.036 1.002.036 1.861l-4.797.108c-.358.035-.68.286-.68.644v.036l.108 5.118c0 .358.322.645.68.645l4.724-.143v2.29c-4.438 1.504-7.767 4.797-7.767 9.629 0 5.548 4.618 7.517 8.126 7.517 3.615 0 7.051-2.005 7.051-5.942Zm15.034-12.242c.215-.179.286-.358.286-.537 0-1.11-5.476-6.049-6.336-6.049-.179 0-.286.072-.465.215l-3.436 2.72c-.215.143-.286.322-.286.465s.07.251.143.358a464 464 0 0 1 5.19 6.121c.179.18.358.287.537.287.143 0 .286-.072.465-.215ZM188.304 55.31c0 .751-.537 1.145-1.074 1.145-.108 0-1.074 0-1.074-1.288 0-1.432 1.038-2.148 2.148-2.578Zm43.812 8.483c.25.215.5.286.787.286.251 0 .502-.071.68-.25 3.401-2.935 5.441-6.873 5.441-10.846 0-4.188-2.29-8.34-7.767-11.204.215-.966 1.002-4.438 1.002-4.903 0-.502-.286-.895-.93-.967l-5.048-.859h-.25c-.573 0-.752.322-.86.752l-.966 3.472c-2.326-.573-4.975-.86-5.082-.86-.501 0-.68.287-.931.931l-1.718 4.403a1 1 0 0 0-.072.286c0 .466.502.645.895.716 1.862.25 3.508.609 4.976 1.003-1.181 3.686-2.506 7.552-3.866 10.666a1.3 1.3 0 0 0-.108.43c0 .358.287.501.573.608l5.334 1.468c.143.036.25.072.322.072.465 0 .608-.394.823-.788a72 72 0 0 0 3.794-9.128c1.504 1.325 2.22 2.864 2.22 4.546 0 1.862-.895 3.866-2.65 5.906-.107.108-.465.323-.465.645 0 .179.108.393.358.608Zm14.318-22.873a1.8 1.8 0 0 0 .071-.43c0-.5-.358-.715-.716-.894-2.076-1.181-7.552-2.506-9.772-2.506-.537 0-.716.144-.895.609l-1.324 3.758a1.8 1.8 0 0 0-.071.394c0 .358.179.644.465.752 9.557 3.937 9.593 3.937 9.772 3.937.394 0 .68-.25.823-.716Zm21.118 23.052c1.289 0 2.757-2.434 3.687-6.73.787.716 2.184 1.719 3.616 2.9.286.25.465.358.68.358.823 0 6.908-4.546 6.908-12.027 0-5.799-3.794-11.06-10.81-11.06h-.036a61 61 0 0 0-.358-3.079v-.036c0-.43-.465-.823-1.002-.823h-.072l-6.407.358c-.573.036-.86.43-.895.93 0 0 .251 1.683.501 4.26-2.613 1.396-4.581 3.365-5.798 6.264-1.79-4.188-1.969-4.223-2.65-4.223a1 1 0 0 0-.464.107l-4.618 2.398c-.25.107-.358.394-.358.716 0 1.324 4.976 13.673 6.98 13.673.501 0 5.298-2.935 5.298-4.008 0-.18-.072-.358-.143-.645a7.3 7.3 0 0 1-.287-1.968c0-1.97.788-3.974 2.434-5.513v1.54c0 5.19-.5 10.917-2.47 14.747a1.2 1.2 0 0 0-.107.465c0 .358.286.537.716.573l5.44.823Zm3.938-8.09c.43-2.72.608-5.798.608-8.733 0-1.003-.036-2.005-.071-2.971 1.933.93 2.9 3.006 2.9 5.226 0 2.398-1.11 4.975-3.437 6.478Zm22.873 7.732c.25.25.465.358.715.358 1.719 0 18.578-10.058 20.546-21.584.037-.215.072-.43.072-.644 0-2.148-1.898-3.437-3.365-3.544l-11.168-.86c-1.36-2.218-1.61-2.612-2.076-2.612-.25 0-.466.107-.644.25-2.434 1.754-6.264 4.224-9.987 5.477-.322.107-.537.322-.537.644 0 .143.071.358.215.573l3.078 4.904c.25.358.537.465.895.465.788 0 3.58-.859 8.09-2.828l4.045.323c.429.035.68.214.68.5 0 .931-7.016 9.343-13.853 13.638-.394.287-.573.537-.573.788 0 .179.072.322.25.501Zm24.662-28.027c.215-.215.358-.43.358-.644 0-.18-.072-.358-.287-.537l-.107-.072-2.076-1.897c-.25-.179-.501-.322-.787-.322a.8.8 0 0 0-.538.179l-1.825 1.396c-.143.107-.394.286-.394.537 0 .143.072.322.25.5l2.292 2.47c.179.18.393.323.644.323.143 0 .322-.072.501-.215Zm-6.694 1.289c.609-.072.86-.287.86-.68 0-.108 0-.215-.037-.323l-.608-2.684c-.108-.43-.466-.86-.967-.86h-.107l-2.613.323c-.394.071-.68.215-.68.644 0 .143.036.25.071.43l.752 2.756c.107.358.358.537.859.537h.25Zm19.365 24.053c0 .824.286 1.396 1.181 1.396 2.112 0 11.096-2.147 15.714-5.548q.537-.376.537-.859c0-.394-.036-.537-2.756-5.226-.215-.394-.43-.537-.716-.537-.143 0-.322.072-.501.108-4.188 1.038-4.582 1.145-4.904 1.145-.358 0-.465-.179-.465-.787V38.163c0-.43-.466-.68-.93-.68h-.072l-6.873.322c-.465 0-.644.466-.644.93Zm-9.593-1.79c.25.072.43.108.609.108 1.682 0 6.3-9.88 6.3-11.92 0-.644-.394-.966-.931-1.11l-6.05-1.61c-.107-.036-.25-.036-.357-.036-.43 0-.788.215-1.003.86-1.002 2.899-2.899 7.946-4.26 10.738-.142.322-.25.572-.25.787 0 .287.18.501.788.68Zm57.379-6.478c.393 0 .859-.322.859-.752V45.43c0-.465-.466-.823-.86-.823l-24.304-.036c-.394 0-.859.358-.859.788v6.514c0 .466.501.824.895.824Zm23.982 10.989c.215.107.43.143.644.143.466 0 .895-.215 1.038-.394 5.19-5.655 9.271-12.707 10.273-20.009-.43.072-.823.108-1.217.108-3.901 0-6.8-3.294-6.8-6.658v-.322l-18.184 1.539c-.358.036-.68.358-.68.716v.071l.537 6.014c.036.393.322.68.715.68h.072l15.033-1.504h.215c.322 0 .501.108.501.43 0 .716-3.293 9.808-6.873 15.785q-.214.376-.214.645c0 .286.179.465.501.608Zm10.774-21.656a5.38 5.38 0 0 0 5.405-5.405 5.38 5.38 0 0 0-5.405-5.405 5.377 5.377 0 0 0-5.405 5.405 5.377 5.377 0 0 0 5.405 5.405m1.897-5.405a1.91 1.91 0 0 1-1.897 1.897 1.91 1.91 0 0 1-1.897-1.897 1.91 1.91 0 0 1 1.897-1.897 1.91 1.91 0 0 1 1.897 1.897M106.841 135.826c.969 0 1.254-.456 1.368-1.254l.57-5.242v-.228c0-.683-.4-1.025-1.083-1.082l-6.838-.285.342-4.558 3.59.17h.17c.799 0 1.083-.341 1.197-1.082l.342-2.564v-.285c0-.627-.342-.855-1.025-.912l-3.932-.17.228-3.761 3.134-.057c.74 0 1.082-.342 1.14-1.14l.17-2.62v-.115c0-.74-.455-.968-1.14-.968l-2.962.057.228-3.59 4.501-.17c.855-.058 1.14-.514 1.14-1.254v-.228l-.285-4.787c-.057-.74-.456-.968-1.14-.968h-.228l-19.486.797 3.02-8.375c.113-.228.113-.513.113-.684 0-.684-.342-1.14-.968-1.368l-7.635-2.678a2 2 0 0 0-.57-.114c-.627 0-1.14.342-1.368 1.026l-4.786 14.871-.114-5.925c0-.855-.456-1.083-1.254-1.083l-2.108.057-.114-6.21c0-.97-.513-1.311-1.481-1.311l-9.23.17c-.97 0-1.425.57-1.425 1.54l.114 6.039-2.678.057c-.741 0-1.254.342-1.254 1.253v.171l.513 7.522c.057.854.513 1.196 1.368 1.196l2.222-.057.114 6.724-4.331.854c-.627.114-.854.456-.854.969 0 .228.056.513.114.798l1.994 7.464c.17.684.854 1.083 1.652 1.083.171 0 .342 0 .513-.057l1.083-.228c0 2.564-.912 5.527-2.45 9.971q-.172.428-.172.855c0 .57.342 1.025 1.482 1.196l7.75 1.197c.227.057.455.057.683.057 1.481 0 2.564-.855 2.906-1.88 1.367-4.445 1.937-7.237 1.937-10.884v-.512l-.057-2.735 3.42-.741c.683-.114.968-.456.968-1.026 0-.114-.057-.228-.057-.399l-.968-7.92c-.057-.57-.285-.854-.798-.854-.114 0-.228 0-.399.057l-2.336.455-.057-4.615 2.165-.057c.342 0 .57-.114.741-.285.171.171.456.228.798.285l2.507.399-.057 31.737c0 .798.4 1.254 1.31 1.254h.286l7.92-.912c1.14-.114 1.71-1.025 1.71-2.165v-.798l17.948.912Zm-1.937-44.216c.228-.285.285-.57.285-.854 0-.57-.4-1.14-.912-1.425l-5.983-3.704a2.2 2.2 0 0 0-1.14-.341c-.455 0-.797.114-1.082.512l-4.843 6.667c-.171.228-.285.57-.285.912 0 .57.342 1.196.969 1.538l6.096 3.134c.4.17.741.285 1.083.285.627 0 1.14-.285 1.595-.912Zm-11.909 35.726-4.273-.17v-4.56l4.615.229Zm1.254-17.435-5.47.113v-3.361l5.755-.171Zm-.57 8.148-4.9-.228v-3.077l5.128-.057Zm57.89 9.629c.057-.171.115-.342.115-.513 0-.684-.684-1.082-1.425-1.196-9.686-1.482-12.478-10.655-12.478-20.513 0-5.128.797-10.484 1.71-14.985.056-.171.056-.342.056-.513 0-.798-.4-1.31-1.254-1.425l-9.743-1.253c-.171 0-.342-.057-.513-.057-1.425 0-1.652.912-1.88 1.652-1.425 6.154-2.166 11.852-2.166 17.094 0 27.806 18.12 31.281 22.165 31.281.969 0 1.653-.455 2.165-1.766Zm65.811 10.085c1.368-.057 2.906-.74 2.906-2.792v-.114l-.399-11.338c-.114-3.818-2.393-6.44-6.495-6.44h-.513l-4.217.172.172-4.73 11.395.285c.912 0 1.368-.74 1.368-1.595l.114-6.21c0-.855-.456-1.197-1.31-1.197l-11.282-.285.284-7.35 8.946-.798c.74-.057 1.083-.399 1.083-1.026v-.17l-.627-7.636c-.057-.684-.4-1.082-1.083-1.082h-.114l-29.23 2.564c-.627.057-1.082.284-1.082.968 0 .114.056.285.056.4l1.31 6.609c.229 1.082.912 1.766 2.166 1.766h.285l5.413-.456-.171 5.926-8.604-.228c-.855 0-1.31.342-1.367 1.197l-.228 6.381c0 .798.341 1.368 1.367 1.368l8.547.228-.17 5.698-4.73.228c-1.368.057-2.394 1.025-2.394 2.279v.114l.684 15.897c.057 1.253.969 2.222 2.45 2.222h.114Zm-38.233-.627c.4.114.741.171 1.083.171 1.197 0 2.108-.683 2.564-1.994.74-2.279 1.425-4.615 1.71-6.325l1.367-7.578v-.228c0-.683-.57-1.14-1.31-1.31l-8.946-1.71c-.171-.057-.342-.057-.456-.057-.57 0-1.083.285-1.197.97l-1.196 6.324c-.456 2.507-1.482 4.786-2.621 7.692q-.171.342-.171.684c0 .57.285 1.025 1.025 1.196Zm7.522-42.449c.228-.228.399-.57.399-.969 0-.341-.114-.74-.456-1.082l-7.408-6.838a1.13 1.13 0 0 0-.797-.341c-.285 0-.627.17-.912.398l-7.236 5.983c-.228.171-.342.456-.342.74 0 .286.17.628.399.913l7.236 7.806c.171.228.513.399.912.399.285 0 .57-.114.911-.4Zm-8.547 21.025c.17.057.342.114.57.114.399 0 .797-.17 1.082-.74l3.533-7.92c.057-.171.114-.285.114-.456 0-.57-.399-1.083-.969-1.31l-8.718-3.363c-.114-.057-.227-.057-.398-.057-.513 0-1.026.285-1.197.741l-3.59 7.863c-.056.114-.056.228-.056.342 0 .399.285.798.74 1.026Zm29.914 15.27-8.205.4-.342-6.667 6.382-.513h.228c1.082 0 1.652.798 1.709 2.108Zm59.372 7.01c1.766-.058 3.533-.343 6.154-1.482 1.025-.4 1.424-1.026 1.424-1.88 0-.285-.056-.627-.17-.97l-2.052-6.438c-.171-.513-.57-.912-1.082-.912-.172 0-.343.057-.57.171-2.109.97-3.761 1.368-5.014 1.482l-4.73.399-.342-10.37c0-.855-.626-1.311-1.481-1.311h-8.889c-.798 0-1.367.456-1.367 1.31v.115l.284 6.438-4.387-2.849a1.1 1.1 0 0 0-.57-.17c-.284 0-.57.113-.797.341l-3.476 3.989c.342-1.995.627-3.818.684-5.128l.627-17.72c.056-.856.398-1.482 1.424-1.54l34.244-1.196c.741 0 1.197-.513 1.197-1.253v-.114l-.456-8.091c-.057-.684-.342-1.14-1.14-1.14h-.17l-16.98.57-.513-4.046c-.114-.74-.57-1.14-1.254-1.14h-.17l-11.567 1.026c-.684.057-1.197.456-1.197 1.254 0 .114.057.285.057.399l.399 2.963-10.997.398c-2.621.114-5.413 1.653-5.584 6.724l-.627 20.854c-.114 3.932-1.937 10.029-3.419 14.53-.056.228-.114.399-.114.627 0 .57.342 1.025 1.083 1.196l8.66 2.165c.229.057.513.114.798.114 1.14 0 2.394-.57 2.792-1.937.57-1.88 1.197-4.444 1.767-7.065l4.957 3.76c.17.114.456.171.74.171.342 0 .798-.114 1.026-.456l3.077-4.387.228 6.21c.171 3.42 2.735 4.73 6.21 4.73h.457Zm.855-28.547c.285-.285.455-.627.455-.969s-.227-.74-.512-1.026l-5.926-5.128c-.228-.228-.513-.285-.798-.285s-.513.057-.74.228l-6.211 5.185a1.16 1.16 0 0 0-.342.855c0 .285.114.57.285.74l5.812 6.098c.228.227.57.398.968.398.342 0 .74-.17 1.083-.455Zm10.598 11.566c.455-.227.797-.854.797-1.481 0-.285-.056-.57-.228-.855l-3.76-5.869c-.228-.398-.684-.683-1.14-.683-.17 0-.341.057-.513.114l-6.837 3.475c-.399.228-.684.684-.684 1.14 0 .228 0 .399.114.57l3.704 6.666c.285.456.74.798 1.31.798.285 0 .627-.114.969-.285Zm53.275 16.81c.228.056.399.056.57.056.627 0 1.14-.285 1.424-.912l1.995-4.615c.114-.17.114-.399.114-.513 0-.512-.456-.854-.97-.968l-3.076-.684.171-.285c.456-.912.74-1.88.74-2.735 0-1.652-.968-3.02-3.361-3.19l-11.339-.798.741-1.71 16.239.057c.855 0 1.196-.342 1.196-1.196l.114-3.875c0-.855-.342-1.14-1.196-1.14h-12.535l1.082-2.734 10.37-.342c.855-.057 1.197-.4 1.197-1.254l-.114-4.444c0-.798-.342-1.083-1.083-1.083h-.17l-2.736.114 2.85-4.558a.96.96 0 0 0 .17-.57.9.9 0 0 0-.57-.855l-4.9-2.336a1.1 1.1 0 0 0-.455-.114c-.342 0-.627.171-.855.57l-2.678 5.014c-.057.114-.057.228-.057.342 0 .399.228.74.456.855l3.476 1.71-22.165.797c-.798.057-1.14.342-1.14 1.196v.171l.285 4.16c.057.911.456 1.196 1.254 1.196l4.273-.17-.968 2.279h-4.673c-.854 0-1.196.284-1.196 1.31v3.59c0 .911.398 1.253 1.196 1.253h1.71l-5.185 10.826c-.114.171-.114.4-.114.57 0 .513.284.912.797 1.026l7.465 1.88c.228.057.455.057.683.057.912 0 1.937-.456 2.507-1.71l2.906-6.723 6.553.57-1.31 2.165-3.42-.798c-.17 0-.284-.057-.398-.057-.4 0-.627.171-.855.57l-1.481 2.678c-.057.171-.114.342-.114.456 0 .399.341.627.74.74l1.539.4-1.824 1.424c-.284.171-.398.399-.398.627 0 .285.284.627.911.798l5.926 1.766q.684.17 1.368.17c1.253 0 2.393-.455 3.02-1.025l1.139-1.082Zm-38.176-1.311c.228.057.456.057.684.057 1.481 0 2.507-.855 2.849-1.88 1.253-4.103 1.71-7.522 1.71-10.884v-.57l-.057-2.791 3.133-.741c.741-.171.912-.456.912-1.083v-.342l-.74-7.92c-.057-.57-.286-.854-.798-.854-.114 0-.228 0-.4.057l-2.278.456-.057-4.559 3.248-.057c.798 0 1.14-.627 1.14-1.481l-.228-7.635c0-.855-.456-1.083-1.254-1.083l-3.077.057-.114-6.724c0-.968-.512-1.31-1.481-1.31l-9.174.17c-.968 0-1.424.57-1.424 1.54l.114 6.552-2.507.057c-.741 0-1.254.342-1.254 1.253v.171l.513 7.522c.056.854.513 1.196 1.367 1.196l2.052-.057.114 6.78-4.16.798c-.627.114-.855.456-.855.969 0 .228.057.513.114.798l1.995 7.464c.17.684.854 1.083 1.652 1.083.17 0 .342 0 .513-.057l.911-.228c-.056 2.735-1.025 6.153-2.336 9.97-.114.286-.17.57-.17.799 0 .57.341 1.082 1.48 1.253Zm40.057-40.57c.911-.056 1.253-.512 1.253-1.367l-.114-7.806c0-.798-.399-1.31-1.253-1.31h-.114l-28.319 1.595c-.74.057-1.31.342-1.31 1.14 0 .113.056.227.056.341l1.254 7.408c.17.968 1.025 1.595 2.279 1.595h.342l11.11-.684-2.962 2.393c-.171.171-.285.456-.285.741 0 .228.056.399.17.57l2.622 3.248c.17.228.512.399.854.399s.627-.114.912-.342l3.362-2.85c.17-.17.285-.455.285-.797 0-.285-.057-.57-.285-.74l-2.85-2.736Zm-19.26 7.123c.228-.17.4-.513.4-.912 0-.228-.115-.512-.286-.74l-2.906-3.305a1.05 1.05 0 0 0-.683-.285c-.228 0-.456.057-.627.17l-3.704 2.508c-.285.17-.399.57-.399.912 0 .17 0 .342.114.455l2.565 3.704c.17.285.513.456.911.456.285 0 .57-.114.855-.285Zm73.219 35.783c.284.114.57.228.911.228.57 0 1.197-.285 1.539-.855l3.646-6.439a1.8 1.8 0 0 0 .171-.797c0-.627-.285-1.254-.911-1.482l-.855-.342q.342-.341.342-1.025v-5.413c0-.798-.513-1.083-1.368-1.14l-30.54-1.424h-.171c-.741 0-1.083.399-1.14 1.367l-.171 5.242q0 .684.513 1.026l-3.76 2.108-.97-21.652c-.056-.912-.512-1.196-1.31-1.196h-.228l-1.082.057 5.64-14.188c.115-.228.172-.513.172-.74 0-.57-.285-1.083-.912-1.311l-8.832-2.906a3.3 3.3 0 0 0-.74-.114c-.514 0-1.026.228-1.254.854l-7.75 19.658a2 2 0 0 0-.113.57c0 .684.456 1.253 1.31 1.424l2.792.513 1.026 21.367c.056.798.285 1.197 1.083 1.197.113 0 .284-.057.455-.057l9.117-1.31c.342-.058.627-.115.855-.286.056.285.228.513.398.741l4.787 5.812c.228.285.626.399 1.082.399a3 3 0 0 0 1.539-.456l8.262-5.356c.399-.285.626-.74.626-1.197 0-.341-.113-.683-.341-.968l-1.88-2.28 10.655.513-1.881 3.248c-.17.285-.228.57-.228.855 0 .513.228 1.026.684 1.254Zm.227-21.652c2.052-.114 3.476-1.994 3.476-4.388v-.284l-.74-19.145c-.171-4.388-2.337-7.75-6.325-7.75h-.456l-22.393 1.482c-1.481.114-2.336 1.083-2.336 2.45v.114l1.539 26.894c.056 1.254 1.025 1.88 2.165 1.88h.17Zm-8.603-5.755-8.433.798-.171-2.621 5.413-.912c.798-.114 1.026-.57 1.082-1.31l.171-2.109v-.114c0-.456-.285-.854-.74-.854h-.171l-6.04 1.14-.228-3.648 4.444.456h.171c.741 0 1.026-.342 1.14-.854l.456-1.938c0-.114.056-.228.056-.342 0-.398-.17-.74-.797-.797l-5.698-.513-.228-3.19 6.894-.115c1.197 0 1.938.912 1.995 2.621Zm69.799-2.621c.228-.285.342-.627.342-.969 0-.399-.17-.797-.57-1.082l-6.724-4.445c-.228-.114-.455-.228-.683-.228-.456 0-.855.228-1.14.57l-4.387 5.185.399-10.256v-.342c0-4.73-3.134-6.61-6.895-6.61h-.17l-2.793.058.912-2.735c.057-.114.057-.171.057-.285 0-.513-.342-1.083-1.083-1.197l-9.743-1.538h-.171c-.456 0-1.083.17-1.197.797l-1.026 5.186-2.051.056c-1.026 0-1.652.912-1.88 1.767-.057-.114-.171-.171-.285-.285l-5.413-4.387c-.342-.285-.684-.4-1.026-.4q-.597 0-1.196.514l-5.015 4.729c-.284.285-.455.627-.455.968 0 .342.17.684.455.97l5.699 5.241q.342.342 1.025.342c.456 0 1.026-.171 1.539-.74l4.558-4.787.056-.057-.228 12.934-5.185-4.387a1.8 1.8 0 0 0-1.082-.399c-.285 0-.627.114-.912.342l-5.812 5.128a1.1 1.1 0 0 0-.398.855c0 .342.17.74.455 1.025l5.47 5.3q.428.34 1.197.341c.683 0 1.481-.228 1.88-.683l4.387-4.787-.056 3.134c0 1.31.912 2.222 1.994 2.222l21.196.513h.114c1.254 0 2.393-.969 2.45-2.564l.171-3.76 5.983 4.786c.285.228.741.342 1.197.342.513 0 1.025-.171 1.367-.57Zm-2.45 24.33c.342-.285.513-.684.513-1.14 0-.342-.114-.74-.513-1.082l-4.388-3.647 4.673-.114c.683 0 1.025-.456 1.025-1.196l-.114-6.097c0-.684-.399-.969-1.139-.969l-17.094.57-.056-.969c0-.626-.57-1.025-1.311-1.025l-11.282.399c-.684 0-1.082.284-1.082.968v.114l.056.969-16.41.57c-.797 0-1.14.228-1.14 1.14l.172 5.811c0 .627.228 1.083 1.14 1.083h.17l4.274-.114-3.818 3.817a1.3 1.3 0 0 0-.399.912c0 .399.17.74.627 1.083l5.299 3.646c.342.285.912.4 1.424.4.684 0 1.368-.229 1.824-.742l4.16-5.014q.34-.427.341-.855c0-.398-.228-.74-.627-1.025l-3.646-2.393 6.951-.171.456 9.515c.057.741.285 1.254 1.254 1.254h.285l10.54-1.197c.741-.114 1.425-.797 1.425-1.766v-.114l-.342-8.091 8.319-.285-3.932 3.02c-.341.228-.512.57-.512.912 0 .285.114.626.399.968l4.33 4.787c.399.398 1.083.74 1.766.74.456 0 .912-.17 1.31-.456Zm2.678-39.543c.228-.285.285-.57.285-.855 0-.399-.171-.798-.513-1.026l-6.04-3.931c-.285-.171-.57-.285-.855-.285-.398 0-.74.17-.968.456l-4.673 5.811c-.17.171-.284.513-.284.798 0 .399.17.798.57 1.083l5.412 3.703q.684.513 1.368.513c.57 0 1.082-.285 1.481-.74Zm-23.532 16.637-6.838-.284.057-4.046 3.703.74h.228c.342 0 .57-.227.684-.512l.513-2.45c0-.114.056-.228.056-.285 0-.342-.17-.57-.57-.684l-4.5-.912.056-3.931 5.299.228c.798.057 1.595.456 1.595 1.937v.171Zm66.266 28.034c1.026-.057 1.482-.684 1.482-1.652l.056-7.123 3.647 3.476c.57.513 1.31.74 2.051.74.684 0 1.425-.227 1.937-.626 3.761-2.906 5.755-6.78 5.755-10.77 0-3.418-1.481-6.95-4.615-9.913 1.71-4.274 3.533-9.003 4.501-12.707.285-1.025.285-2.165.285-2.963l-.056-5.584c0-1.652-1.254-2.678-2.906-2.735l-17.037-.512h-.399c-2.222 0-3.532.455-3.532 2.62l.17 47.18c0 .683.285 1.025 1.026 1.025h.171Zm-13.96-2.621c1.254-.057 2.393-.684 2.393-2.792l-.056-8.319c-.057-4.273-2.052-6.666-5.926-6.666h-.399l-17.037.626c-1.253.057-2.05.912-2.05 2.166v.114l.626 13.731c.057 1.254.855 2.052 2.222 2.052h.114Zm2.165-20.17c.741 0 1.083-.4 1.083-1.083l.17-5.698c0-.57-.341-1.026-1.025-1.026l-2.165-.057 1.197-4.045c.056-.114.056-.285.056-.4 0-.683-.399-1.196-1.025-1.31l-8.148-1.538c-.114-.057-.285-.057-.4-.057-.569 0-1.025.342-1.139.969l-1.082 6.153-2.678-.057-.912-5.584c-.114-.455-.456-.854-1.14-.854h-.227l-5.414.911c-.626.114-.968.513-.968 1.14 0 .114 0 .228.056.399l.855 3.817-3.077-.057c-.683 0-1.025.4-1.025 1.083v5.64c0 .685.398 1.027 1.082 1.027Zm-.455-16.81c.626 0 1.025-.398 1.025-1.025v-.114l-.456-7.407c-.056-.57-.342-.969-.968-.969h-.114l-6.838.285-.342-3.248c-.056-.797-.512-1.196-1.196-1.196h-.171l-10.2.626c-.74.057-1.196.456-1.196 1.311v.285l.285 2.792-4.501.228c-.684.057-1.026.399-1.026.968v.114l.399 7.35c.057.627.456.97 1.14.97Zm18.632-.626c-.969 3.817-2.336 8.205-3.932 12.877a3 3 0 0 0-.228 1.197c0 .74.285 1.424.798 1.937 2.051 2.165 2.963 4.16 2.963 6.04 0 2.45-1.595 4.729-4.445 6.723l.172-28.945Zm-27.35 31.452-5.983.4-.057-5.357h4.274c1.197 0 1.766.798 1.766 2.165Zm71.167-10.712c.74 0 1.196-.57 1.31-1.253 1.026-5.584 1.994-13.39 1.994-20.627 0-9.23-.911-9.458-1.994-9.458h-13.105c-.684 0-1.197.57-1.197 1.253.057 8.205.97 23.476 1.368 28.832.057.683.57 1.253 1.31 1.253Zm-5.3 19.316c4.388 0 8.433-3.647 8.433-8.49 0-4.387-3.646-8.376-8.49-8.376-4.387 0-8.432 3.647-8.432 8.49 0 4.388 3.646 8.376 8.49 8.376M505.102 159.35c-1.786-1.427-2.99-3.656-2.99-6.066 0-2.34 1.204-4.653 2.99-6.066l-1.592-.692c-1.828 1.385-3.324 3.988-3.324 6.758 0 2.839 1.496 5.346 3.324 6.73Zm4.556.083v-9.016c.471-.844.9-1.842 1.191-3.019l-1.73-.429c-.568 1.883-1.62 3.518-2.66 4.556l.485 2.244c.277-.25.72-.665 1.039-1.177v6.84Zm9.251-1.676a8 8 0 0 1-2.05-1.219c1.4-2.063 1.413-4.542 1.413-5.927v-.083h-5.594v-1.496h5.913v-1.661h-7.575v4.196c0 2.977-.291 4.916-1.247 6.135l1.427 1.412c.263-.429.498-.872.678-1.37l.734 1.689c1.316-.374 2.34-.956 3.116-1.607a9.5 9.5 0 0 0 2.368 1.607Zm-2.396-5.567c0 1.08-.249 2.174-.803 3.047-.623-.928-.983-2.064-.983-3.047Zm-3.503 0c.125 1.343.568 2.894 1.55 4.307-.678.498-1.55.9-2.644 1.122.512-1.454.734-3.255.762-5.429Zm14.36 7.257c2.646-.07 2.674-.568 2.674-2.936v-6.149h2.548v-1.634h-4.501c.222-.554.346-.9.485-1.399l-1.648-.374a10.25 10.25 0 0 1-1.634 3.615h-1.316v-1.58c1.15-.18 1.703-.36 1.703-.36l-.72-1.661s-1.26.554-4.307.568l.291 1.73a34 34 0 0 0 1.44-.096v1.399h-1.703v1.592h1.537c-.43 1.08-1.274 2.576-1.897 3.365l.79 2.189c.47-.831 1.066-2.452 1.274-3.504v5.22h1.592V153.7c.263.79.568 1.496 1.011 2.216l.817-1.828c-.623-.47-1.177-1.08-1.69-1.925h1.205v-1.094l1.136 1.053a12.4 12.4 0 0 0 1.025-1.76h.872v6.468c0 .776-.11.817-1.662.817Zm5.374-2.507c-.138-1.232-.581-3.808-.886-5.138l-1.537.457c.29 1.427.65 3.989.734 5.318Zm-5.844.374c.582-1.371.928-3.296 1.011-4.722l-1.496-.347c-.096 1.288-.457 3.006-1.038 4.169Zm7.935 3.31c2.34-1.856 3.172-4.182 3.172-6.938 0-2.77-.831-5.11-3.172-6.98l-1.19.775c1.633 1.4 2.644 3.56 2.644 6.205-.013 2.742-1.066 4.847-2.63 6.148Z"/></svg>