<svg xmlns="http://www.w3.org/2000/svg" width="600" height="200"><path d="M19.866 160.291h-2.235v-2.312h2.8l.797-3.16h-2.364v-2.312h2.955l1.027-4.033h2.39l-1.028 4.033h2.183l1.028-4.033h2.415l-1.053 4.033h2.08v2.313h-2.646l-.796 3.16h2.21v2.311h-2.775l-1.028 4.034h-2.389l1.028-4.034h-2.21l-1.027 4.034h-2.39Zm5.164-2.312.796-3.16h-2.21l-.795 3.16Zm27.976-1.053q-1.67.514-2.544 1.387-.847.848-.847 1.876 0 .924.745 1.67.77.719 1.644.719.693 0 .95-.283.257-.282.257-1.079v-4.136q0-.18-.205-.154m-.668 8.35q-2.39 0-4.085-1.465-1.67-1.464-1.67-3.622 0-2.056 1.67-3.725 1.696-1.696 4.753-2.44.205-.052.205-.283v-3.032q0-.205-.23-.205h-4.086q-.54 0-.899-.36-.36-.385-.36-.9 0-.539.36-.898.386-.36.9-.36h4.084q.231 0 .231-.231v-1.387q0-.565.386-.95.41-.412.976-.412h.308q.565 0 .95.411.412.386.412.95v1.388q0 .205.205.231h3.776q.514 0 .9.36.385.36.385.899 0 .514-.385.899-.386.36-.9.36h-3.776q-.18 0-.205.205v2.595q0 .205.23.205.36-.025 1.208-.025 3.571 0 5.729 1.644 2.184 1.644 2.184 4.007 0 5.087-5.524 6.243-.59.128-1.053-.206-.462-.308-.616-.899v-.077q-.129-.514.154-.976.308-.462.847-.59 1.593-.36 2.338-1.183.745-.847.745-2.157 0-1.182-1.31-2.056-1.31-.873-3.494-.873-.848 0-1.207.026-.206 0-.231.205v4.778q0 2.21-.874 3.057-.848.848-3.031.848m12.819-17.187q1.31 1.747 2.286 3.262.283.437.154 1.002-.128.54-.616.797-.463.257-1.002.128-.514-.128-.822-.59-1.13-1.799-2.081-3.11-.308-.436-.257-.95.077-.54.514-.847.462-.309 1.002-.206.54.077.822.514m8.965 4.11q-.565 0-.976-.385-.385-.411-.385-.95 0-.566.411-.977.411-.41.95-.41h2.724q.205 0 .23-.206.36-1.593.669-3.263.102-.565.54-.925.462-.36 1.027-.308l.154.026q.565.051.9.513.333.437.256.977-.308 1.824-.54 3.005-.05.18.155.18h3.211q.616 0 1.361.154.745.129 1.002.231.283.103.642.566.386.462.437.822.077.334.18 1.258.128.925.128 1.696v2.286q0 4.599-1.13 6.782-1.105 2.184-3.031 2.184-1.413 0-3.75-.72-.566-.153-.823-.642-.257-.513-.103-1.079l.052-.128q.18-.54.668-.77.513-.258 1.053-.103 1.593.462 2.286.462.386 0 .745-.59.36-.592.591-2.107.257-1.542.257-3.751 0-2.877-.257-3.34-.231-.488-1.798-.488h-2.312q-.18 0-.257.18-1.464 6.191-3.725 11.997-.206.565-.745.77-.514.232-1.028.052l-.18-.051q-.539-.18-.745-.694t-.025-1.028q2.004-5.24 3.417-11.046.05-.18-.129-.18Zm16.981 6.962q-1.259-4.573-3.057-9.35-.18-.515.052-.977.23-.488.77-.668l.309-.077q.565-.18 1.078.077.54.257.72.822 1.644 4.29 3.057 9.48.154.539-.129 1.027-.282.488-.847.59l-.283.052q-.565.129-1.053-.154-.463-.282-.617-.822m25.664-4.573q0-3.57-3.776-4.059-.18-.051-.206.155v6.627q0 .797-.026 1.156 0 .052.026.129.052.077.154.051 3.828-.54 3.828-4.059m-15.953 7.09q-.565 0-.976-.385-.386-.41-.386-.976v-11.483q0-.565.411-.95.411-.386.95-.386h.18q.566 0 .951.411.386.385.386.925v3.802q0 .026.025.026.052 0 .052-.026 2.569-4.059 7.039-4.881.18-.051.18-.231v-1.156q0-.565.41-.95.411-.412.977-.412h.41q.566 0 .951.411.411.386.411.95v1.028q0 .231.231.231 3.391.283 5.164 2.056 1.798 1.772 1.798 4.906 0 3.212-1.952 5.01-1.927 1.798-5.575 2.004-.18 0-.257.18-.462 1.36-1.438 2.337-.95.95-2.492 1.619-.54.23-1.105.025-.565-.18-.822-.693l-.128-.18q-.257-.463-.077-.976.18-.514.642-.771 1.361-.668 2.03-1.67.102-.18-.103-.231-1.901-.54-3.468-1.901-.437-.36-.463-.976-.026-.617.334-1.054l.051-.102q.309-.411.848-.437.565-.051.976.334 1.182.95 2.467 1.336.05.025.102-.026.052-.077.052-.154.025-.308.025-.95v-6.423q0-.077-.051-.128-.051-.077-.128-.077-2.929.745-4.881 3.313-1.953 2.544-2.261 6.32-.052.591-.463.976-.41.386-.95.386Zm45.162-16.39q.129.232.334.694.231.463.334.643.231.462.051.976-.154.488-.642.72-.462.23-.95.076-.489-.18-.745-.668-.232-.41-.72-1.284-.23-.463-.077-.95.154-.515.617-.746.488-.257 1.027-.077.54.18.771.617m-20.09 11.664-.23-.18q-.386-.36-.411-.9-.026-.564.334-.975 2.98-3.417 3.93-7.836.103-.565.54-.925.462-.385 1.053-.36l.385.027q.565.05.9.488.359.41.282.976-.026.154-.103.437-.051.282-.077.385-.051.205.18.205h8.04q.026 0 .052-.051.026-.077 0-.128l-.051-.077-.309-.617q-.205-.437-.334-.668-.23-.462-.076-.95.154-.489.59-.72.463-.23.95-.051.515.154.772.616.128.206.333.643.206.41.36.642.206.41.077.899-.128.462-.54.694-.205.077-.05.23.308.36.308.9-.232 7.45-3.751 11.2-3.494 3.751-10.918 4.625-.591.051-1.028-.309-.436-.333-.54-.924l-.05-.18q-.078-.54.256-.976.334-.463.874-.514 5.857-.797 8.554-3.34t3.16-7.886q0-.18-.18-.18h-7.424q-.205 0-.282.18-1.234 2.98-3.623 5.548-.36.386-.95.411-.591.026-1.002-.36m37.2 8.246q-.566.026-.951-.385-.386-.411-.386-.95v-16.237q0-.565.411-.95t.951-.385h.617q.565 0 .95.41.411.386.411.925v14.027q0 .205.18.154 1.978-.565 3.108-2.106 1.13-1.568 1.593-4.42.077-.564.54-.873.462-.333 1.001-.282l.334.051q.54.077.9.514t.256.976q-1.335 9.12-9.916 9.531m-10.97-.899-.283-.411q-.257-.462-.128-.976.128-.54.59-.822 1.927-1.208 2.493-3.289.59-2.106.59-7.63v-3.545q0-.565.386-.95.41-.385.976-.385h.565q.54 0 .925.41.41.386.41.925v3.546q0 4.393-.436 6.961-.41 2.57-1.387 4.085-.95 1.49-2.749 2.543-.514.283-1.079.155-.54-.103-.873-.617m27.976-6.988q-.565 0-.95-.41-.386-.412-.386-.951v-.488q0-.565.385-.95.411-.412.95-.412h17.11q.565 0 .95.411.386.411.386.95v.489q0 .565-.411.976-.386.385-.925.385Zm40.923-8.631q.462.436 1.105.436.642 0 1.104-.436.463-.463.463-1.105t-.463-1.105-1.104-.462-1.105.462q-.437.463-.437 1.105t.437 1.105m1.105-4.701q1.464 0 2.517 1.053 1.08 1.053 1.08 2.543 0 1.387-.977 2.44-.976 1.054-2.389 1.157-.18 0-.18.154v.18q-.745 6.19-4.264 9.556-3.494 3.365-9.968 4.213-.59.077-1.053-.282-.462-.334-.565-.874l-.077-.308q-.103-.54.205-.976.334-.437.874-.488 5.6-.771 8.323-3.52 2.749-2.749 3.237-8.195 0-.205-.154-.205H205.55q-.565 0-.976-.386-.411-.41-.411-.95v-.334q0-.565.41-.95.412-.412.977-.412h12.768q.18 0 .257-.205.128-1.362 1.13-2.287 1.028-.924 2.415-.924m27.154 2.543q.565.051.924.488.386.411.36.976-.411 8.144-3.596 11.92t-10.405 4.958q-.565.103-1.027-.257-.437-.36-.54-.925l-.077-.256q-.103-.54.206-.977.334-.436.899-.565 4.007-.72 6.345-2.235 2.364-1.541 3.545-4.341 1.208-2.826 1.465-7.502.05-.565.462-.925.411-.385.95-.36Zm-14.566 8.452q-1.002-2.261-2.646-5.832-.232-.514-.052-1.027.206-.514.72-.72l.513-.205q.54-.206 1.054-.026.54.18.77.72 1.67 3.57 2.723 5.882.232.514 0 1.054-.205.513-.719.693l-.565.206q-.54.18-1.053 0-.514-.206-.745-.745m25.047-4.779q-.565 0-.976-.385-.386-.41-.386-.976v-.308q0-.566.411-.95.411-.412.95-.412H275.4q.54 0 .925.411.41.411.385.95-.154 7.605-3.7 11.587-3.519 3.956-10.712 4.932-.59.077-1.053-.257t-.565-.9l-.052-.307q-.077-.54.232-.977.308-.436.847-.488 5.626-.77 8.35-3.52 2.748-2.774 3.236-8.168 0-.232-.205-.232Zm27.436 15.388q-.565 0-.976-.41-.385-.386-.385-.925v-17.084q0-.565.385-.95.411-.411.976-.411h.617q.565 0 .976.41.411.386.411.951v5.164q0 .205.154.23 5.703 1.388 11.612 3.495.54.18.77.693.257.488.052 1.028l-.154.462q-.18.54-.668.797-.488.23-1.002.051-5.677-1.978-10.61-3.211-.051-.026-.103.025-.05.052-.05.129v8.22q0 .566-.412.951-.411.385-.976.385Zm25.073-8.914q-.565 0-.976-.385-.385-.411-.385-.976v-5.344q0-.565.41-.95.412-.411.951-.411h5.935q.205 0 .205-.206v-2.03q0-.564.385-.95.411-.41.977-.41h.462q.565 0 .95.41.412.386.412.95v2.03q0 .206.23.206h6.243q.565 0 .95.41.412.386.412.951v3.109q0 5.394-3.186 8.503-3.16 3.083-9.402 3.673-.59.052-1.028-.308-.436-.36-.54-.925l-.05-.205q-.052-.54.282-.95.36-.437.9-.489 5.034-.514 7.424-2.8 2.389-2.286 2.389-6.5v-1.464q0-.205-.18-.205h-11.817q-.206 0-.206.205v3.7q0 .565-.41.976-.386.385-.951.385Zm27.95 7.784q-.54 0-.924-.385-.386-.386-.386-.9 0-.539.386-.924.385-.386.924-.386h4.522q.23 0 .23-.205v-8.092q0-.18-.23-.18h-3.956q-.54 0-.925-.385-.36-.386-.36-.925 0-.54.385-.925.386-.385.9-.385h11.406q.54 0 .899.385.385.385.385.925 0 .565-.385.95-.385.36-.9.36h-3.981q-.206 0-.206.18v8.092q0 .205.206.205h4.547q.54 0 .925.386.385.385.385.925t-.385.924q-.386.36-.925.36Zm24.226-14.746q-.566 0-.977-.385-.385-.411-.385-.976v-.052q0-.565.411-.95.411-.411.95-.411h16.699q.54 0 .925.41.385.386.385.951v.052q0 1.593-.437 2.646-1.541 3.596-4.804 5.908-.488.309-1.079.232-.565-.103-.924-.591l-.206-.309q-.308-.41-.231-.95.103-.54.54-.874 2.697-1.9 3.673-4.495.077-.18-.129-.206Zm6.216 1.927h.489q.565 0 .95.411.411.411.385.976-.128 4.933-1.335 7.553-1.182 2.62-4.034 4.264-.54.283-1.104.103-.54-.154-.848-.642l-.154-.308q-.283-.437-.154-.95.128-.54.565-.823 2.055-1.233 2.903-3.262.873-2.03.976-5.96.026-.566.411-.95.385-.412.95-.412m19.268 14.797q-.566 0-.977-.41-.41-.386-.41-.926V146.6q0-.565.41-.95.411-.412.977-.412h7.064q.565 0 .95.411.412.411.412.95v6.68q0 .54-.411.95-.411.386-.95.386h-5.164q-.206 0-.206.231v10.25q0 .565-.41.95-.386.386-.951.386Zm1.695-18.548v.977q0 .205.206.23h3.648q.205 0 .205-.23v-.977q0-.205-.205-.23h-3.648q-.206.025-.206.23m0 3.417v.976q0 .231.206.231h3.648q.205 0 .205-.23v-.977q0-.18-.205-.18h-3.648q-.206 0-.206.18m16.621-6.063q.565 0 .977.411.41.411.41.95v15.851q0 .977-.05 1.542-.052.565-.206 1.053t-.36.72-.668.359q-.462.154-1.002.18-.54.051-1.49.051-.051 0-1.053-.051-.565-.026-.976-.411-.411-.386-.437-.95-.026-.54.334-.9.385-.385.925-.36.334.026.693.026.874 0 1.028-.128.18-.155.18-.977v-7.758q0-.231-.206-.231h-5.343q-.565 0-.976-.411-.386-.411-.386-.925v-6.68q0-.564.386-.95.41-.41.976-.41Zm-1.695 7.04v-.977q0-.18-.206-.18h-3.905q-.205 0-.205.18v.976q0 .231.205.231h3.905q.206 0 .206-.23m0-3.417v-.977q0-.205-.206-.23h-3.905q-.205 0-.205.23v.977q0 .205.205.23h3.905q.206-.025.206-.23m-12.948 14.822q.95-.847 1.387-1.926.103-.18-.102-.18h-1.028q-.385 0-.72-.283-.307-.308-.307-.719t.308-.72q.308-.333.72-.333h1.31q.23 0 .23-.18v-1.182q0-.205-.23-.205h-.926q-.41 0-.745-.309-.308-.334-.308-.77 0-.437.308-.745.334-.309.745-.309h9.557q.437 0 .745.309.308.308.308.745 0 .436-.308.77-.308.309-.745.309H403q-.18 0-.18.205v1.182q0 .18.18.18h1.156q.385 0 .693.334.309.308.309.719t-.309.72q-.308.282-.693.282H403q-.18 0-.18.205v2.672q0 .54-.411.925-.411.411-.976.411h-.026q-.565 0-.95-.411-.386-.385-.386-.925v-2.672q0-.205-.231-.205h-1.824q-.18 0-.231.18-.514 1.952-1.927 3.468-.437.41-1.053.436-.617.052-1.105-.308l-.026-.025q-.385-.283-.41-.797 0-.514.333-.848m4.444-4.547v.206q0 .18.232.18h1.567q.231 0 .231-.18v-1.182q0-.205-.231-.205h-1.567q-.232 0-.232.205Zm16.75-3.776-.103-.257q-.23-.514-.051-1.027.18-.54.694-.797.642-.36 2.132-1.284.205-.077.051-.257-.59-.565-1.67-1.542-.41-.334-.41-.873 0-.565.385-.95l.102-.078q.386-.41.977-.41.59 0 1.053.385.205.18.59.54.412.359.72.667.308.283.59.591.18.103.335 0 1.31-1.105 2.21-2.158.102-.154-.104-.18h-3.21q-.54 0-.926-.36-.36-.359-.36-.873 0-.54.36-.899.386-.36.925-.36h6.474q1.259 0 2.055 1.156.308.54.77 1.105.13.103.258 0 .436-.54 1.053-1.31.334-.437.9-.565.59-.129 1.052.18.463.282.566.822.128.54-.18.976-.976 1.233-1.567 1.875-.129.154 0 .257.051.026.436.385.386.334.591.514.206.129.334-.026.54-.59 1.387-1.644.334-.436.874-.565.565-.128 1.053.18.488.283.591.822.103.514-.231.976-.797 1.028-1.465 1.799-.128.102.052.23.899.592 1.387.849.514.256.694.796t-.052 1.053l-.102.257q-.232.514-.771.694-.514.154-.976-.103-1.08-.617-2.081-1.31-.18-.077-.257.051-.36.617-1.105.617h-.59q-.18 0-.18.205v2.03q0 .18.18.18h4.392q.54 0 .925.41.411.386.411.925 0 .514-.41.925-.386.385-.926.385h-4.393q-.18 0-.18.206v2.62q0 .463.18.565.18.103 1.13.103.951 0 1.183-.205.256-.206.385-1.13.051-.566.462-.9.437-.36.976-.308l.283.026q.59.051.95.488.386.436.36 1.027-.051.668-.102 1.13-.052.437-.206.823-.128.41-.257.616-.103.231-.437.411t-.616.257q-.257.103-.874.129-.616.051-1.079.051-.462.026-1.413.026-1.952 0-2.8-.154-.822-.129-1.079-.489t-.257-1.233v-3.853q0-.206-.205-.206h-2.929q-.205 0-.257.18-1.027 4.316-6.499 5.806-.59.18-1.105-.103-.513-.282-.719-.847l-.026-.155q-.205-.513.026-.976.257-.488.796-.616 3.237-.95 4.162-3.109.103-.18-.103-.18h-3.776q-.54 0-.95-.385-.386-.41-.386-.925 0-.54.386-.925.41-.41.95-.41h4.136q.205 0 .205-.206v-2.004q0-.205-.205-.205h-.334q-.745 0-1.13-.617-.077-.128-.231-.051-1.002.693-2.081 1.31-.463.257-1.002.103-.54-.18-.77-.694m12.048 2.158v-2.004q0-.205-.205-.205h-2.672q-.205 0-.23.205v2.004q0 .205.23.205h2.672q.205 0 .205-.205m-1.567-9.146q-1.644 2.21-3.982 4.24-.05.025-.025.102.025.051.077.051h8.118q.051 0 .077-.051.025-.077-.026-.103-2.312-1.952-3.982-4.264-.051-.026-.128 0-.077 0-.129.025m35.092 5.832q1.208 1.13 1.876 2.62.668 1.465.668 3.032 0 2.235-.9 3.21-.873.951-2.8.951h-.154q-.59 0-1.079-.385-.462-.411-.565-1.002-.103-.514.205-.899.334-.385.874-.437.822-.102 1.079-.436.257-.36.257-1.208 0-2.08-1.953-4.444-.385-.463-.462-1.053-.077-.617.18-1.156 1.13-2.312 1.952-4.907.026-.206-.154-.206h-2.466q-.206 0-.206.206v17.032q0 .565-.41.95-.386.412-.925.412h-.309q-.565 0-.976-.411-.411-.412-.411-.951v-18.342q0-.565.411-.95.411-.412.976-.412h6.397q.54 0 .873.36.36.36.36.873 0 1.182-.385 2.44-.925 2.672-2.004 4.805-.103.18.051.308m-8.709-1.182q.566 0 .925.386.386.385.386.924 0 .514-.386.9-.36.385-.925.385h-9.864q-.565 0-.95-.385-.36-.386-.36-.9 0-.539.385-.924.385-.386.925-.386h.925q.205 0 .154-.23-.514-2.107-.95-3.597 0-.129-.18-.129-.412 0-.72-.308t-.308-.72v-.282q0-.54.385-.9.386-.359.9-.359h2.825q.206 0 .206-.231v-.514q0-.54.385-.925.411-.41.976-.41h.463q.565 0 .976.41.41.411.41.925v.514q0 .231.18.231h3.058q.54 0 .899.385.36.36.36.874v.334q0 .385-.283.694-.283.282-.668.282-.129 0-.18.103-.334 1.67-.95 3.622-.052.206.154.231Zm-3.802-.23q.514-1.594.925-3.546.052-.18-.154-.18h-3.622q-.231 0-.18.154.694 2.44.925 3.571.051.206.231.231h1.619q.18-.025.256-.23m-4.033 13.692h-.976q-.565 0-.976-.411-.385-.412-.385-.951v-6.654q0-.565.41-.95.412-.411.951-.411h7.912q.566 0 .977.41.41.412.41.951v6.654q0 .565-.41.95-.411.412-.977.412h-.847q-.334 0-.54-.232-.205-.205-.205-.54 0-.128-.154-.128h-4.29q-.13 0-.13.129 0 .308-.23.54-.206.23-.54.23m.77-6.603v3.057q0 .206.206.206h4.136q.206 0 .232-.206v-3.057q0-.205-.232-.23h-4.136q-.205.025-.205.23M31.798 104.606q-5.342 0-8.556-2.82-3.215-2.819-3.215-7.715h5.242q0 2.72 1.78 4.303 1.781 1.533 4.749 1.533 2.918 0 4.6-1.583t1.681-4.203q0-1.979-1.088-3.462t-3.116-2.028l-5.193-1.385q-3.66-.99-5.787-3.61-2.077-2.622-2.077-6.282 0-2.967 1.286-5.143 1.336-2.226 3.759-3.462t5.638-1.237 5.638 1.237q2.473 1.236 3.809 3.462 1.384 2.176 1.384 5.094H37.09q0-2.325-1.583-3.71-1.533-1.434-4.006-1.434t-4.006 1.435q-1.484 1.384-1.484 3.66 0 1.83.99 3.066 1.038 1.236 2.868 1.73l5.341 1.435q3.76.99 5.935 3.858 2.176 2.868 2.176 6.776 0 3.214-1.434 5.588-1.434 2.325-4.006 3.61-2.572 1.287-6.083 1.287m29.526-.05q-5.045 0-8.062-2.918-2.967-2.918-2.967-7.963v-6.33q0-5.094 2.967-7.963 2.968-2.918 8.062-2.918t8.062 2.918q2.967 2.869 2.967 7.963v6.33q0 5.045-3.017 7.963-2.967 2.918-8.012 2.918m0-4.698q2.67 0 4.154-1.484 1.534-1.533 1.534-4.352v-7.023q0-2.82-1.534-4.303-1.483-1.533-4.154-1.533t-4.204 1.533q-1.484 1.484-1.484 4.303v7.023q0 2.819 1.484 4.352 1.533 1.484 4.204 1.484m25.124 4.253V85.465h-7.715V80.62h7.715v-5.243q0-3.412 2.177-5.39 2.176-1.979 5.934-1.979h7.963v4.748h-7.864q-2.868 0-2.868 2.67v5.194h10.732v4.846H91.79v18.646Zm36.945 0q-3.61 0-5.737-2.077t-2.127-5.638v-14.64h-7.665V76.91h7.665v-7.666h5.342v7.666h10.98v4.847h-10.98v14.59q0 1.286.742 2.127.742.791 2.027.791h7.963v4.847Zm17.607 0-4.352-27.202h4.402l2.571 17.904q.198 1.335.347 2.918.148 1.533.197 2.522.1-.989.248-2.522.148-1.583.395-2.918l3.166-17.904h4.797l3.165 17.904q.198 1.335.346 2.918.198 1.533.297 2.522.1-.989.198-2.522.148-1.583.346-2.918l2.671-17.904h4.253l-4.5 27.202h-5.638l-2.87-17.755q-.246-1.385-.444-3.067-.149-1.681-.247-2.67-.05.989-.297 2.67-.198 1.682-.396 3.067l-2.967 17.755Zm36.302.495q-4.154 0-6.627-2.325-2.424-2.374-2.424-6.182 0-3.858 2.621-6.182 2.622-2.374 6.974-2.374h7.518v-1.979q0-4.698-5.292-4.698-2.374 0-3.809.89-1.434.89-1.533 2.473h-5.242q.247-3.412 3.066-5.589 2.82-2.225 7.567-2.225 5.045 0 7.814 2.423 2.77 2.374 2.77 6.677v18.596h-5.243v-5.094h-.049q-.346 2.621-2.473 4.105t-5.638 1.484m1.533-4.402q3.017 0 4.748-1.434 1.78-1.484 1.78-3.957v-3.512h-7.121q-2.127 0-3.413 1.237-1.236 1.236-1.236 3.165 0 2.077 1.384 3.314 1.385 1.187 3.858 1.187m21.168 3.907V76.909h5.292v5.342q.396-2.72 2.324-4.254 1.93-1.582 5.095-1.582 4.203 0 6.528 2.621t2.324 7.37v2.423h-5.341v-2.275q0-5.49-5.39-5.49-2.672 0-4.106 1.582-1.385 1.534-1.385 4.501v16.964Zm39.368.495q-4.995 0-8.012-2.918t-3.017-7.963v-6.43q0-5.044 3.017-7.962t8.012-2.918q3.363 0 5.836 1.335 2.473 1.286 3.808 3.66 1.385 2.374 1.385 5.54v4.896h-16.914v2.225q0 2.869 1.582 4.451 1.583 1.583 4.303 1.583 2.226 0 3.71-.791 1.483-.841 1.78-2.275h5.292q-.544 3.462-3.512 5.539-2.918 2.028-7.27 2.028m-5.885-17.657v1.138h11.77V86.9q0-3.017-1.533-4.65-1.533-1.631-4.352-1.631T235.02 82.3q-1.533 1.632-1.533 4.65m24.827 17.162V68.007h10.09q3.56 0 6.182 1.385 2.621 1.335 4.055 3.857 1.484 2.473 1.484 5.787v13.947q0 3.413-1.484 5.885-1.434 2.473-4.055 3.858t-6.182 1.385Zm5.342-4.797h4.748q2.918 0 4.649-1.682t1.73-4.649V79.036q0-2.869-1.73-4.55-1.731-1.731-4.65-1.731h-4.747Zm35.065 5.292q-4.995 0-8.012-2.918t-3.017-7.963v-6.43q0-5.044 3.017-7.962t8.012-2.918q3.363 0 5.836 1.335 2.473 1.286 3.808 3.66 1.385 2.374 1.385 5.54v4.896h-16.914v2.225q0 2.869 1.582 4.451 1.583 1.583 4.303 1.583 2.226 0 3.71-.791 1.483-.841 1.78-2.275h5.292q-.544 3.462-3.512 5.539-2.918 2.028-7.27 2.028m-5.885-17.657v1.138h11.77V86.9q0-3.017-1.533-4.65-1.533-1.631-4.352-1.631t-4.352 1.681q-1.533 1.632-1.533 4.65m32.147 17.162-9.199-27.202h5.638l5.589 17.41q.494 1.533.89 3.066.396 1.483.594 2.473l.494-2.473q.346-1.533.84-3.067l5.54-17.409h5.638l-9.15 27.202Zm33.087.495q-4.995 0-8.012-2.918t-3.017-7.963v-6.43q0-5.044 3.017-7.962t8.012-2.918q3.363 0 5.836 1.335 2.473 1.286 3.808 3.66 1.385 2.374 1.385 5.54v4.896h-16.914v2.225q0 2.869 1.582 4.451 1.583 1.583 4.303 1.583 2.226 0 3.71-.791 1.483-.841 1.78-2.275h5.292q-.544 3.462-3.512 5.539-2.918 2.028-7.27 2.028m-5.885-17.657v1.138h11.77V86.9q0-3.017-1.533-4.65-1.533-1.631-4.352-1.631t-4.352 1.681q-1.533 1.632-1.533 4.65m39.764 17.162q-3.858 0-6.183-2.226-2.275-2.275-2.275-6.033V72.854h-9.15v-4.847h14.492v27.746q0 1.632.89 2.571t2.423.94h8.21v4.847Zm25.47.445q-5.044 0-8.061-2.918-2.968-2.918-2.968-7.963v-6.33q0-5.094 2.968-7.963 2.967-2.918 8.061-2.918t8.062 2.918q2.967 2.869 2.967 7.963v6.33q0 5.045-3.017 7.963-2.967 2.918-8.012 2.918m0-4.698q2.671 0 4.155-1.484 1.533-1.533 1.533-4.352v-7.023q0-2.82-1.533-4.303-1.484-1.533-4.155-1.533-2.67 0-4.204 1.533-1.483 1.484-1.483 4.303v7.023q0 2.819 1.483 4.352 1.534 1.484 4.204 1.484m18.992 13.155V76.91h5.292v5.144q.544-2.67 2.473-4.155 1.978-1.483 4.946-1.483 4.055 0 6.478 2.819 2.424 2.77 2.424 7.418v7.666q0 4.699-2.424 7.518-2.423 2.77-6.478 2.77-2.968 0-4.946-1.534-1.979-1.582-2.523-4.302h-.05l.15 6.478v7.765Zm10.831-13.056q2.572 0 4.006-1.336 1.435-1.385 1.435-4.402v-7.468q0-2.967-1.435-4.302-1.434-1.385-4.006-1.385t-4.055 1.582Q441.75 84.18 441.75 87v6.973q0 2.869 1.435 4.451 1.483 1.534 4.055 1.534m17.31 4.154V76.909h4.55v3.809h.1q.197-1.93 1.434-3.116t3.115-1.187q1.78 0 3.017 1.137 1.286 1.088 1.78 2.968.297-1.88 1.534-2.968 1.236-1.137 3.165-1.137 2.523 0 4.105 1.978 1.632 1.929 1.632 4.995v20.723h-4.847V83.636q0-1.484-.692-2.325-.692-.89-1.929-.89-1.236 0-1.929.84-.643.841-.643 2.325v20.525h-4.352V83.636q0-1.484-.692-2.325-.643-.89-1.88-.89t-1.928.84-.693 2.325v20.525Zm41.89.495q-4.994 0-8.011-2.918t-3.017-7.963v-6.43q0-5.044 3.017-7.962t8.012-2.918q3.363 0 5.836 1.335 2.473 1.286 3.808 3.66 1.385 2.374 1.385 5.54v4.896h-16.915v2.225q0 2.869 1.583 4.451 1.583 1.583 4.303 1.583 2.226 0 3.71-.791 1.483-.841 1.78-2.275h5.292q-.545 3.462-3.512 5.539-2.918 2.028-7.27 2.028m-5.885-17.657v1.138h11.771V86.9q0-3.017-1.533-4.65-1.533-1.631-4.352-1.631T502.09 82.3q-1.534 1.632-1.534 4.65m24.877 17.162V76.909h5.293v5.193q.395-2.67 2.274-4.154 1.93-1.533 4.996-1.533 4.055 0 6.479 2.621 2.423 2.572 2.423 6.974v18.1h-5.341V86.8q0-2.818-1.435-4.302-1.434-1.533-3.907-1.533-2.522 0-4.006 1.582-1.434 1.583-1.434 4.402v17.162Zm43.078 0q-3.61 0-5.737-2.077t-2.127-5.638v-14.64h-7.666V76.91h7.666v-7.666h5.342v7.666h10.98v4.847h-10.98v14.59q0 1.286.741 2.127.742.791 2.028.791h7.963v4.847Z" paint-order="stroke"/><path fill="#1076ff" d="M59.497 47.956q-2.535 0-4.061-1.403t-1.526-3.84V39.17q0-2.437 1.526-3.84 1.526-1.402 4.06-1.402 2.462 0 3.939 1.28t1.575 3.494h-2.634q-.074-1.157-.861-1.796-.763-.64-2.018-.64-1.354 0-2.141.763-.788.738-.788 2.116v3.569q0 1.403.788 2.165.787.739 2.14.739 1.28 0 2.044-.64.762-.64.836-1.821h2.634q-.099 2.215-1.575 3.52-1.477 1.279-3.938 1.279m14.57-.025q-2.51 0-4.012-1.452-1.477-1.452-1.477-3.962v-3.15q0-2.535 1.477-3.963 1.477-1.452 4.012-1.452t4.011 1.452q1.477 1.428 1.477 3.963v3.15q0 2.51-1.501 3.962-1.477 1.452-3.987 1.452m0-2.338q1.329 0 2.067-.738.763-.763.763-2.166v-3.495q0-1.402-.763-2.14-.738-.764-2.067-.764t-2.092.763q-.739.739-.739 2.141v3.495q0 1.403.739 2.166.763.738 2.092.738m8.687 2.117V34.174h2.264v1.895h.05q.098-.96.713-1.55.616-.591 1.55-.591.887 0 1.502.566.64.541.886 1.476.148-.935.763-1.476.615-.566 1.575-.566 1.255 0 2.043.984.812.96.812 2.486V47.71H92.5V37.52q0-.738-.344-1.156-.345-.443-.96-.443-.616 0-.96.418-.32.419-.32 1.157V47.71H87.75V37.52q0-.738-.344-1.156-.32-.443-.936-.443-.615 0-.96.418-.344.419-.344 1.157V47.71Zm20.846.246q-.96 0-1.575-.566-.591-.59-.591-1.55t.59-1.551q.616-.615 1.576-.615t1.55.615q.615.59.615 1.55t-.615 1.55q-.59.567-1.55.567m14.766-.025q-2.51 0-4.011-1.452-1.477-1.452-1.477-3.962v-3.15q0-2.535 1.477-3.963 1.476-1.452 4.011-1.452t4.012 1.452q1.477 1.428 1.477 3.963v3.15q0 2.51-1.502 3.962-1.476 1.452-3.987 1.452m0-2.338q1.33 0 2.068-.738.763-.763.763-2.166v-3.495q0-1.402-.763-2.14-.739-.764-2.068-.764t-2.092.763q-.738.739-.738 2.141v3.495q0 1.403.738 2.166.763.738 2.092.738m9.574 2.117V29.744h2.658v9.869h2.387l3.495-5.44h2.978l-4.16 6.498 4.357 7.039h-3.052l-3.593-5.808h-2.412v5.808Zm18.606.246q-2.067 0-3.298-1.157-1.206-1.181-1.206-3.076 0-1.92 1.304-3.077 1.305-1.181 3.47-1.181h3.741v-.984q0-2.338-2.633-2.338-1.181 0-1.895.443t-.763 1.23h-2.609q.123-1.698 1.526-2.78 1.403-1.108 3.766-1.108 2.51 0 3.888 1.206 1.378 1.18 1.378 3.322v9.254h-2.608v-2.535h-.025q-.172 1.304-1.23 2.043-1.059.738-2.806.738m.763-2.19q1.501 0 2.362-.714.886-.739.886-1.97v-1.747h-3.544q-1.058 0-1.698.616-.615.615-.615 1.575 0 1.034.69 1.649.688.59 1.919.59m12.182 6.374 1.97-5.218-5.07-12.748h2.83l2.88 7.63q.22.54.417 1.18t.271 1.133q.099-.493.27-1.133.198-.64.395-1.18l2.682-7.63h2.806l-6.67 17.966Zm17.917-4.184q-2.461 0-3.913-1.403-1.428-1.427-1.428-3.864v-8.515h2.658v8.49q0 1.379.714 2.19.714.788 1.97.788 1.279 0 1.993-.787.738-.812.738-2.19v-8.491h2.658v8.515q0 2.437-1.477 3.864-1.452 1.403-3.913 1.403m11.247 4.184v-2.29h3.815q1.107 0 1.747-.614.64-.616.64-1.674v-1.009l.05-2.264q-.32 1.206-1.28 1.87-.936.665-2.338.665-2.092 0-3.298-1.354-1.206-1.353-1.206-3.716v-2.732q0-2.338 1.206-3.716t3.298-1.378q1.402 0 2.338.664.935.665 1.255 1.87v-2.288h2.609V47.61q0 2.092-1.354 3.298-1.329 1.23-3.642 1.23Zm3.495-7.556q1.255 0 1.969-.763.738-.787.738-2.19V39.17q0-1.378-.738-2.141-.714-.788-1.969-.788-1.304 0-2.018.738-.69.739-.69 2.018v2.806q0 1.304.69 2.043.714.738 2.018.738m9.992 3.126V34.174h2.633v2.658q.197-1.354 1.157-2.117.96-.787 2.535-.787 2.092 0 3.249 1.304 1.156 1.304 1.156 3.667v1.206h-2.657v-1.132q0-2.732-2.683-2.732-1.33 0-2.043.788-.689.763-.689 2.24v8.44Zm19.59.221q-2.51 0-4.011-1.452-1.477-1.452-1.477-3.962v-3.15q0-2.535 1.477-3.963 1.476-1.452 4.011-1.452t4.012 1.452q1.477 1.428 1.477 3.963v3.15q0 2.51-1.502 3.962-1.476 1.452-3.987 1.452m0-2.338q1.33 0 2.068-.738.763-.763.763-2.166v-3.495q0-1.402-.763-2.14-.739-.764-2.068-.764t-2.092.763q-.738.739-.738 2.141v3.495q0 1.403.738 2.166.763.738 2.092.738m14.742 2.363q-2.46 0-3.913-1.403-1.427-1.427-1.427-3.864v-8.515h2.658v8.49q0 1.379.714 2.19.713.788 1.968.788 1.28 0 1.994-.787.738-.812.738-2.19v-8.491h2.658v8.515q0 2.437-1.476 3.864-1.452 1.403-3.914 1.403m9.476 4.184V34.174h2.633v2.56q.27-1.33 1.23-2.068.985-.738 2.462-.738 2.018 0 3.224 1.402 1.206 1.379 1.206 3.692v3.815q0 2.338-1.206 3.74-1.206 1.379-3.224 1.379-1.477 0-2.461-.763-.985-.788-1.256-2.141h-.024l.074 3.224v3.864Zm5.39-6.498q1.28 0 1.993-.664.714-.69.714-2.19V39.07q0-1.476-.714-2.14-.714-.69-1.994-.69t-2.018.788q-.713.763-.713 2.165v3.47q0 1.428.713 2.215.739.763 2.018.763" paint-order="stroke"/><path fill="#dc67d7" d="M32.687 30.029c-5.847 0-10.61 4.762-10.61 10.61 0 5.846 4.763 10.608 10.61 10.608s10.61-4.762 10.61-10.609-4.764-10.61-10.61-10.61" paint-order="stroke"/><path fill="#f4c0fa" d="M41.686 40.638a9 9 0 1 1-17.999 0 9 9 0 0 1 17.999 0" paint-order="stroke"/><path fill="#dc67d7" d="M31.702 47.319V36.73a.23.23 0 0 0-.23-.23h-2.694a.6.6 0 0 1-.598-.598v-.574a.6.6 0 0 1 .598-.598h7.817a.6.6 0 0 1 .598.598v.574a.6.6 0 0 1-.598.598h-2.712a.23.23 0 0 0-.23.23v10.588a.6.6 0 0 1-.598.598H32.3a.6.6 0 0 1-.598-.598" paint-order="stroke"/><path fill="#6c6c6c" d="M17.13 125.587a.5.5 0 1 0 0 1.001H584.5a.5.5 0 0 0 0-1Z" paint-order="stroke"/></svg>