<svg xmlns="http://www.w3.org/2000/svg" xmlns:xlink="http://www.w3.org/1999/xlink" xml:space="preserve" width="795.529" height="203.452" viewBox="0 0 210.484 53.83"><defs><linearGradient id="e"><stop offset="0" stop-color="#6a9ce0" stop-opacity="1"/><stop offset=".383" stop-color="#4f3ce2" stop-opacity="1"/><stop offset=".709" stop-color="#a22ad2" stop-opacity="1"/><stop offset="1" stop-color="#dc4d6c" stop-opacity="1"/></linearGradient><linearGradient id="c"><stop offset="0" stop-color="#eaad64" stop-opacity="1"/><stop offset=".403" stop-color="#896a24" stop-opacity="1"/><stop offset="1" stop-color="#e1a75f" stop-opacity="1"/></linearGradient><linearGradient id="b"><stop offset="0" stop-color="#eaad64" stop-opacity="1"/><stop offset=".29" stop-color="#ddc187" stop-opacity="1"/><stop offset="1" stop-color="#f49449" stop-opacity="1"/></linearGradient><linearGradient id="g"><stop offset="0" stop-color="#fff" stop-opacity=".18748233"/><stop offset="1" stop-color="#fff" stop-opacity="0"/></linearGradient><linearGradient id="d"><stop offset="0" stop-color="#710000" stop-opacity="1"/><stop offset=".179" stop-color="#8f0000" stop-opacity="1"/><stop offset="1" stop-color="#ad0000" stop-opacity="1"/></linearGradient><linearGradient id="a"><stop offset=".06" stop-color="#eaad64" stop-opacity="1"/><stop offset=".702" stop-color="#e6bd7e" stop-opacity="1"/><stop offset="1" stop-color="#d77c37" stop-opacity="1"/></linearGradient><linearGradient href="#a" id="h" x1="54.733" x2="91.168" y1="185.903" y2="253.258" gradientTransform="translate(.821 25.524)scale(.79863)" gradientUnits="userSpaceOnUse"/><linearGradient href="#b" id="i" x1="23.302" x2="124.096" y1="213.03" y2="191.145" gradientTransform="translate(1.01 25.59)scale(.79863)" gradientUnits="userSpaceOnUse"/><linearGradient href="#c" id="j" x1="79.089" x2="68.912" y1="253.377" y2="173.613" gradientTransform="translate(8.079 45.18)scale(.69926)" gradientUnits="userSpaceOnUse"/><linearGradient href="#d" id="k" x1="71.29" x2="71.29" y1="198.267" y2="180.078" gradientUnits="userSpaceOnUse"/><linearGradient href="#e" id="m" x1="470.648" x2="561.136" y1="107.27" y2="107.27" gradientTransform="rotate(-10.76 214.693 1453.293)scale(1.58818)" gradientUnits="userSpaceOnUse"/><radialGradient href="#g" id="l" cx="68.8" cy="187.474" r="2.29" fx="68.8" fy="187.474" gradientTransform="matrix(1 0 0 .96029 0 7.594)" gradientUnits="userSpaceOnUse"/></defs><path d="M471.013 68.323c-6.724.224-13.676 1.2-19.57 4.655-2.638 1.647-4.86 4.43-4.831 7.669-.265 5.4 1.465 10.772 4.256 15.35 3.195 5.127 8.31 9.13 14.228 10.539 5.903 1.536 12.375 1.16 17.94-1.4 5.63-2.664 9.9-7.731 12.128-13.495a28 28 0 0 0 1.017-2.995c-.014 2.225.614 4.622 2.371 6.111-3.074 2.41-3.633 7.278-1.29 10.378 1.83 2.605 5.412 3.585 8.385 2.595.743-.23 1.45-.58 2.085-1.03 1.134 1.692 3.738 2.228 5.383.973 1.087.611 2.479.628 3.59.092 1.605 1.431 4.065 1.844 6.029.947.553.19 1.2.053 1.725.04 1.108 2.263 4.638 2.792 6.234.768.969-1.141 1.555-2.539 2.414-3.757.692 1.87 2.617 3.093 4.591 3.063.862.038 1.724-.21 2.513-.481 2.46.637 5.134-1.851 4.503-4.36-.256-1.965-.047-4.092-.986-5.898-1.175-1.824-3.974-2.226-5.652-.873-1.108-.595-2.504-.57-3.615.002-1.13-.933-2.81-.966-4.077-.4-1.5-1.515-4.326-1.472-5.654.252-.924-.425-1.997-.32-2.92-.058-1.36-.338-2.839-.129-4.072.528-.614-1.114-1.823-1.884-3.096-1.949 1.593-.739 2.668-2.231 3.658-3.623 1.319-2.127 1.7-4.876.778-7.23.636-.168 1.206-.517 1.73-.907.184.653.53 1.283 1.078 1.698-.775 1.536-1.633 3.055-2.19 4.683-.326 1.573.855 3.075 2.327 3.513 1.01.304 1.987.724 3.012.966 1.343.242 2.759-.42 3.414-1.62.828 1.151 2.148 1.798 3.256 2.636 1.232.737 2.917.544 3.888-.538 1.543-1.474 2.683-3.346 3.528-5.293a12.5 12.5 0 0 0 .783-3.119c1.34.524 2.96.085 3.91-.978.247 1.887.396 3.862 1.219 5.599 1.1 1.65 3.526 1.801 5.11.792.512-.197 1.004-.5 1.433-.813.455.233-.073.958.011 1.404-.167.38.194 1.128-.364 1.139-3.081.66-5.594 3.463-5.714 6.646-.277 3.479 2.012 7.248 5.565 7.937 2.175.5 4.575.057 6.377-1.277 1.185 1.926 4.17 2.424 5.808.79.372-.128.576-1.114.913-.649 2.434 2.274 6.617 2.183 9.015-.098 1.333 1.563 3.613 2.157 5.572 1.625.726.32 1.568.337 2.323.174.33 2.331 3.08 3.792 5.224 2.887.923-.354 1.71-1.083 2.08-2.006 2.908-.057 5.384-2.613 5.592-5.473a6.6 6.6 0 0 0-.14-2.318c.49.52 1.1.885 1.502 1.485 1.221 1.203 3.374 1.24 4.671.144 1.6.9 3.474.201 5.198.322.765-.121 1.54-.132 2.3-.092.757-.073 1.537.197 2.276-.119.66-.058 1.34.217 2.002-.043.81-.193 1.657-.365 2.46-.051 1.27-.055 2.695.107 3.735-.787 1.26.338 2.572-.022 3.834-.134.39-.122.745.453 1.174.459 1.154.34 2.282-.292 3.445-.182a200 200 0 0 0 4.88-.309c.632.044 1.27.218 1.866-.084.896.39 1.9.026 2.742-.343.811.373 1.742.393 2.592.263.865.176 1.71-.225 2.573-.06.819-.079 1.63-.19 2.45-.13 2.053-.255 3.552-2.862 2.409-4.69.293-1.017.271-2.147-.002-3.163-.704-1.89-3.128-2.858-4.96-2.062-.902-.375-1.934-.142-2.759.32a6.4 6.4 0 0 0-1.693-.144c1.802-3.63 3.376-7.403 4.262-11.37 2.987-.478 5.225-3.869 4.13-6.773-.884-2.778-4.267-4.397-6.974-3.27-1.41.535-2.644 1.64-3.143 3.086-3.77-.067-7.548-.271-11.314-.152-2.396.464-3.605 3.28-2.983 5.496.425.698-.117.622-.702.565-3.41-.065-6.827-.189-10.233-.09-.88.138-1.649.779-2.278 1.271-1.17-1.1-2.913-1.91-4.489-1.18-.618.245-1.132.695-1.56 1.196.058-1.44.29-2.986-.289-4.346-1.036-1.982-3.588-2.528-5.621-2.083-1.637.431-2.78 2.093-2.935 3.67-.362-.308-1.213-.063-1.29-.48-.008-1.526.001-3.41-1.443-4.343-1.115-.769-2.598-.891-3.869-.47-1.91-.79-4.638.067-5.1 2.257.135.828-.803.128-1.24.17-.521-.038-.908-.24-1.084-.746-1.058-1.522-2.999-2.29-4.806-2.282-1.886.16-3.186 1.722-4.178 3.177-.73.95-1.49 1.872-2.217 2.824-.934-1.536-2.373-2.745-4.027-3.44.117-1.746-1.175-3.446-2.928-3.702-1.207-.2-2.49-.36-3.69-.058-1.766.583-2.593 2.53-2.597 4.27-.847.292-1.634.734-2.406 1.183-.61-1.475-2.255-2.262-3.8-2.101-1.664-.043-3.552.692-4.099 2.402-.334-.033-.862-.732-1.267-1.026-1.179-.978-2.303-2.233-3.853-2.575-1.067-.188-2.19.148-3.036.812-1.239-.965-2.863-1.137-4.268-1.76-1.417-.431-3.108.182-3.747 1.562-.477.768-.807 1.613-1.225 2.413-1.356.112-2.753.256-4.014.766-1.103-1.025-2.09-2.176-3.249-3.14-1.17-1.048-2.964-1.024-4.23-.163-.368.146-.647-.575-1.071-.637-.954-.494-2.066-.567-3.118-.465-.782-1.736-2.902-2.322-4.66-2.038-1.544.015-3.164.892-3.705 2.396-1.746-.078-3.89.426-4.59 2.233-.624 1.608-.585 3.52.184 5.068a3.9 3.9 0 0 0 1.373 1.318 9.4 9.4 0 0 0-2.264 3.213c.237-1.885.505-3.833.131-5.714-.905-3.894-4.218-6.732-7.769-8.248-5.402-2.418-11.408-3.014-17.264-3.11zm159.848 14.541c-.79 2.683-2.026 5.208-3.395 7.637-.407.973-.304 2.121.211 3.033a3.32 3.32 0 0 0-2.94-.254c-1.228-.531-2.685.022-3.528.99-1.196-.697-2.774-.607-3.926.1-1.092-1.056-2.716-.764-4.084-.72-.87.17-1.763.403-2.627.093-1.014-.102-1.971.79-2.96.287-.786-.157-1.629.067-2.26.551-.879-.782-2.122-.597-3.177-.449-.52-.064-1.024.24-1.484.305 2.604-1.592 4.795-3.79 6.793-6.053 1.207 1.13 2.937 1.156 4.487 1.113 3.85.055 7.71.32 11.553.119 2.444-.547 3.748-3.324 3.3-5.658.029-.367-.41-.987-.258-1.16zm-45.428 3.159c-.33 1.183-.91 2.314-1.064 3.535-.046 2.068 1.875 3.731 3.858 3.84 1.334.247 2.778-.118 3.816-.996.244 1.295 1.155 2.474 2.17 3.166-.931 1.018-1.286 2.488-.948 3.822-.062.357.046 1.508-.287.732-1.223-2-3.775-2.883-6.02-2.388-1.236-.527-2.749-.326-3.808.5-1.191-1.173-3.172-1.5-4.64-.666-1.614-1.275-4.245-.936-5.442.75-2.07-1.921-5.45-2.177-7.863-.745-1.118-1.075-2.943-1.276-4.3-.55a3.8 3.8 0 0 0-2.05.136c-.046-.353.716-.526.89-.928.67-.804.947-1.865.997-2.894 3.667-.46 6.84-3.492 7.43-7.148.97.433 2.092.538 3.12.26-1.092 1.144-2.34 2.176-3.263 3.462-1.008 1.894-.013 4.284 1.68 5.415 1.595 1.46 4.381 1.495 5.806-.23 3.421-3.194 6.77-6.462 10.123-9.728zm46.928 8.754c.32.247-.382-.052 0 0m-44.7 8.68c.751.274-.418.66-.298.09.047-.118.197-.108.299-.09" fill="#525252" transform="translate(-439.557 -61.383)"/><path d="M469.426 65.148c-6.725.224-13.677 1.2-19.57 4.655-2.639 1.647-4.86 4.43-4.832 7.669-.264 5.4 1.465 10.772 4.256 15.35 3.195 5.127 8.31 9.13 14.228 10.539 5.903 1.536 12.375 1.16 17.94-1.4 5.63-2.664 9.901-7.731 12.128-13.495a28 28 0 0 0 1.018-2.995c-.014 2.225.613 4.622 2.37 6.111-3.073 2.41-3.633 7.278-1.29 10.378 1.831 2.605 5.413 3.585 8.386 2.595.743-.23 1.45-.58 2.085-1.03 1.133 1.692 3.738 2.228 5.382.973 1.087.611 2.48.628 3.59.092 1.605 1.43 4.065 1.844 6.03.947.553.19 1.199.053 1.724.04 1.109 2.263 4.638 2.792 6.235.768.968-1.141 1.555-2.539 2.414-3.757.691 1.87 2.616 3.093 4.59 3.063.863.038 1.725-.21 2.513-.481 2.46.637 5.135-1.851 4.504-4.36-.256-1.965-.047-4.092-.986-5.898-1.176-1.824-3.974-2.226-5.653-.873-1.107-.595-2.503-.57-3.615.002-1.13-.933-2.81-.966-4.076-.4-1.501-1.515-4.327-1.472-5.654.252-.924-.425-1.997-.32-2.921-.058-1.36-.338-2.838-.129-4.072.528-.613-1.114-1.822-1.884-3.095-1.949 1.592-.739 2.668-2.231 3.658-3.623 1.318-2.127 1.7-4.876.777-7.23.636-.168 1.207-.517 1.73-.907.184.653.531 1.283 1.079 1.698-.775 1.536-1.633 3.055-2.19 4.683-.326 1.573.855 3.075 2.327 3.513 1.01.304 1.987.724 3.011.966 1.344.242 2.759-.42 3.414-1.62.828 1.151 2.148 1.798 3.256 2.636 1.233.737 2.917.544 3.889-.538 1.542-1.474 2.683-3.346 3.527-5.293a12.5 12.5 0 0 0 .783-3.119c1.34.524 2.96.085 3.91-.978.248 1.887.397 3.862 1.22 5.599 1.1 1.65 3.525 1.801 5.11.792.511-.197 1.004-.5 1.432-.813.456.233-.072.958.012 1.404-.168.38.194 1.128-.364 1.139-3.082.66-5.594 3.462-5.714 6.646-.278 3.479 2.012 7.248 5.565 7.937 2.175.5 4.574.057 6.376-1.277 1.186 1.926 4.17 2.424 5.809.79.371-.128.576-1.114.912-.649 2.434 2.274 6.617 2.183 9.016-.098 1.332 1.563 3.613 2.157 5.572 1.625.725.32 1.567.337 2.322.174.331 2.331 3.08 3.792 5.224 2.887.923-.354 1.71-1.083 2.08-2.006 2.908-.057 5.384-2.613 5.593-5.473a6.6 6.6 0 0 0-.141-2.318c.49.52 1.101.885 1.502 1.485 1.222 1.203 3.375 1.24 4.672.144 1.599.9 3.474.201 5.197.322.766-.121 1.54-.132 2.3-.092.757-.073 1.538.197 2.276-.119.66-.058 1.34.217 2.002-.043.81-.193 1.657-.365 2.461-.051 1.27-.055 2.695.107 3.735-.787 1.26.338 2.572-.022 3.834-.134.39-.122.744.453 1.173.459 1.155.34 2.282-.292 3.446-.182 1.643-.08 3.233-.189 4.879-.309.632.044 1.27.218 1.867-.084.895.39 1.899.026 2.742-.343.811.373 1.741.393 2.592.263.865.176 1.709-.225 2.572-.06.82-.079 1.63-.19 2.45-.13 2.053-.255 3.553-2.862 2.41-4.69.292-1.017.27-2.147-.003-3.163-.704-1.89-3.128-2.858-4.959-2.062-.902-.375-1.935-.142-2.76.32a6.4 6.4 0 0 0-1.693-.144c1.803-3.63 3.377-7.403 4.262-11.37 2.987-.478 5.225-3.869 4.13-6.773-.883-2.778-4.267-4.397-6.974-3.27-1.41.535-2.644 1.64-3.142 3.086-3.77-.067-7.548-.271-11.315-.152-2.396.464-3.605 3.28-2.982 5.496.424.698-.118.622-.703.565-3.409-.065-6.826-.189-10.233-.09-.88.138-1.648.779-2.277 1.271-1.17-1.1-2.914-1.91-4.49-1.18-.618.245-1.131.695-1.559 1.196.058-1.44.289-2.986-.29-4.346-1.036-1.982-3.588-2.528-5.62-2.083-1.638.431-2.78 2.093-2.936 3.67-.362-.308-1.213-.063-1.289-.48-.009-1.526 0-3.41-1.443-4.343-1.116-.769-2.599-.891-3.87-.47-1.909-.79-4.638.067-5.099 2.257.135.828-.803.128-1.24.17-.522-.038-.909-.24-1.084-.746-1.058-1.522-3-2.29-4.806-2.282-1.886.16-3.187 1.722-4.178 3.177-.73.95-1.49 1.872-2.217 2.824-.934-1.536-2.374-2.745-4.028-3.44.118-1.746-1.175-3.446-2.928-3.702-1.206-.2-2.49-.36-3.69-.058-1.765.583-2.593 2.53-2.596 4.27-.847.292-1.634.734-2.407 1.183-.61-1.475-2.255-2.262-3.8-2.101-1.664-.043-3.552.692-4.098 2.402-.334-.033-.862-.732-1.267-1.026-1.18-.978-2.303-2.233-3.853-2.575-1.068-.188-2.191.148-3.036.812-1.24-.965-2.863-1.137-4.269-1.76-1.417-.431-3.108.182-3.746 1.562-.478.768-.808 1.613-1.226 2.413-1.356.112-2.753.256-4.013.766-1.104-1.025-2.091-2.176-3.25-3.14-1.17-1.048-2.964-1.024-4.23-.163-.368.146-.646-.575-1.071-.637-.953-.494-2.065-.567-3.117-.465-.782-1.736-2.903-2.322-4.66-2.038-1.544.015-3.165.892-3.705 2.396-1.747-.078-3.891.426-4.591 2.233-.624 1.608-.585 3.52.184 5.068a3.9 3.9 0 0 0 1.373 1.318 9.4 9.4 0 0 0-2.263 3.213c.236-1.885.505-3.833.13-5.714-.905-3.894-4.217-6.732-7.768-8.248-5.403-2.418-11.408-3.014-17.264-3.11zM629.273 79.69c-.79 2.683-2.026 5.208-3.394 7.637-.407.973-.305 2.121.21 3.033a3.32 3.32 0 0 0-2.939-.254c-1.228-.531-2.686.022-3.529.99-1.195-.697-2.774-.607-3.926.1-1.092-1.056-2.716-.764-4.084-.72-.869.17-1.763.403-2.627.093-1.013-.102-1.97.79-2.96.287-.785-.157-1.628.067-2.26.551-.878-.782-2.122-.597-3.176-.449-.52-.064-1.024.24-1.484.305 2.603-1.592 4.795-3.79 6.792-6.053 1.207 1.13 2.938 1.156 4.487 1.113 3.85.055 7.71.32 11.554.119 2.444-.547 3.747-3.324 3.299-5.658.03-.367-.41-.987-.257-1.16zm-45.427 3.159c-.33 1.183-.91 2.314-1.065 3.535-.046 2.068 1.875 3.731 3.858 3.84 1.334.247 2.778-.118 3.816-.996.245 1.295 1.155 2.474 2.17 3.166-.93 1.018-1.285 2.488-.947 3.822-.063.357.046 1.508-.288.732-1.223-2-3.775-2.883-6.019-2.388-1.236-.527-2.75-.326-3.808.5-1.192-1.173-3.172-1.5-4.641-.666-1.613-1.275-4.245-.936-5.442.75-2.07-1.921-5.45-2.177-7.863-.745-1.117-1.075-2.942-1.276-4.299-.55a3.8 3.8 0 0 0-2.05.136c-.047-.353.716-.526.889-.928.67-.804.948-1.865.997-2.894 3.668-.46 6.84-3.492 7.43-7.148.97.433 2.092.538 3.121.26-1.093 1.144-2.34 2.176-3.263 3.462-1.008 1.894-.014 4.284 1.68 5.415 1.595 1.46 4.38 1.495 5.806-.23 3.42-3.194 6.77-6.462 10.123-9.728zm46.927 8.754c.32.247-.382-.052 0 0m-44.699 8.68c.75.274-.419.66-.299.09.047-.118.197-.108.3-.09" fill="#eee" transform="translate(-439.557 -61.383)"/><g fill="#002907"><path d="M16.088 183.103c.118-4.558 81.988-27.891 83.147 1.215.453 11.35-8.465 42.2-40.986 42.126-32.522-.073-42.531-29.13-42.161-43.34" fill="url(#h)" transform="translate(-.719 -83.176)scale(.545)"/><path d="M16.276 183.17c-.462-4.537 2.019-7.948 6.142-10.727 8.731-5.886 24.852-8.295 37.017-8.08 11.732.208 25.241 2.412 33.165 8.074 4.17 2.98 7.059 7.377 6.824 11.947-.182 3.532-9.687 17.4-42.208 17.327s-40.042-9.72-40.94-18.542" fill="url(#i)" transform="translate(-.719 -83.176)scale(.545)"/><path d="M18.065 183.258c-.404-3.972 2.508-8.2 6.117-10.634 7.645-5.153 24.244-6.708 34.894-6.52 10.273.183 24.723 2.27 31.722 7.142 5.519 3.841 6.403 6.44 6.197 10.441-.908 17.664-76.824 20.26-78.93-.43" fill="url(#j)" transform="translate(-.719 -83.176)scale(.545)"/><path d="M96.88 183.594c0 8.314-17.72 16.32-39.36 16.32-8.64 0-16.677-.588-23.136-2.55-9.72-2.954-15.959-8.265-16.048-13.35-.022-1.234.951-1.233 1.653-1.703.254-.248-.213-1.305.616-1.264 1.27-.469 2.021-2.325 2.51-3.153.342-.257.553-.708 1.001-.764.484-.06 1.15-.895 1.626-1.168.853-.489 1.022-1.328 2.01-1.776.61-.276 1.25.32 1.938.099.615-.197 1.238-1.402 1.898-1.43 2.15-.093 1.45.722 2.632-.169 1.219-.918 4.91-2.313 6.442-2.208 1.713.117 3.516-.68 5.323-.908 1.497-.189 2.514-.708 4.064-.913 1.226-.161 2.18.656 3.448.52 1.052-.112 2.41-1.193 3.494-1.193.791 0 1.91 1.078 2.969 1.206.886.106 1.724-.738 2.37-.708.922.044 1.941.797 2.815.712.925-.09 1.704-1.015 2.628-.914.927.101 1.236.83 2.156 1.112.35.107.876.076 1.377.241.52.172.94-.208 1.382-.181.5.03.747.316 1.128.39.487.093 1.4.188 2.426.572 1.133.424 2.386 1.14 2.9 1.22 1.515.238.653-.808 2.021-.39.864.265.713.99 1.46 1.43.69.406 2.284.522 2.978.892.674.359 1.269.203 2.122.733 1.07.663 1.905 1.625 3.25 2.515.752.496 2.05.897 2.401 1.138 1.311.895 1.36 1.68 2.01 2.242 1.141.988 1.497 1.542 1.497 3.4" fill="#d5ccc5" transform="translate(-.719 -83.176)scale(.545)"/><g ><path d="M112.94 196.044c.639 1.514.444 3.02-.339 3.325s-1.901-.69-2.497-2.222-.444-3.021.339-3.326c.446-.173.565.008 1.156.437.476.345.66.173 1.34 1.786z" fill="#dfded6" transform="matrix(.43525 0 0 .29262 -.458 -42.819)"/><path d="M66.922 211.474c.639 1.514.444 3.02-.34 3.325-.782.305-1.9-.69-2.496-2.222s-.444-3.021.339-3.326c.445-.173.565.008 1.156.437.476.345.66.173 1.34 1.786z" fill="#e1e0db" transform="matrix(.43525 0 0 .29262 -.458 -42.819)"/><path d="M35.15 199.25c.93 1.135 1.066 2.656.388 3.314s-1.95.24-2.842-.931-1.065-2.656-.387-3.314c.386-.375.537-.259 1.19-.131.525.103.662-.147 1.651 1.062z" fill="#ccc6ab" transform="matrix(.43525 0 0 .29262 -.458 -42.819)"/><path d="M86.7 196.113c.64 1.514.445 3.02-.338 3.325s-1.901-.69-2.497-2.222-.444-3.021.339-3.326c.446-.173.565.008 1.156.437.476.345.66.173 1.34 1.786z" fill="#dfddd2" transform="matrix(.43525 0 0 .29262 -.458 -42.819)"/><path d="M90.176 186.609c-1.108 1.214-2.558 1.667-3.162 1.083s-.168-2.016.975-3.198c1.142-1.182 2.558-1.667 3.162-1.083.344.333.23.517.087 1.233-.114.577.119.672-1.062 1.965z" fill="#d4dddc" transform="matrix(.43525 0 0 .29262 -.458 -42.819)"/><path d="M105.695 207.594c-.699 1.488-1.95 2.35-2.7 1.972s-.757-1.875-.017-3.342c.741-1.468 1.95-2.351 2.7-1.972.427.215.371.425.448 1.151.062.585.313.607-.431 2.191zM53.99 186.56c.64 1.514.445 3.02-.338 3.325s-1.901-.69-2.497-2.222-.444-3.021.339-3.326c.446-.173.565.008 1.156.437.476.345.66.173 1.34 1.786z" fill="#dfddd2" transform="matrix(.43525 0 0 .29262 -.458 -42.819)"/><path d="M52.978 206.922c.639 1.514.444 3.02-.339 3.325s-1.9-.69-2.497-2.222c-.596-1.532-.444-3.021.339-3.326.446-.173.565.008 1.156.437.476.345.66.173 1.34 1.786z" fill="#c4c3b4" transform="matrix(.43525 0 0 .29262 -.458 -42.819)"/><path d="M88.225 206.67c1.496.681 2.373 1.921 2.003 2.676-.37.754-1.867.779-3.343.055s-2.372-1.922-2.002-2.676c.21-.43.42-.377 1.146-.462.584-.068.603-.32 2.196.406z" fill="#dad9d7" transform="matrix(.43525 0 0 .29262 -.458 -42.819)"/><path d="M100.937 184.772c1.562.51 2.572 1.644 2.29 2.435-.284.791-1.768.983-3.316.43-1.548-.555-2.573-1.645-2.29-2.436.162-.45.377-.422 1.088-.588.573-.133.564-.385 2.228.159z" fill="#dcdbd6" transform="matrix(.43525 0 0 .29262 -.458 -42.819)"/><path d="M96.363 194.46c.639 1.514.444 3.02-.34 3.325-.782.305-1.9-.69-2.496-2.222s-.444-3.021.339-3.326c.445-.173.565.008 1.156.437.476.345.66.173 1.34 1.786z" fill="#d6dbd9" transform="matrix(.43525 0 0 .29262 -.458 -42.819)"/><path d="M67.613 223.121c1.557.765 2.103 2.19 1.316 3.074s-2.654.94-4.169.127c-1.514-.814-2.103-2.19-1.316-3.074.449-.503.687-.446 1.623-.558.754-.09.887-.383 2.546.431z" fill="#bbb8ac" transform="matrix(.43525 0 0 .29262 -.458 -42.819)"/><path d="M76.856 219.501c.64 1.515.444 3.021-.339 3.326-.783.304-1.9-.69-2.497-2.223-.595-1.532-.444-3.02.34-3.325.445-.174.564.008 1.156.436.476.345.66.173 1.34 1.786z" fill="#c5bfa5" transform="matrix(.43525 0 0 .29262 -.458 -42.819)"/><path d="M53.644 222.89c-1.397-.683-1.936-2.079-1.283-3.002.654-.924 2.287-1.077 3.65-.342 1.36.735 1.935 2.079 1.282 3.002-.372.526-.583.48-1.4.641-.656.13-.76.428-2.249-.3z" fill="#c6c3ba" transform="matrix(.43525 0 0 .29262 -.458 -42.819)"/><path d="M38.695 213.776c.64 1.515.445 3.021-.338 3.326-.784.304-1.901-.69-2.497-2.223s-.445-3.02.338-3.325c.446-.174.565.008 1.157.436.476.346.66.173 1.34 1.786z" fill="#bdbdb8" transform="matrix(.43525 0 0 .29262 -.458 -42.819)"/><path d="M101.88 195.917c.638 1.514.444 3.02-.34 3.325-.783.305-1.9-.69-2.496-2.222s-.445-3.021.338-3.326c.446-.173.565.008 1.157.437.476.345.66.173 1.34 1.786z" fill="#bbb8ac" transform="matrix(.43525 0 0 .29262 -.458 -42.819)"/><path d="M101.88 195.917c.638 1.514.444 3.02-.34 3.325-.783.305-1.9-.69-2.496-2.222s-.445-3.021.338-3.326c.446-.173.565.008 1.157.437.476.345.66.173 1.34 1.786z" fill="#bbb8ac" transform="matrix(.43525 0 0 .29262 -.458 -42.819)"/><path d="M57.165 199.256c.64 1.515.444 3.021-.339 3.326-.783.304-1.9-.69-2.497-2.223-.596-1.532-.444-3.021.34-3.326.445-.173.564.008 1.156.437.476.345.66.173 1.34 1.786z" fill="#bbb8ac" transform="matrix(.43525 0 0 .29262 -6.199 -45.099)"/><path d="M64.087 181.863c.64 1.515.445 3.021-.338 3.326-.784.304-1.901-.69-2.497-2.223s-.445-3.02.338-3.325c.446-.174.565.008 1.157.436.476.346.66.173 1.34 1.786zm48.854 26.086c-1.162.461-2.072-.26-2.036-1.463.035-1.203 1.004-2.498 2.164-2.893s2.072.26 2.036 1.463c-.02.684-.171.8-.621 1.514-.363.575-.306.887-1.543 1.379zm-55.776-8.693c.64 1.515.444 3.021-.339 3.326-.783.304-1.9-.69-2.497-2.223-.596-1.532-.444-3.021.34-3.326.445-.173.564.008 1.156.437.476.345.66.173 1.34 1.786zm32.647 22.883c.64 2.11.444 4.208-.339 4.632s-1.9-.962-2.497-3.096c-.596-2.134-.444-4.207.34-4.632.445-.241.564.011 1.156.609.476.48.66.24 1.34 2.487zm11.695-8.047c1.413.79 2.226 2.44 1.858 3.547s-1.795 1.314-3.189.462-2.225-2.44-1.858-3.547c.21-.63.409-.58 1.103-.783.558-.164.58-.52 2.086.321z" fill="#bbb8ac" transform="matrix(.43525 0 0 .29262 -.458 -42.819)"/></g><path d="M62.607 193.741c2.084 2.381 5.755 4.233 9.823 3.704s7.011-2.877 7.474-3.472.629-4.333.33-5.557c-.297-1.223-1.388-3.34-2.711-4.63s-2.547-2.712-4.465-2.877c-1.918-.166-5.16-.562-8.202 3.175-3.043 3.737-2.944 3.737-2.282 4.762.661 1.026-.33 2.547-.33 3.473s.363 1.422.363 1.422" fill="url(#k)" transform="translate(.2 -68.574)scale(.43525)"/><path d="M71.09 187.623a2.29 2.2 0 0 1-2.29 2.199 2.29 2.2 0 0 1-2.29-2.2 2.29 2.2 0 0 1 2.29-2.199 2.29 2.2 0 0 1 2.29 2.2" fill="url(#l)" transform="translate(.2 -68.574)scale(.43525)"/></g><path d="M504.7 115.741q-1.37 0-2.47.615a4.35 4.35 0 0 0-1.725 1.715q-.615 1.1-.615 2.502 0 1.413.625 2.524a4.44 4.44 0 0 0 1.737 1.704q1.1.603 2.448.604 1.37 0 2.459-.604a4.3 4.3 0 0 0 1.715-1.704q.625-1.1.625-2.524 0-1.38-.603-2.48a4.4 4.4 0 0 0-1.694-1.726q-1.089-.626-2.502-.626m7.208.432q-.06-.002-.124.003-.505.034-.837.412-.321.367-.288.873l.473 7.081q.033.495.4.827.38.33.885.298a1.14 1.14 0 0 0 .827-.412q.33-.379.298-.874l-.042-.635a.14.14 0 0 1 .036-.11l.582-.677q.029-.045.076.006l1.211 1.952q.181.29.46.423.291.143.603.122a1.1 1.1 0 0 0 .55-.178q.28-.191.412-.482.142-.29.121-.613a1.2 1.2 0 0 0-.178-.561l-1.597-2.553q-.048-.06.004-.097l.941-1.123a.95.95 0 0 0 .233-.717.9.9 0 0 0-.125-.414.84.84 0 0 0-.292-.326 1 1 0 0 0-.705-.202q-.247.016-.467.129a1 1 0 0 0-.358.305l-1.658 2.207a.05.05 0 0 1-.031.014q-.011 0-.013-.021l-.235-3.53a1.14 1.14 0 0 0-.412-.826 1.13 1.13 0 0 0-.75-.302zm42.419.131a7 7 0 0 0-.6.047q-1.402.172-2.404.948a4.3 4.3 0 0 0-1.435 1.938q-.444 1.163-.28 2.49.174 1.413.908 2.43a4.3 4.3 0 0 0 1.868 1.487q1.143.468 2.482.303 1.338-.165 2.271-.79a3.67 3.67 0 0 0 1.376-1.626q.43-1.009.277-2.25a1.33 1.33 0 0 0-.282-.705 1.23 1.23 0 0 0-.55-.4 1.4 1.4 0 0 0-.639-.073l-2.173.268a.93.93 0 0 0-.64.361.9.9 0 0 0-.197.698.9.9 0 0 0 .36.63.93.93 0 0 0 .71.195l.91-.112q.02-.003.035.028.024.018.016.042-.06.572-.54.913t-1.143.423q-1.027.127-1.698-.464-.66-.592-.791-1.663-.135-1.091.363-1.816.495-.735 1.535-.862.417-.052.823.072.416.111.765.384.264.207.559.3.304.094.594.058.3-.037.539-.208.277-.219.413-.529t.096-.63a1.07 1.07 0 0 0-.255-.567q-1.234-1.38-3.273-1.32m-49.627 1.864q.669 0 1.176.323.507.314.776.863.27.54.27 1.219 0 .69-.28 1.24-.27.54-.777.852a2.17 2.17 0 0 1-1.165.313q-.68 0-1.186-.313a2.07 2.07 0 0 1-.777-.852 2.8 2.8 0 0 1-.27-1.24q0-.712.28-1.251.281-.54.788-.841a2.17 2.17 0 0 1 1.165-.313m24.366.127q-.105 0-.205.016a1 1 0 0 0-.609.315q-.25.266-.308.617-.039.234.023.462l1.32 5.035q.007.09-.02.128l-.972 1.6a1 1 0 0 0-.137.372q-.055.34.09.648.146.32.467.492v-.001q.15.08.342.11.34.055.68-.075.337-.12.556-.466l4.198-6.844q.104-.17.143-.403a1.07 1.07 0 0 0-.091-.649 1.06 1.06 0 0 0-.435-.486 1.2 1.2 0 0 0-.403-.142 1.05 1.05 0 0 0-.66.1 1.2 1.2 0 0 0-.488.444l-1.584 2.671a.04.04 0 0 1-.022.008q-.01-.002-.02-.014l-.634-2.945a1.18 1.18 0 0 0-.384-.664 1.25 1.25 0 0 0-.848-.329zm12.887.675q-.06-.001-.122.005-.505.045-.828.432a1.14 1.14 0 0 0-.277.88l.18 1.998q.067.742-.122 1.17-.18.417-.727.466-.472.043-.681-.23-.21-.275-.265-.897l-.211-2.342a1.14 1.14 0 0 0-.431-.816 1.18 1.18 0 0 0-.892-.277q-.494.045-.816.43a1.14 1.14 0 0 0-.278.881l.285 3.17q.11 1.213.856 1.795.745.584 1.884.48a3.2 3.2 0 0 0 1.1-.294 2.2 2.2 0 0 0 .808-.647q.028-.046.076.004.2.296.483.433.283.136.605.108a1.03 1.03 0 0 0 .724-.38q.283-.339.243-.78l-.405-4.49a1.14 1.14 0 0 0-.43-.816 1.16 1.16 0 0 0-.76-.283zm22.166.211q-.067.001-.138.01-.3.031-.739.295-.428.263-.66.614-.05.038-.067-.015-.306-.629-1.121-.541a1.07 1.07 0 0 0-.728.392q-.278.345-.23.795l.48 4.472q.054.504.445.81.391.315.895.261a1.14 1.14 0 0 0 .81-.445q.316-.382.263-.885l-.225-2.09q-.06-.57.268-.94.34-.374.85-.472a1.4 1.4 0 0 0 .736-.415.9.9 0 0 0 .246-.742 1.4 1.4 0 0 0-.36-.83q-.258-.285-.725-.274m5.928.074q-1.11 0-1.963.453-.84.443-1.294 1.24-.453.788-.453 1.823 0 1.089.475 1.887.485.8 1.326 1.22.84.42 1.909.42t1.909-.42 1.316-1.22q.485-.797.485-1.887 0-1.036-.453-1.822a3.1 3.1 0 0 0-1.305-1.24q-.84-.454-1.952-.454m-45.311.096q-.054-.001-.109.004a1.03 1.03 0 0 0-.577.23 1 1 0 0 0-.34.491q-.009.022-.042.025a.05.05 0 0 1-.033-.008 2 2 0 0 0-.852-.528q-.468-.158-1.155-.104-.968.076-1.651.606a3 3 0 0 0-.987 1.343q-.315.814-.237 1.804.075.957.504 1.734.438.767 1.186 1.184.747.428 1.736.35a2.7 2.7 0 0 0 1.048-.299 2.4 2.4 0 0 0 .825-.649q.01-.012.031-.013.033-.003.045.018a.97.97 0 0 0 .425.443q.282.162.605.136.441-.034.728-.37.288-.337.253-.778l-.364-4.634a1.03 1.03 0 0 0-.37-.728 1.02 1.02 0 0 0-.67-.257zm52.804.015q-.42.009-.754.296a1.14 1.14 0 0 0-.418.824l-.233 3.173q-.09 1.215.552 1.912.64.694 1.78.78.603.043 1.133-.112a2.2 2.2 0 0 0 .903-.507q.036-.04.075.016.149.325.406.506.257.18.58.204.44.033.775-.256a1.03 1.03 0 0 0 .368-.73l.33-4.496a1.14 1.14 0 0 0-.293-.876 1.16 1.16 0 0 0-.823-.418 1.18 1.18 0 0 0-.887.292 1.14 1.14 0 0 0-.417.824l-.147 2q-.055.742-.31 1.135-.245.382-.794.342-.473-.034-.634-.339-.162-.303-.116-.928l.172-2.344a1.14 1.14 0 0 0-.292-.876 1.17 1.17 0 0 0-.834-.418zm9.317.66a1.02 1.02 0 0 0-.682.254 1.03 1.03 0 0 0-.385.72l-.702 7.182q-.05.504.271.882.32.39.814.438.504.048.893-.27a1.14 1.14 0 0 0 .437-.814l.174-1.782a.04.04 0 0 1 .014-.031.05.05 0 0 1 .043.004q.258.24.666.39.418.159.87.204.954.093 1.707-.288a2.9 2.9 0 0 0 1.216-1.138q.466-.768.564-1.776.097-.988-.201-1.819a2.9 2.9 0 0 0-.973-1.352q-.664-.531-1.63-.626-.6-.058-1.06.081-.446.13-.894.508-.012.01-.033.008t-.03-.024q-.216-.672-.968-.745a1 1 0 0 0-.11-.006zm-16.81 1.375q.583 0 .928.389.345.378.345.981 0 .615-.356 1.003-.356.378-.917.378-.593 0-.938-.389-.335-.398-.335-.992 0-.604.345-.981.346-.389.928-.389m-47.563.151q.477.005.805.32.384.36.431.95.048.603-.277 1.018-.324.416-.883.459-.614.048-.968-.336a1.55 1.55 0 0 1-.398-.942q-.046-.592.267-1.005.313-.415.883-.46.072-.004.14-.004m66.574.717q.069 0 .14.007.569.056.875.476.305.42.248 1.01-.059.59-.44.955-.383.353-.95.297a1.23 1.23 0 0 1-.876-.465q-.318-.41-.257-1.033.057-.59.44-.943a1.17 1.17 0 0 1 .82-.304" fill="#002907" transform="translate(-442.563 -84.505)"/><path d="M590.443 121.452h2.329v.658h-2.329zm-.974 1.174h4.746v.701h-4.746zm1.975-.316h.785v1.544q0 .28-.079.437-.073.158-.29.242-.21.08-.474.095-.263.021-.59.021-.036-.163-.126-.379t-.18-.363l.317.01q.174.005.31.005h.19q.08 0 .106-.021.031-.021.031-.074zm1.075-.858h.19l.163-.037.48.369q-.18.2-.406.405t-.48.39q-.247.18-.51.316-.07-.1-.196-.232-.12-.131-.205-.21.195-.111.385-.264t.342-.31.237-.285zm-3.008-.996h4.662v1.354h-.753v-.685h-3.193v.685h-.716zm3.582-.78.838.237q-.19.274-.385.527-.19.253-.347.427l-.633-.221q.1-.137.195-.3.1-.17.185-.343.09-.174.147-.327m-3.234.3.653-.289q.137.147.269.337.137.184.2.337l-.696.322q-.052-.148-.179-.343-.12-.2-.247-.363m1.311-.115.68-.253q.121.163.237.374.116.205.169.363l-.727.28q-.037-.153-.143-.37-.105-.215-.216-.394m4.49.695h3.677v.748h-3.677zm-.211 1.554h3.677v.738h-3.677zm-.627 1.644h4.794v.748h-4.794zm1.991-4.114h.801v4.483h-.8zm-1.238.052.796.18q-.116.405-.28.805-.163.4-.352.748-.19.343-.395.596-.074-.069-.2-.153-.127-.09-.259-.174-.131-.084-.232-.137.206-.216.38-.516t.31-.648q.143-.348.232-.7m6.428 2.766h2.84v2.16h-.727v-1.47h-1.417v1.49h-.696zm2.297-2.829.58.6q-.4.159-.87.275-.469.11-.959.179t-.953.11q-.021-.137-.09-.332-.063-.195-.126-.321.332-.032.669-.079.337-.053.653-.116t.595-.142.5-.174m-1.249.67h.727v2.56h-.727zm-1.348.868h3.36v.733h-3.36zm.806 2.571h1.896v.69h-1.896zm-2.155-3.477.432-.553q.143.069.322.163.184.095.358.19.179.09.29.163l-.453.617q-.1-.08-.27-.18-.168-.1-.352-.205-.18-.11-.327-.195m-.253 1.465.411-.57q.148.064.337.159l.375.179q.184.09.3.163l-.427.638q-.105-.08-.284-.18-.174-.1-.364-.205t-.348-.184m.053 2.344q.142-.195.31-.458.175-.27.354-.575t.337-.61l.564.51q-.137.274-.29.559-.153.279-.31.553-.154.274-.317.537zm5.427-1.043h2.492v.532h-2.492zm-.105-2.487h2.634v.543h-2.634zm.99-.316h.69v3.725h-.69zm-1.032 3.625.763-.048q.432-.026.912-.058l.958-.074.005.575-.906.084q-.458.047-.88.084l-.768.069zm.769-1.58v.157h1.211v-.158zm0-.59v.157h1.211v-.158zm-.6-.464h2.438v1.675h-2.439zm2.143-1.56.321.564q-.347.069-.763.121-.417.048-.848.074-.432.026-.828.032-.015-.116-.063-.269-.047-.158-.1-.269.295-.016.6-.037.312-.026.612-.058.3-.031.569-.068.274-.042.5-.09m.385 1.154h1.78v.7h-1.78zm1.47 0h.732v.063q0 .063-.005.143v.12q-.016.801-.037 1.365-.016.564-.042.932-.021.364-.063.575-.043.205-.106.3-.1.147-.205.21-.106.064-.243.095-.126.027-.3.032t-.363 0q-.01-.158-.074-.369-.058-.205-.148-.358.158.016.285.021h.21q.058 0 .1-.02.043-.022.08-.075.042-.058.068-.237.032-.179.047-.51.022-.338.037-.86.016-.526.027-1.269zm-1.038-1.07h.732q0 .701-.016 1.323-.01.616-.068 1.154-.053.532-.18.99-.126.453-.352.827-.227.369-.585.659-.053-.095-.142-.206-.09-.11-.19-.21t-.19-.164q.316-.253.511-.569t.295-.706.137-.858q.037-.475.042-1.028.005-.558.005-1.211zm4.378 4.468q-.469 0-.785-.142-.31-.143-.463-.39-.153-.253-.153-.574 0-.29.132-.5.137-.217.342-.375.21-.163.448-.29.237-.131.442-.252.211-.127.343-.27.137-.141.137-.326 0-.163-.09-.247-.084-.09-.237-.09-.158 0-.253.095t-.095.295q0 .174.116.363.116.19.311.39.195.195.427.39.237.19.474.369l.448.332q.232.173.447.305.216.127.348.19l-.41.727q-.233-.132-.454-.264-.216-.137-.51-.379l-.68-.564q-.343-.29-.632-.584-.285-.3-.459-.611-.168-.311-.168-.633 0-.32.137-.547.142-.232.384-.359t.543-.126q.484 0 .769.242.29.237.29.675 0 .279-.127.484-.121.206-.316.364-.195.152-.416.29-.221.131-.416.263-.195.126-.322.28-.12.147-.12.341 0 .216.184.322.19.1.469.1.231 0 .453-.158.226-.163.41-.422.153-.205.253-.447.1-.248.137-.564h.822q-.079.4-.226.753-.148.348-.38.69-.268.396-.632.627-.358.227-.922.227m5.274-.464h3.014v.754h-3.014zm.222-2.523h2.66v.737h-2.66zm.932-1.522h.79v4.409h-.79zm-3.071.91h1.712v.691h-1.712zm.711 1.924.759-.906v3.023h-.759zm0-2.887h.759v1.28h-.759zm.674 2.202q.074.047.2.158.132.105.274.232.148.126.264.237l.174.152-.464.622q-.079-.11-.19-.247-.105-.143-.226-.285-.121-.147-.237-.274-.116-.132-.206-.226zm.053-1.238h.148l.131-.026.427.279q-.2.532-.516 1.011-.311.48-.696.864-.379.385-.785.632-.031-.105-.094-.247-.064-.148-.132-.28-.069-.136-.127-.21.364-.185.685-.48.327-.3.574-.663.253-.37.385-.748zm4.152 3.145q.48-.016 1.096-.032.621-.02 1.296-.047.68-.026 1.332-.053l-.026.7q-.632.038-1.285.07l-1.243.057q-.59.032-1.07.053zm-.016-1.533h4.388v.711h-4.388zm.959-1.017h2.444v.7h-2.444zm.242 1.486.88.237q-.121.242-.253.49-.131.242-.258.458-.121.216-.232.385l-.669-.222q.1-.19.2-.421.106-.232.19-.474.09-.243.142-.453m1.344.532.68-.353q.231.2.458.437.226.232.416.469t.31.437l-.716.432q-.105-.2-.295-.453-.184-.248-.41-.5-.222-.259-.443-.47m-.364-2.84q-.21.29-.537.59-.321.3-.722.57-.395.268-.827.468-.042-.095-.121-.21-.08-.122-.169-.232-.084-.116-.163-.2.453-.19.859-.48.41-.29.732-.616.321-.327.51-.622h.812q.21.29.459.537.252.248.532.453.284.2.584.353t.617.259q-.143.147-.269.337-.121.19-.227.363-.39-.179-.784-.437-.396-.258-.733-.553t-.553-.58m3.51-.537h3.75v.585h-3.75zm-.475.79h4.673v.585h-4.673zm1.928-.648h.79v.949h-.79zm-.637 2.492v.174h2.039v-.174Zm0 .616v.174h2.039v-.174zm0-1.227v.168h2.039v-.168zm-.774-.48h3.63v2.36h-3.63zm2.028 2.598.621-.364q.274.106.57.232.294.121.563.242t.458.216l-.864.343q-.142-.09-.363-.206-.216-.116-.469-.237t-.516-.226m-1.127-.38.7.311q-.216.153-.506.295-.284.142-.59.258-.305.116-.58.195-.062-.079-.168-.184-.1-.106-.205-.21-.105-.101-.19-.164.285-.053.57-.127.289-.079.542-.173.253-.095.427-.2m6.617-2.534h2.091v.701h-2.091zm-1.98 1.238h1.19v.527h-1.19zm0 .759h1.19v.527h-1.19zm-.765-3.05h2.755v.637h-2.755zm3.314-.385h.743v1.528q0 .395-.042.848t-.164.922q-.12.464-.347.906-.222.437-.585.806-.058-.079-.158-.179t-.21-.195q-.112-.095-.206-.153.347-.305.542-.684t.285-.78q.094-.4.116-.785.026-.385.026-.706zm.758 1.834q.064.516.174 1 .11.485.29.885.184.4.458.664-.084.069-.19.18-.1.11-.194.226-.09.121-.148.226-.31-.337-.505-.81-.195-.48-.311-1.06-.11-.584-.185-1.222zm-.063-1.454.596-.216q.115.216.216.474t.136.448l-.637.237q-.021-.185-.116-.448-.09-.269-.195-.495m-3.013-.37h.727v1.687h-.727zm.084 2.898h.564v1.85h-.564zm-.332-.753.374-.116q.064.132.116.29.058.158.074.274l-.395.131q-.01-.116-.063-.279-.048-.163-.106-.3m.812-.137.469.1q-.069.163-.132.321-.058.158-.106.274l-.379-.094q.042-.132.084-.3.043-.17.064-.301m-1.502-.622h2.308v.6h-1.686v2.998h-.622zm1.986 0h.638v2.919q0 .205-.042.337-.037.132-.158.205-.122.074-.28.09-.158.021-.358.021-.01-.126-.058-.306-.047-.173-.105-.295l.174.01q.09 0 .126-.004.063 0 .063-.069z" aria-label="学生活動＆社会貢献" fill="#3e3e3e" transform="rotate(-2.502 -1625.467 10035.227)"/><path d="m505.578 70.606-1.54.066a1.11 1.11 0 0 0-1.062 1.16q.022.561.052 1.121l-3.681.14a1.134 1.134 0 0 0-1.09 1.155l.03 1.537a1.094 1.094 0 0 0 1.135 1.072l3.703-.14q.061 1.052.058 2.102c-1.03.347-1.994.803-2.893 1.391a7.6 7.6 0 0 0-2.196 2.291c-.572.94-.86 1.945-.82 3.04a9.7 9.7 0 0 0 .19 1.947q.194.954.848 1.71c.414.505.939.835 1.595.99a4.9 4.9 0 0 0 1.947.139 4.22 4.22 0 0 0 2.849-1.216 6.35 6.35 0 0 0 1.673-2.71c.31-1.027.488-2.077.535-3.17.002-.614.026-1.27.029-2.014.766-.041 1.51.114 2.23.423.7.33 1.18.88 1.44 1.668.13.657.06 1.292-.226 1.882-.308.59-.682 1.113-1.165 1.55q-.291.276-.585.523c-.47.396-.47.95.044 1.29l1.964 1.3c.513.34 1.326.312 1.785-.097q.46-.411.878-.858a9.8 9.8 0 0 0 1.363-1.878 5.4 5.4 0 0 0 .686-2.251c.092-1.4-.32-2.65-1.191-3.725-.894-1.076-1.986-1.845-3.297-2.287a10.7 10.7 0 0 0-3.96-.56c-.02-.57-.04-1.095-.038-1.62l3.397-.17a1.15 1.15 0 0 0 1.09-1.17l-.031-1.537a1.086 1.086 0 0 0-1.135-1.063l-3.397.153a140 140 0 0 1-.059-1.12 1.11 1.11 0 0 0-1.155-1.064m50.502.33a.97.97 0 0 0-.919.828l-.432 2.959c-.647.23-2.079.645-2.624 1.034-2.702 1.458-3.255 2.481-4.263 4.253a22.5 22.5 0 0 1-.178-2.924 52 52 0 0 1-.057-1.73.876.876 0 0 0-.93-.874l-1.319.07a.985.985 0 0 0-.924.974q.015 2.75.274 5.467a47 47 0 0 0 .784 5.39c.102.5.58.756 1.053.566.525-.212 1.048-.43 1.464-.606.47-.199.804-.781.887-1.282.1-.602.35-1.536.942-2.9.427-.983.967-1.525 1.472-2.012.96-.926 1.953-1.302 2.902-1.66l-.683 4.895a12.5 12.5 0 0 1-1.666-.872c-.432-.27-.835-.113-.925.39l-.284 1.59c-.09.503.178 1.145.623 1.395a11 11 0 0 0 1.8.806l-.524 3.785a.885.885 0 0 0 .793 1.003l2 .191a.96.96 0 0 0 1.042-.827l.437-3.264c.086.026.174.03.261.035a7.6 7.6 0 0 0 2.71-.303 5.9 5.9 0 0 0 2.37-1.371 5.6 5.6 0 0 0 1.496-2.314 9.7 9.7 0 0 0 .53-2.712 6.8 6.8 0 0 0-.521-3.16c-.43-1.03-1.09-1.851-2.024-2.468a6.4 6.4 0 0 0-3.014-1.07l.287-2.09a.887.887 0 0 0-.793-1.003l-1.913-.185a1 1 0 0 0-.134-.004m-27.477 1.241a.47.47 0 0 0-.392.258l-1.884 3.78c-1.35-.059-3.557.341-4.46.52a.47.47 0 0 0-.367.494l.245 2.737c.02.227.218.373.44.327a41 41 0 0 1 2.301-.42l-3.76 7.518a.362.362 0 0 0 .205.505l2.98 1.032a.48.48 0 0 0 .584-.23l4.742-8.96c.258.05.512.12.74.209.758.346 1.187.897 1.308 1.656.1.755.05 1.48-.176 2.194-.226.715-.535 1.39-.882 2.037-.543 1.013-.693 1.431-1.176 2.168a.43.43 0 0 0 .105.58l2.313 1.68a.5.5 0 0 0 .627-.047c1.176-1.2 2.124-2.594 2.859-4.163a10 10 0 0 0 .719-2.58c.13-.911.08-1.812-.102-2.716a5.4 5.4 0 0 0-1.258-2.382 4.94 4.94 0 0 0-2.269-1.417c-.4-.122-.804-.221-1.19-.296l1.477-2.768a.355.355 0 0 0-.195-.502l-3.353-1.188a.5.5 0 0 0-.181-.026m109.764-1.747a3.23 3.23 0 0 0-2.08.8c-.553.48-.65.982-.671 1.707-.007.228.014.774.07.983l-12.946-.283a1.227 1.227 0 0 0-1.253 1.198l-.02.859a1.216 1.216 0 0 0 1.195 1.244l10.027.16a39 39 0 0 1-1.892 6.265 31.5 31.5 0 0 1-2.36 4.719c-.352.578-.137 1.212.503 1.43l1.415.484c.64.219 1.426-.083 1.742-.681a59 59 0 0 0 1.736-3.558 51 51 0 0 0 1.89-4.835 35 35 0 0 0 1.255-5.06l.039-.48c.392.157.694.212 1.191.227q1.056.032 1.887-.689c.533-.48.82-1.074.864-1.819a2.52 2.52 0 0 0-.752-1.847 2.8 2.8 0 0 0-1.84-.824m-123.183 2.687a.88.88 0 0 0-.532.18l-1.373 1.05a.725.725 0 0 0-.11 1.048l2.896 3.389a.786.786 0 0 0 1.093.1l1.716-1.393a.687.687 0 0 0 .052-1.021l-3.122-3.098a.88.88 0 0 0-.62-.255m57.254-.803a1.6 1.6 0 0 0-1.32.61l-4.448 5.673a1.077 1.077 0 0 0 .338 1.614l.774.415a1.61 1.61 0 0 0 1.973-.355l2.584-2.939 5.855 1.41-9.17 8.89a1.2 1.2 0 0 0 .03 1.75l.983.889a1.373 1.373 0 0 0 1.872-.03l10.665-10.26c.51-.49.742-1.43.51-2.099l-.08-.232c-.234-.667-.998-1.326-1.689-1.477l-6.915-1.515.107-.124a.984.984 0 0 0-.324-1.527l-1.12-.538a1.6 1.6 0 0 0-.625-.155m-36.142.915a1.15 1.15 0 0 0-.882.401l-1.085 1.266a1.19 1.19 0 0 0 .087 1.626c1.98 1.851 3.074 2.807 4.43 4.307.416.459 1.054.448 1.442-.038l1.336-1.678a1.245 1.245 0 0 0-.117-1.652c-1.637-1.544-2.431-2.283-4.49-3.974a1.14 1.14 0 0 0-.72-.258m45.98-.547a.623.623 0 0 0-.637.624l.005 2.45a.69.69 0 0 0 .637.685l.944.072a.576.576 0 0 0 .619-.59l-.068-2.572a.67.67 0 0 0-.655-.65zm3.065.045a.634.634 0 0 0-.647.635l.005 2.426a.7.7 0 0 0 .648.698l.922.07a.586.586 0 0 0 .63-.6l-.068-2.549a.68.68 0 0 0-.667-.663zm52.99-.473a.87.87 0 0 1 .815.834.87.87 0 0 1-.277.571.8.8 0 0 1-.587.21.83.83 0 0 1-.583-.246.74.74 0 0 1-.23-.587.74.74 0 0 1 .265-.551q.255-.226.598-.23m-43.673 2.182a1.187 1.187 0 0 0-1.117 1.128l-.591 12.298a2.8 2.8 0 0 0 .797 2.087c.337.343 1.131.453 1.753.196a17.2 17.2 0 0 0 4.956-3.156 49 49 0 0 0 4.239-4.4 1.24 1.24 0 0 0-.148-1.732l-1.25-1.072c-.51-.438-1.21-.327-1.597.223a19.6 19.6 0 0 1-2.392 2.81c-.414.42-.848.838-1.282 1.213a7.5 7.5 0 0 1-1.402.989l.53-9.184a1.24 1.24 0 0 0-1.146-1.309l-1.192-.09a1 1 0 0 0-.158-.001m-36.476 3.09c1.668.39 2.537 1.419 2.583 3.13a8.4 8.4 0 0 1-.206 1.48 3 3 0 0 1-.658 1.326 2.5 2.5 0 0 1-1.2.795c-.49.15-.976.214-1.455.168l.446-3.286zm30.83.352a1.25 1.25 0 0 0-1.227.903c-.691 2.39-1.293 4.97-2.239 7.162-.284.66.006 1.3.708 1.458l.99.222c.701.157 1.566-.22 1.846-.881.76-1.794 1.564-4.575 2.184-6.81a1.38 1.38 0 0 0-.89-1.662l-.986-.326a1.3 1.3 0 0 0-.385-.066m19.89 1.738a1.666 1.666 0 0 0-1.692 1.562l-.051.84a1.533 1.533 0 0 0 1.494 1.627l12.22.282a1.665 1.665 0 0 0 1.699-1.552l.062-.928a1.517 1.517 0 0 0-1.487-1.617zM503.264 81.95c-.002.613-.026 1.16-.05 1.62-.023.48-.068.94-.114 1.4-.067.48-.2.94-.42 1.377s-.571.72-1.053.806c-.394.087-.679-.024-.875-.287a1.38 1.38 0 0 1-.325-.899 5.3 5.3 0 0 1 .025-1.006 3.33 3.33 0 0 1 .97-1.857 5.05 5.05 0 0 1 1.841-1.154z" fill="url(#m)" transform="translate(-439.557 -61.383)"/></svg>