<svg xmlns="http://www.w3.org/2000/svg" xml:space="preserve" width="600" height="200" viewBox="0 0 297 210"><path d="M-140.23 157.901h-11.465l25.586-60.276h12.013l26.134 60.276h-12.013l-6.87-16.439h-20.023l3.836-9.694h12.14l-9.484-22.635zm88.24-32.709q-3.457-2.276-8.684-2.276-10.41 0-10.41 11.676 0 13.868 10.832 13.868 4.384 0 8.262-1.223zm11.17 30.054Q-50.98 157.9-60.674 157.9q-21.455 0-21.455-23.014 0-21.244 20.992-21.244 4.468 0 9.147 2.107V97.625h11.17zm12.156 2.655v-44.258h8.64l1.308 6.407q5.943-6.407 14.289-6.407t11.423 6.07q6.786-6.07 14.205-6.07 15.258 0 15.258 16.818v27.44H25.29V130.04q0-7.377-6.66-7.377-4.973 0-9.568 4.468v30.77h-11.17v-27.735q0-7.503-6.154-7.503-4.89 0-9.231 4.468v30.77zm88.45-60.276v8.852h-11.17v-8.852zm0 16.018V157.9h-11.17v-44.258zM71.942 157.9v-44.258h8.641l1.391 6.491q6.365-6.491 14.5-6.491 15.723 0 15.723 16.354v27.904h-11.17v-27.904q0-7.334-7.293-7.334-5.437 0-10.622 4.342V157.9zm63.581-60.276v8.852h-11.17v-8.852zm0 16.018V157.9h-11.17v-44.258zm12.156 42.15v-9.272q7.377 2.95 17.03 2.95 7.207 0 7.207-4.636 0-4.426-4.847-4.426h-8.009q-13.488 0-13.488-13.278 0-13.91 19.684-13.91 8.346 0 15.723 2.53v9.273q-7.377-2.951-16.018-2.951-9.062 0-9.062 4.637 0 4.425 5.269 4.425h7.165q14.753 0 14.753 13.278 0 13.91-18.799 13.91-9.231 0-16.608-2.53m44.192-49.316h8.261l1.686 7.166h11.128v8.852h-9.905v20.358q0 6.197 5.353 6.197h4.552v8.851H203q-11.128 0-11.128-11.928zm30.28 51.424v-44.258h8.642l1.39 5.648q5.818-5.648 12.31-5.648v9.02q-6.24 0-11.171 5.185V157.9zm28.175-13.783q0-13.193 19.22-13.193 4.51 0 9.021.843v-3.33q0-5.943-8.557-5.943-7.25 0-16.101 2.107v-8.852q8.851-2.107 16.101-2.107 19.727 0 19.727 14.584v29.674h-6.491l-3.962-3.962q-5.775 3.962-12.73 3.962-16.228 0-16.228-13.783m28.241-4.763q-4.215-.843-9.02-.843-8.051 0-8.051 5.48 0 5.9 6.744 5.9 5.564 0 10.327-3.456zm22.694-32.878h8.262l1.686 7.166h11.128v8.852h-9.906v20.358q0 6.197 5.353 6.197h4.553v8.851h-9.948q-11.128 0-11.128-11.928zm39.344 29.127q0 13.867 10.749 13.867 10.748 0 10.748-13.867 0-13.531-10.748-13.531-10.749 0-10.749 13.53m-11.17.168q0-22.256 21.919-22.256 21.918 0 21.918 22.256 0 22.214-21.918 22.214-21.835 0-21.919-22.214m53.886 22.13v-44.26h8.64l1.392 5.65q5.817-5.65 12.308-5.65v9.021q-6.238 0-11.17 5.185v30.054zm30.281-2.108v-9.273q7.377 2.95 17.03 2.95 7.207 0 7.207-4.636 0-4.426-4.847-4.426h-8.009q-13.488 0-13.488-13.278 0-13.91 19.684-13.91 8.346 0 15.723 2.53v9.273q-7.377-2.95-16.018-2.95-9.062 0-9.062 4.636 0 4.426 5.269 4.426h7.165q14.753 0 14.753 13.277 0 13.91-18.8 13.91-9.23 0-16.607-2.529" aria-label="Administrators" style="font-weight:700;font-size:14.1111px;line-height:125%;font-family:Sansation;-inkscape-font-specification:&quot;Sansation Bold&quot;;letter-spacing:.264583px;fill:#000;fill-opacity:1;stroke:none;stroke-width:3.05878;stroke-linejoin:round;stroke-dasharray:none;stroke-opacity:1;paint-order:stroke fill markers"/><path d="m-19.84 57.289-2.434.985c.863 1.171 1.85 2.958 2.498 4.252l2.433-1.048c-.555-1.078-1.695-3.05-2.496-4.19m91.25.338a3.71 3.71 0 0 0-3.698 3.699l.06.584c-.647.093-1.325.124-1.756.124H51.75c-1.017 0-2.774-.124-3.667-.247v4.344c.77-.062 2.25-.121 3.667-.121h14.329c-.401 2.65-1.571 6.13-3.605 8.688-2.496 3.143-5.978 5.825-12.08 7.242l3.359 3.697c5.485-1.787 9.582-4.838 12.386-8.536 2.588-3.42 3.915-8.197 4.624-11.216l.247-.923.4.029c2.003 0 3.665-1.665 3.665-3.668 0-2.033-1.662-3.696-3.665-3.696zm-94.885 1.048-2.435.986c.77 1.11 1.633 2.742 2.25 3.974l-.216-.123c-.678.216-1.726.37-2.682.37h-6.162l.093-.155c.34-.678 1.14-2.062 1.88-3.14l-4.53-1.48c-.278 1.048-.924 2.465-1.387 3.204-1.51 2.65-4.22 6.656-9.613 9.922l3.45 2.59c3.051-2.065 5.732-4.777 7.797-7.458h8.658c-.493 2.28-2.28 6.008-4.375 8.381-2.712 3.082-6.132 5.762-12.418 7.642l3.636 3.266c5.793-2.311 9.49-5.114 12.418-8.72 2.804-3.42 4.56-7.52 5.392-10.262.247-.77.678-1.632 1.017-2.218l-2.619-1.601 2.28-.957c-.554-1.14-1.664-3.111-2.434-4.22zm-108.997.215c.093.555.216 2.064.216 2.711l-.032 2.498-1.786.06c-1.109 0-2.467-.03-4.254-.215l.063 3.699c1.048.123 2.25.152 4.315.152l1.633-.06v2.587l.029 2.19c-3.79 1.632-6.871 4.436-6.871 7.116 0 3.267 4.222 5.854 7.211 5.854 2.034 0 3.388-1.016 3.388-4.837l-.124-5.885c1.88-.554 3.883-.862 5.794-.862 2.68 0 4.531 1.231 4.531 3.327 0 2.25-1.973 3.482-4.469 3.945-1.078.185-2.404.215-3.79.215l1.418 3.974c1.232-.092 2.62-.185 4.037-.493 4.9-1.232 6.81-3.974 6.81-7.61 0-4.252-3.73-6.718-8.475-6.718-1.694 0-3.82.278-5.916.802V70.2l.031-2.774c2.003-.247 4.13-.554 5.886-.955l-.092-3.821c-1.603.462-3.637.864-5.67 1.11l.092-2.188c.061-.801.185-2.127.277-2.682zm72.397.155-4.036.092c.185.493.37 1.418.524 2.157.123.586.245 1.293.338 2.064-3.544.862-6.687 3.144-8.69 6.626-.062-2.034.433-4.899.833-6.501.124-.524.338-1.203.554-1.85l-4.19-.339c.03.462 0 1.172-.062 1.82-.216 1.817-.74 5.76-.74 9.088 0 3.05.401 6.379 1.049 8.567l3.512-.462c-.185-.863-.34-2.496-.34-3.02-.03-.523 0-.955.123-1.51.617-3.297 3.391-7.858 8.26-9.122.062 1.325.123 2.713.123 4.068 0 1.942-.155 4.005-.678 5.978-1.572-.74-2.65-2.095-3.544-3.82l-2.218 2.773c.955 2.003 2.557 3.482 4.406 4.407-.893 1.602-2.187 2.987-4.005 4.035l3.696 2.188c1.941-1.448 3.298-3.234 4.223-5.206l.585.029c6.594 0 9.953-4.006 9.953-9.306 0-4.869-3.545-8.595-9.122-8.811-.185-1.633-.4-2.99-.554-3.945zm-40.544.063c.032 1.941-.216 4.19-.647 6.5a65 65 0 0 1-3.975.277c-1.14.03-2.188.092-3.297 0l.37 4.191c.924-.154 2.558-.37 3.42-.524l2.65-.307c-1.109 4.221-3.236 10.444-6.225 14.48l4.008 1.605c2.835-4.53 5.115-11.834 6.286-16.517.863-.062 1.633-.124 2.126-.124 1.941 0 2.988.34 2.988 2.805 0 3.05-.4 6.779-1.232 8.535-.493 1.017-1.295 1.325-2.312 1.325-.832 0-2.586-.309-3.788-.648l.676 4.068c1.048.216 2.497.433 3.7.433 2.31 0 4.036-.68 5.053-2.836 1.325-2.681 1.754-7.673 1.754-11.31 0-4.436-2.31-5.884-5.576-5.884-.647 0-1.57.061-2.587.123l.645-3.175c.154-.77.37-1.755.556-2.556zm172.03.43c.954 0 1.756.802 1.756 1.788 0 .955-.802 1.756-1.757 1.756-.986 0-1.79-.801-1.79-1.756 0-.986.804-1.788 1.79-1.788m-71.999.8c.03.092.247 1.265.247 2.652v17.965c0 .832-.124 1.693-.247 2.278l2.556 2.126c.309-.246.68-.553 1.358-.923 3.45-1.756 7.888-5.084 10.446-8.412l-2.372-3.39c-2.065 2.99-5.117 5.423-7.613 6.502V63.019c0-1.386.184-2.589.215-2.681zM-9 60.37c.185.77.278 1.602.278 2.834 0 3.729-.03 9.553-.894 12.203-.863 2.62-2.526 5.453-5.238 7.364l3.76 2.495c2.618-2.341 4.559-5.36 5.483-8.842.832-3.112.926-9.584.926-13.251 0-1.263.184-2.649.215-2.803zm-110.438 1.849-1.696 2.988c1.91.925 5.948 3.235 7.427 4.499l1.85-3.143c-1.633-1.171-5.208-3.204-7.58-4.344m34.01.246-3.665 1.57c2.188 2.712 4.376 8.29 5.177 11.71l3.912-1.819c-.925-2.927-3.513-8.811-5.424-11.461m26.216 3.914c3.451.37 4.93 2.741 4.93 5.484 0 3.081-1.91 5.175-5.392 5.453.463-2.157.617-4.374.617-6.562a68 68 0 0 0-.155-4.375m77.35 3.264v4.839c1.14-.062 3.207-.155 4.963-.155h16.546c1.295 0 2.865.124 3.605.155v-4.84c-.801.063-2.156.187-3.605.187H23.101c-1.602 0-3.853-.094-4.962-.186m-150.363 6.503.092 3.822c0 1.048-.431 1.293-.986 1.293-.801 0-2.25-.833-2.25-1.788 0-1.078 1.264-2.34 3.144-3.327" style="font-weight:700;font-size:15.667px;line-height:125%;font-family:Sansation;-inkscape-font-specification:&quot;Sansation Bold&quot;;letter-spacing:.293755px;stroke-width:4.36735;stroke-linejoin:round;paint-order:stroke fill markers"/><path d="M455.977 57.744" style="fill:#ece7e3;fill-opacity:1;stroke-width:.0852934"/></svg>