<svg xmlns="http://www.w3.org/2000/svg" width="600" height="200"><path fill="currentColor" d="M25.019 150.382H14.1l24.368-57.406h11.44l24.89 57.406h-11.44l-6.544-15.656h-19.07l3.654-9.233H52.96l-9.032-21.557Zm84.038-31.152q-3.292-2.167-8.27-2.167-9.915 0-9.915 11.12 0 13.207 10.317 13.207 4.175 0 7.868-1.164Zm10.638 28.623q-9.676 2.528-18.908 2.528-20.434 0-20.434-21.918 0-20.233 19.993-20.233 4.255 0 8.711 2.007v-17.26h10.638Zm11.577 2.529v-42.15h8.229l1.246 6.101q5.66-6.102 13.608-6.102t10.88 5.781q6.462-5.78 13.528-5.78 14.531 0 14.531 16.017v26.133h-10.637v-26.534q0-7.026-6.343-7.026-4.736 0-9.112 4.255v29.305h-10.638v-26.414q0-7.146-5.861-7.146-4.657 0-8.792 4.255v29.305Zm84.238-57.406v8.43h-10.638v-8.43Zm0 15.255v42.15h-10.638v-42.15Zm11.578 42.15v-42.15h8.23l1.324 6.181q6.062-6.182 13.81-6.182 14.974 0 14.974 15.576v26.575h-10.638v-26.575q0-6.985-6.946-6.985-5.178 0-10.116 4.135v29.425Zm60.553-57.406v8.43h-10.638v-8.43Zm0 15.255v42.151h-10.638v-42.15Zm11.577 40.143v-8.83q7.026 2.81 16.22 2.81 6.863 0 6.863-4.416 0-4.215-4.616-4.215h-7.628q-12.846 0-12.846-12.646 0-13.247 18.747-13.247 7.949 0 14.974 2.41v8.83q-7.025-2.81-15.255-2.81-8.63 0-8.63 4.416 0 4.215 5.018 4.215h6.824q14.05 0 14.05 12.645 0 13.248-17.904 13.248-8.791 0-15.817-2.41m42.088-46.967h7.867l1.606 6.824h10.598v8.431h-9.433v19.389q0 5.901 5.098 5.901h4.335v8.43h-9.472q-10.598 0-10.598-11.36Zm28.838 48.975v-42.15h8.23l1.324 5.379q5.541-5.38 11.724-5.38v8.591q-5.943 0-10.64 4.938v28.622Zm26.833-13.127q0-12.564 18.305-12.564 4.295 0 8.591.802v-3.171q0-5.66-8.15-5.66-6.904 0-15.333 2.007v-8.43q8.43-2.008 15.334-2.008 18.787 0 18.787 13.89v28.261h-6.181l-3.774-3.773q-5.5 3.773-12.124 3.773-15.455 0-15.455-13.127m26.896-4.536q-4.014-.803-8.59-.803-7.668 0-7.668 5.22 0 5.618 6.423 5.618 5.3 0 9.835-3.291Zm21.614-31.312h7.868l1.606 6.824h10.598v8.431h-9.434v19.389q0 5.901 5.098 5.901h4.336v8.43h-9.474q-10.598 0-10.598-11.36Zm37.47 27.74q0 13.206 10.237 13.206t10.236-13.206q0-12.887-10.236-12.887t-10.237 12.886m-10.638.16q0-21.196 20.875-21.196t20.875 21.196q0 21.156-20.875 21.156-20.795 0-20.875-21.156m51.32 21.076v-42.152h8.229l1.325 5.38q5.54-5.38 11.722-5.38v8.591q-5.94 0-10.638 4.938v28.623Zm28.84-2.008v-8.831q7.025 2.81 16.218 2.81 6.864 0 6.864-4.416 0-4.215-4.616-4.215h-7.628q-12.846 0-12.846-12.646 0-13.247 18.747-13.247 7.949 0 14.974 2.41v8.83q-7.025-2.809-15.255-2.809-8.63 0-8.63 4.415 0 4.216 5.018 4.216h6.824q14.05 0 14.05 12.644 0 13.248-17.905 13.248-8.79 0-15.816-2.409M139.676 54.561l-2.318.938c.822 1.115 1.762 2.817 2.38 4.05l2.316-.999c-.528-1.026-1.614-2.904-2.377-3.99m86.905.322a3.533 3.533 0 0 0-3.522 3.523l.057.556a12.5 12.5 0 0 1-1.672.118h-13.588a33 33 0 0 1-3.492-.235v4.137a50 50 0 0 1 3.492-.115h13.647c-.382 2.524-1.496 5.838-3.434 8.274-2.377 2.993-5.693 5.548-11.504 6.897l3.199 3.521c5.224-1.702 9.125-4.608 11.796-8.13 2.465-3.257 3.729-7.806 4.404-10.681l.235-.88.381.028c1.908 0 3.49-1.585 3.49-3.493 0-1.936-1.582-3.52-3.49-3.52Zm-90.367.998-2.319.939c.734 1.057 1.555 2.611 2.143 3.785l-.206-.117c-.645.205-1.643.352-2.554.352h-5.869l.089-.148a31 31 0 0 1 1.79-2.99l-4.314-1.41c-.265.999-.88 2.348-1.32 3.052-1.439 2.524-4.02 6.339-9.156 9.45l3.286 2.466c2.905-1.967 5.459-4.55 7.425-7.103h8.246c-.47 2.172-2.171 5.722-4.166 7.982-2.583 2.935-5.84 5.488-11.827 7.278l3.463 3.11c5.517-2.2 9.038-4.87 11.826-8.304 2.67-3.257 4.343-7.162 5.136-9.773.235-.734.645-1.555.968-2.113l-2.494-1.525 2.171-.911c-.527-1.086-1.584-2.963-2.318-4.019Zm-103.806.205c.088.528.205 1.965.205 2.582l-.03 2.379-1.701.057c-1.056 0-2.35-.029-4.052-.205l.06 3.523c.999.117 2.143.145 4.11.145l1.555-.057v2.463l.028 2.086c-3.61 1.554-6.544 4.225-6.544 6.777 0 3.112 4.021 5.575 6.868 5.575 1.937 0 3.226-.967 3.226-4.606l-.118-5.605c1.79-.528 3.698-.82 5.518-.82 2.553 0 4.316 1.171 4.316 3.168 0 2.143-1.88 3.316-4.257 3.757-1.026.176-2.29.205-3.61.205l1.351 3.784c1.174-.087 2.496-.176 3.845-.47 4.667-1.173 6.486-3.784 6.486-7.247 0-4.05-3.553-6.398-8.072-6.398-1.613 0-3.638.265-5.634.764v-1.085l.03-2.642c1.907-.235 3.933-.527 5.605-.91l-.087-3.638c-1.527.44-3.464.823-5.4 1.057l.087-2.084c.058-.763.176-2.026.264-2.554Zm68.95.147-3.845.088c.176.47.353 1.35.5 2.054.116.558.233 1.232.321 1.966-3.375.821-6.368 2.994-8.276 6.31-.059-1.937.412-4.665.793-6.191q.23-.892.528-1.762l-3.99-.323c.028.44 0 1.116-.06 1.734-.205 1.73-.704 5.485-.704 8.655 0 2.905.382 6.075.999 8.159l3.345-.44c-.177-.822-.324-2.377-.324-2.876-.029-.498 0-.91.117-1.438.587-3.14 3.23-7.484 7.867-8.688.059 1.262.117 2.584.117 3.874 0 1.85-.148 3.815-.646 5.694-1.497-.705-2.524-1.996-3.375-3.638l-2.113 2.64c.91 1.908 2.436 3.317 4.197 4.198-.851 1.525-2.083 2.844-3.815 3.842l3.52 2.084c1.849-1.379 3.141-3.08 4.022-4.958l.557.028c6.28 0 9.48-3.815 9.48-8.863 0-4.637-3.377-8.186-8.688-8.391a78 78 0 0 0-.528-3.758m-38.613.06c.03 1.849-.206 3.99-.616 6.19a62 62 0 0 1-3.786.265c-1.086.028-2.084.087-3.14 0l.352 3.991c.88-.147 2.436-.352 3.257-.499l2.524-.292c-1.056 4.02-3.082 9.946-5.928 13.79l3.817 1.529c2.7-4.315 4.871-11.27 5.986-15.73.822-.06 1.556-.119 2.025-.119 1.849 0 2.846.324 2.846 2.672 0 2.904-.381 6.456-1.173 8.128-.47.969-1.234 1.262-2.202 1.262-.793 0-2.463-.294-3.608-.617l.644 3.874c.998.206 2.378.413 3.524.413 2.2 0 3.843-.648 4.812-2.701 1.262-2.554 1.67-7.308 1.67-10.772 0-4.225-2.2-5.604-5.31-5.604-.616 0-1.495.058-2.464.118l.615-3.024c.146-.734.352-1.672.529-2.435Zm163.838.41c.908 0 1.672.764 1.672 1.703 0 .91-.764 1.672-1.673 1.672-.94 0-1.705-.763-1.705-1.672 0-.94.766-1.703 1.705-1.703m-68.57.762c.028.087.235 1.205.235 2.526v17.109a11 11 0 0 1-.236 2.17l2.435 2.024c.294-.234.647-.526 1.293-.879 3.286-1.672 7.512-4.842 9.949-8.011l-2.26-3.229c-1.966 2.848-4.873 5.165-7.25 6.193V60.018c0-1.32.175-2.466.205-2.553Zm-8.012.031c.176.734.265 1.526.265 2.7 0 3.55-.029 9.097-.852 11.621-.822 2.495-2.405 5.194-4.988 7.014l3.58 2.376c2.494-2.23 4.343-5.105 5.223-8.421.792-2.964.882-9.128.882-12.62 0-1.203.175-2.523.204-2.67ZM44.82 59.256l-1.614 2.846c1.819.88 5.664 3.08 7.073 4.285l1.762-2.994c-1.555-1.115-4.96-3.051-7.22-4.137m32.391.234-3.49 1.496c2.084 2.583 4.168 7.895 4.93 11.152l3.726-1.732c-.88-2.788-3.346-8.392-5.166-10.916m24.968 3.728c3.287.352 4.695 2.61 4.695 5.223 0 2.934-1.819 4.929-5.135 5.193.441-2.054.588-4.165.588-6.25a65 65 0 0 0-.148-4.166m73.667 3.109v4.608a95 95 0 0 1 4.726-.147h15.758c1.234 0 2.729.118 3.434.147v-4.61c-.763.06-2.054.179-3.434.179h-15.759c-1.525 0-3.67-.09-4.725-.177M32.644 72.52l.087 3.64c0 .998-.41 1.231-.939 1.231-.762 0-2.142-.793-2.142-1.702 0-1.027 1.203-2.229 2.994-3.169"/></svg>