<svg xmlns="http://www.w3.org/2000/svg" width="600" height="200"><defs><linearGradient id="a" x1="54.733" x2="91.168" y1="185.903" y2="253.258" gradientTransform="translate(.821 25.524)scale(.79863)" gradientUnits="userSpaceOnUse"><stop offset=".06" stop-color="#eaad64"/><stop offset=".702" stop-color="#e6bd7e"/><stop offset="1" stop-color="#d77c37"/></linearGradient><linearGradient id="b" x1="23.302" x2="124.096" y1="213.03" y2="191.145" gradientTransform="translate(1.01 25.59)scale(.79863)" gradientUnits="userSpaceOnUse"><stop offset="0" stop-color="#eaad64"/><stop offset=".29" stop-color="#ddc187"/><stop offset="1" stop-color="#f49449"/></linearGradient><linearGradient id="c" x1="79.089" x2="68.912" y1="253.377" y2="173.613" gradientTransform="translate(8.079 45.18)scale(.69926)" gradientUnits="userSpaceOnUse"><stop offset="0" stop-color="#eaad64"/><stop offset=".403" stop-color="#896a24"/><stop offset="1" stop-color="#e1a75f"/></linearGradient><linearGradient id="d" x1="71.29" x2="71.29" y1="198.267" y2="180.078" gradientUnits="userSpaceOnUse"><stop offset="0" stop-color="#710000"/><stop offset=".179" stop-color="#8f0000"/><stop offset="1" stop-color="#ad0000"/></linearGradient><linearGradient id="f" x1="470.648" x2="561.136" y1="107.27" y2="107.27" gradientTransform="rotate(-10.76 -378.05 4164.266)scale(1.74745)" gradientUnits="userSpaceOnUse"><stop offset="0" stop-color="#6a9ce0"/><stop offset=".383" stop-color="#4f3ce2"/><stop offset=".709" stop-color="#a22ad2"/><stop offset="1" stop-color="#dc4d6c"/></linearGradient><linearGradient id="j" x1="1298.871" x2="1298.871" y1="196.335" y2="178.412" gradientTransform="translate(0 2.048)" gradientUnits="userSpaceOnUse"><stop offset="0" stop-color="#303030"/><stop offset=".147" stop-color="#313131"/><stop offset="1" stop-color="#3a3a3a"/></linearGradient><filter id="i" width="136.135" height="30.437" x="1296.461" y="170.538" filterUnits="userSpaceOnUse"><feGaussianBlur color-interpolation-filters="sRGB" in="SourceGraphic" result="result1" stdDeviation="1.1554472 1.1554472"/></filter><filter id="k" width="25.058" height="39.274" x="1553.388" y="156.52" filterUnits="userSpaceOnUse"><feGaussianBlur color-interpolation-filters="sRGB" in="SourceGraphic" result="result1" stdDeviation="0.42637807 0.42637807"/></filter><radialGradient id="e" cx="68.8" cy="187.474" r="2.29" fx="68.8" fy="187.474" gradientTransform="matrix(1 0 0 .96029 0 7.594)" gradientUnits="userSpaceOnUse"><stop offset="0" stop-color="#fff" stop-opacity=".187"/><stop offset="1" stop-color="#fff" stop-opacity="0"/></radialGradient></defs><path fill="#3b2207" d="M492.627 145.629c-5.857.963-9.437 1.919-13.024 2.965-3.677 1.039-8.669 2.615-12.27 3.842l1.065 6.318c1.8-.317 8.375-1.726 11.916-2.184-.076 2.18-.634 4.688-1.232 6.555a576 576 0 0 0-14.21-.54l-.759 6.907c4.155.455 8.428.555 12.91.899-.556 1.915-3.417 9.529-4.535 11.037l7.065 3.5c2.808-5.158 3.838-8.494 5.49-14.014 2.817.08 7.133.227 11.49.424l.53-7.518c-2.31-.177-6.938-.395-10.1-.728l1.273-8.281 5.934-1.368Zm68.793 5.322c-2.04 4.281-4.809 9.63-6.697 14.08-1.893 4.405-3.962 8.872-6.002 13.153.497 2.554 1.345 4.94 2.583 7.111 3.733-1.102 7.798-2.052 11.53-3.154 3.555-1.041 7.759-1.957 12.549-3.471.424 1.193 1.349 3.437 2.295 5.906l7.539-3.441c-1.944-5.527-4.325-11.882-6.4-17.352l-7.17 2.953 1.29 4.856c-4.85 1.337-10.905 2.961-13.896 3.68 1.531-3.325 3.502-7.873 5.006-11.514 1.38-3.494 2.927-6.639 4.967-10.92Zm-38.004 10.754c-5.813-.135-10.473-.025-16.178.361l-.687 7.602c5.362.065 13.152-.252 18.701-.268 5.591.032 10.442.358 16.172.352l.699-7.83c-5.982-.372-12.942-.039-18.707-.217" paint-order="stroke"/><path fill="url(#a)" d="M16.088 183.103c.118-4.558 81.988-27.891 83.147 1.215.453 11.35-8.465 42.2-40.986 42.126-32.522-.073-42.531-29.13-42.161-43.34" paint-order="stroke" transform="translate(8.4 -171.297)scale(1.10703)"/><path fill="url(#b)" d="M16.276 183.17c-.462-4.537 2.019-7.948 6.142-10.727 8.731-5.886 24.852-8.295 37.017-8.08 11.732.208 25.241 2.412 33.165 8.074 4.17 2.98 7.059 7.377 6.824 11.947-.182 3.532-9.687 17.4-42.208 17.327s-40.042-9.72-40.94-18.542" paint-order="stroke" transform="translate(8.4 -171.297)scale(1.10703)"/><path fill="url(#c)" d="M18.065 183.258c-.404-3.972 2.508-8.2 6.117-10.634 7.645-5.153 24.244-6.708 34.894-6.52 10.273.183 24.723 2.27 31.722 7.142 5.519 3.841 6.403 6.44 6.197 10.441-.908 17.664-76.824 20.26-78.93-.43" paint-order="stroke" transform="translate(8.4 -171.297)scale(1.10703)"/><path fill="#d5ccc5" d="M115.649 31.946c0 9.204-19.616 18.067-43.573 18.067-9.564 0-18.461-.651-25.612-2.823-10.76-3.27-17.667-9.15-17.765-14.779-.025-1.366 1.053-1.365 1.83-1.885.28-.275-.236-1.445.682-1.4 1.406-.519 2.237-2.573 2.778-3.49.379-.284.612-.784 1.108-.846.536-.066 1.273-.99 1.8-1.293.945-.541 1.132-1.47 2.226-1.966.675-.305 1.383.354 2.145.11.68-.218 1.37-1.552 2.101-1.583 2.38-.103 1.605.799 2.914-.187 1.35-1.017 5.435-2.56 7.131-2.445 1.897.13 3.893-.752 5.893-1.005 1.657-.21 2.783-.784 4.499-1.01 1.357-.179 2.413.726 3.817.575 1.165-.124 2.668-1.32 3.868-1.32.876 0 2.114 1.193 3.287 1.334.98.118 1.908-.817 2.623-.783 1.02.048 2.149.882 3.117.788 1.024-.1 1.886-1.124 2.909-1.012 1.026.112 1.368.919 2.387 1.231.387.119.97.084 1.524.267.576.19 1.04-.23 1.53-.2.553.033.827.35 1.249.431.539.103 1.55.208 2.685.633 1.254.47 2.642 1.262 3.21 1.351 1.678.264.723-.894 2.238-.432.956.294.79 1.096 1.616 1.583.764.45 2.529.578 3.297.988.746.397 1.405.225 2.349.811 1.184.734 2.109 1.8 3.598 2.784.832.55 2.27.993 2.658 1.26 1.451.991 1.505 1.86 2.225 2.482 1.263 1.094 1.657 1.707 1.657 3.764" paint-order="stroke"/><path fill="#dfded6" d="M108.78 27.202c.565.9.393 1.795-.3 1.977-.692.181-1.68-.41-2.207-1.321-.527-.91-.392-1.796.3-1.977.394-.103.5.005 1.022.26.42.205.583.103 1.185 1.061Z" paint-order="stroke"/><path fill="#e1e0db" d="M68.096 36.374c.565.9.393 1.795-.3 1.976-.692.181-1.68-.41-2.207-1.32s-.393-1.796.3-1.978c.393-.102.499.005 1.021.26.421.205.584.103 1.185 1.062Z" paint-order="stroke"/><path fill="#ccc6ab" d="M40.007 29.108c.822.675.942 1.579.343 1.97-.6.39-1.724.142-2.513-.554s-.942-1.578-.342-1.97c.341-.222.475-.153 1.052-.077.464.061.585-.088 1.46.631" paint-order="stroke"/><path fill="#dfddd2" d="M85.582 27.243c.566.9.393 1.795-.3 1.977-.691.181-1.68-.41-2.207-1.321-.527-.91-.392-1.796.3-1.977.394-.103.5.005 1.022.26.42.205.584.103 1.185 1.061" paint-order="stroke"/><path fill="#d4dddc" d="M88.655 21.594c-.98.722-2.262.991-2.796.644s-.148-1.198.862-1.9c1.01-.703 2.262-.992 2.796-.644.304.198.203.307.077.732-.101.343.105.4-.94 1.168" paint-order="stroke"/><path fill="#dfddd2" d="M102.375 34.068c-.618.884-1.724 1.396-2.387 1.172-.663-.225-.67-1.115-.015-1.987s1.724-1.397 2.387-1.172c.378.128.328.253.396.684.055.348.277.361-.38 1.303M56.663 21.565c.566.9.393 1.795-.299 1.977-.692.18-1.68-.41-2.208-1.321-.526-.91-.392-1.796.3-1.977.395-.103.5.005 1.022.26.421.205.584.103 1.185 1.061" paint-order="stroke"/><path fill="#c4c3b4" d="M55.768 33.668c.565.9.393 1.795-.3 1.976-.692.182-1.68-.41-2.207-1.32s-.393-1.796.3-1.977c.394-.103.5.005 1.022.26.42.205.583.102 1.184 1.061Z" paint-order="stroke"/><path fill="#dad9d7" d="M86.93 33.518c1.323.405 2.098 1.142 1.77 1.59-.326.45-1.65.464-2.955.034s-2.097-1.143-1.77-1.591c.186-.256.372-.224 1.013-.275.517-.04.534-.19 1.942.242Z" paint-order="stroke"/><path fill="#dcdbd6" d="M98.169 20.503c1.38.303 2.274.977 2.024 1.447s-1.563.584-2.931.255c-1.369-.33-2.275-.977-2.025-1.447.143-.268.333-.251.962-.35.506-.079.498-.229 1.97.095" paint-order="stroke"/><path fill="#d6dbd9" d="M94.125 26.26c.565.9.392 1.796-.3 1.977s-1.68-.41-2.208-1.32c-.526-.911-.392-1.796.3-1.977.394-.103.5.004 1.022.26.421.204.584.102 1.185 1.06Z" paint-order="stroke"/><path fill="#bbb8ac" d="M68.707 43.296c1.377.455 1.86 1.302 1.163 1.828-.695.525-2.346.558-3.685.075s-1.86-1.302-1.164-1.827c.397-.299.608-.265 1.435-.332.667-.053.784-.227 2.251.256" paint-order="stroke"/><path fill="#c5bfa5" d="M76.879 41.145c.565.9.392 1.795-.3 1.977-.692.18-1.68-.41-2.208-1.322-.526-.91-.392-1.795.301-1.976.393-.103.499.005 1.022.26.42.204.583.102 1.185 1.06" paint-order="stroke"/><path fill="#c6c3ba" d="M56.357 43.16c-1.235-.407-1.712-1.237-1.134-1.785.578-.55 2.022-.64 3.227-.203 1.202.436 1.71 1.235 1.133 1.784-.329.313-.515.285-1.238.38-.58.078-.672.255-1.988-.177Z" paint-order="stroke"/><path fill="#bdbdb8" d="M43.14 37.742c.566.9.394 1.796-.298 1.977-.693.18-1.68-.41-2.208-1.321-.527-.912-.393-1.795.3-1.977.393-.103.499.005 1.022.26.42.205.583.102 1.185 1.061" paint-order="stroke"/><path fill="#bbb8ac" d="M99.002 27.127c.564.9.393 1.795-.3 1.976s-1.68-.41-2.207-1.32-.393-1.796.299-1.977c.394-.103.5.004 1.023.26.42.204.583.102 1.184 1.06Z" paint-order="stroke"/><path fill="#bbb8ac" d="M99.002 27.127c.564.9.393 1.795-.3 1.976s-1.68-.41-2.207-1.32-.393-1.796.299-1.977c.394-.103.5.004 1.023.26.42.204.583.102 1.184 1.06ZM47.809 24.48c.565.9.392 1.796-.3 1.977s-1.68-.41-2.208-1.321c-.527-.91-.392-1.796.3-1.977.394-.103.5.005 1.023.26.42.205.583.103 1.185 1.061M65.59 18.774c.565.9.393 1.795-.3 1.976-.692.181-1.68-.41-2.207-1.32-.527-.912-.393-1.796.299-1.977.394-.104.5.005 1.023.259.42.206.583.103 1.185 1.062m43.191 15.505c-1.027.274-1.832-.155-1.8-.87.031-.715.888-1.485 1.913-1.72 1.026-.234 1.832.155 1.8.87-.017.407-.15.476-.549.9-.32.342-.27.527-1.364.82M59.47 29.112c.566.9.392 1.795-.3 1.976s-1.68-.41-2.207-1.32-.393-1.796.3-1.978c.394-.103.499.005 1.022.26.421.205.584.103 1.185 1.062m28.863 13.6c.566 1.255.393 2.502-.3 2.754-.692.252-1.68-.572-2.207-1.84s-.393-2.5.3-2.753c.394-.144.499.006 1.022.362.421.285.584.142 1.185 1.478m10.34-4.782c1.249.47 1.968 1.45 1.642 2.108-.325.658-1.587.781-2.82.275-1.232-.507-1.966-1.45-1.642-2.109.186-.374.362-.344.975-.465.494-.097.513-.309 1.845.19" paint-order="stroke"/><path fill="url(#d)" d="M62.607 193.741c2.084 2.381 5.755 4.233 9.823 3.704s7.011-2.877 7.474-3.472.629-4.333.33-5.557c-.297-1.223-1.388-3.34-2.711-4.63s-2.547-2.712-4.465-2.877c-1.918-.166-5.16-.562-8.202 3.175-3.043 3.737-2.944 3.737-2.282 4.762.661 1.026-.33 2.547-.33 3.473s.363 1.422.363 1.422" paint-order="stroke" transform="translate(10.267 -141.637)scale(.8841)"/><path fill="url(#e)" d="M71.09 187.623c0 1.215-1.026 2.199-2.29 2.199s-2.29-.985-2.29-2.2 1.026-2.199 2.29-2.199 2.29.985 2.29 2.2" paint-order="stroke" transform="translate(10.267 -141.637)scale(.8841)"/><path fill="#002907" d="M428.855 68.564q-2.536 0-4.572 1.138a8.05 8.05 0 0 0-3.193 3.175q-1.138 2.036-1.138 4.631 0 2.615 1.156 4.672a8.2 8.2 0 0 0 3.216 3.154q2.036 1.116 4.53 1.118 2.537 0 4.552-1.118a7.96 7.96 0 0 0 3.175-3.154q1.157-2.036 1.157-4.672 0-2.554-1.116-4.59a8.15 8.15 0 0 0-3.136-3.195q-2.016-1.159-4.631-1.159m13.342.8q-.111-.004-.23.005-.934.063-1.549.763-.594.68-.533 1.616l.876 13.107q.06.916.74 1.53.703.611 1.638.552a2.1 2.1 0 0 0 1.53-.763q.612-.701.552-1.617l-.077-1.176a.26.26 0 0 1 .066-.203l1.078-1.253q.053-.084.14.01l2.242 3.614q.335.537.851.783.54.264 1.117.226c.362-.018.714-.131 1.018-.33q.518-.354.762-.892.263-.537.224-1.135a2.2 2.2 0 0 0-.33-1.038l-2.955-4.726q-.089-.11.006-.18l1.742-2.078c.32-.364.477-.844.431-1.327a1.67 1.67 0 0 0-.231-.767 1.56 1.56 0 0 0-.54-.603 1.85 1.85 0 0 0-1.306-.374q-.457.03-.864.239c-.263.133-.49.326-.663.564l-3.069 4.086a.1.1 0 0 1-.057.026q-.02 0-.024-.04l-.434-6.533a2.1 2.1 0 0 0-.763-1.53 2.1 2.1 0 0 0-1.388-.558Zm78.517.242q-.556.02-1.11.087-2.595.318-4.45 1.755a7.96 7.96 0 0 0-2.656 3.587q-.822 2.153-.519 4.61.323 2.615 1.681 4.497a7.96 7.96 0 0 0 3.458 2.752q2.116.867 4.594.561 2.477-.305 4.204-1.462a6.8 6.8 0 0 0 2.547-3.01q.796-1.867.512-4.164a2.46 2.46 0 0 0-.522-1.305 2.3 2.3 0 0 0-1.018-.74 2.6 2.6 0 0 0-1.182-.136l-4.023.496c-.47.05-.898.292-1.184.668-.296.362-.428.83-.365 1.292.05.465.292.887.666 1.166.37.296.846.427 1.315.361l1.684-.207q.037-.006.065.052.044.033.03.078-.112 1.058-1 1.69-.889.63-2.116.783-1.9.235-3.143-.86-1.221-1.095-1.464-3.077-.25-2.02.672-3.362.916-1.36 2.841-1.595.772-.097 1.524.133.77.205 1.416.71.488.384 1.034.556.563.174 1.1.107.555-.068.997-.385.513-.405.765-.979t.178-1.166a2 2 0 0 0-.472-1.05q-2.284-2.554-6.059-2.443m-91.86 3.45q1.24 0 2.178.598.938.581 1.436 1.598.5 1 .5 2.256 0 1.277-.518 2.295-.5 1-1.439 1.577a4 4 0 0 1-2.156.58q-1.259 0-2.195-.58a3.83 3.83 0 0 1-1.439-1.577 5.2 5.2 0 0 1-.5-2.295q0-1.318.519-2.316.52-1 1.458-1.556a4 4 0 0 1 2.157-.58m45.101.235q-.194 0-.38.03a1.85 1.85 0 0 0-1.126.583q-.463.492-.57 1.142-.073.433.042.855l2.443 9.32q.013.167-.037.237l-1.799 2.962a1.9 1.9 0 0 0-.254.688q-.102.63.167 1.2.27.592.864.91v-.002q.278.149.633.204.63.102 1.259-.139.624-.222 1.03-.862l7.77-12.669q.192-.314.264-.745a1.98 1.98 0 0 0-.168-1.202 1.96 1.96 0 0 0-.805-.9 2.2 2.2 0 0 0-.746-.262 1.94 1.94 0 0 0-1.222.185 2.2 2.2 0 0 0-.903.822l-2.932 4.944a.1.1 0 0 1-.04.015q-.02-.004-.038-.026l-1.173-5.451a2.2 2.2 0 0 0-.711-1.23 2.31 2.31 0 0 0-1.57-.608Zm23.854 1.25q-.11-.002-.226.01-.934.082-1.532.799a2.1 2.1 0 0 0-.513 1.629l.333 3.698q.124 1.373-.226 2.166-.333.771-1.345.862-.874.08-1.261-.426-.389-.509-.49-1.66l-.391-4.335a2.1 2.1 0 0 0-.798-1.51 2.18 2.18 0 0 0-1.65-.513q-.915.083-1.511.796a2.1 2.1 0 0 0-.515 1.63l.528 5.868q.203 2.245 1.584 3.323 1.38 1.08 3.487.888a5.9 5.9 0 0 0 2.036-.544 4.1 4.1 0 0 0 1.496-1.198q.052-.085.14.008.37.548.895.801.524.252 1.12.2a1.9 1.9 0 0 0 1.34-.703q.524-.628.45-1.444l-.75-8.31a2.1 2.1 0 0 0-.796-1.511 2.15 2.15 0 0 0-1.407-.524Zm41.03.39q-.125.002-.256.019-.555.057-1.368.546-.792.487-1.222 1.137-.092.07-.124-.028-.566-1.165-2.075-1.002a1.98 1.98 0 0 0-1.347.726q-.515.639-.426 1.472l.889 8.277q.1.933.823 1.5.724.583 1.657.483a2.1 2.1 0 0 0 1.5-.824q.584-.707.486-1.638l-.416-3.869q-.111-1.055.496-1.74.63-.692 1.573-.873c.522-.11.998-.378 1.362-.769.353-.364.521-.87.456-1.373a2.6 2.6 0 0 0-.667-1.536q-.477-.528-1.342-.508Zm10.972.137q-2.055 0-3.633.839-1.555.82-2.396 2.295-.838 1.459-.838 3.374 0 2.016.879 3.493.898 1.481 2.454 2.259 1.555.777 3.534.777t3.534-.777q1.556-.778 2.436-2.259.897-1.475.897-3.493 0-1.917-.838-3.372a5.74 5.74 0 0 0-2.416-2.295q-1.555-.84-3.613-.84m-83.87.177q-.1-.002-.202.007a1.9 1.9 0 0 0-1.068.426 1.85 1.85 0 0 0-.63.909q-.017.04-.077.046a.1.1 0 0 1-.061-.015 3.7 3.7 0 0 0-1.577-.977q-.867-.292-2.138-.192-1.792.14-3.056 1.121a5.55 5.55 0 0 0-1.827 2.486q-.583 1.507-.439 3.34.139 1.77.933 3.209.81 1.42 2.195 2.192 1.383.792 3.214.647a5 5 0 0 0 1.94-.553 4.44 4.44 0 0 0 1.526-1.201q.02-.023.058-.024.061-.006.083.033c.167.351.443.639.787.82q.522.3 1.12.252.816-.063 1.347-.685.533-.624.469-1.44l-.674-8.578a1.9 1.9 0 0 0-.685-1.347 1.9 1.9 0 0 0-1.24-.476Zm97.74.028q-.778.016-1.396.548a2.1 2.1 0 0 0-.774 1.525l-.431 5.873q-.167 2.25 1.022 3.54 1.184 1.284 3.294 1.443 1.117.08 2.098-.207a4.1 4.1 0 0 0 1.671-.939q.067-.074.139.03.276.602.751.937.476.333 1.074.377.814.061 1.435-.474c.403-.337.65-.826.68-1.35l.611-8.323a2.1 2.1 0 0 0-.542-1.622 2.15 2.15 0 0 0-1.523-.773 2.18 2.18 0 0 0-1.642.54 2.1 2.1 0 0 0-.772 1.525l-.272 3.702q-.102 1.374-.574 2.101-.453.707-1.47.633-.875-.063-1.173-.627-.3-.56-.215-1.718l.319-4.339a2.1 2.1 0 0 0-.54-1.621 2.17 2.17 0 0 0-1.544-.774 4 4 0 0 0-.226-.007Zm17.245 1.222a1.9 1.9 0 0 0-1.262.47c-.411.327-.669.809-.713 1.332l-1.3 13.294q-.092.933.503 1.633.592.722 1.506.81.933.09 1.653-.5a2.1 2.1 0 0 0 .809-1.506l.322-3.298q.001-.034.026-.058a.1.1 0 0 1 .08.008q.477.444 1.232.721.774.295 1.61.378 1.767.172 3.16-.533a5.37 5.37 0 0 0 2.251-2.106q.863-1.422 1.044-3.288.18-1.829-.372-3.367a5.37 5.37 0 0 0-1.8-2.502q-1.23-.983-3.018-1.16-1.11-.106-1.962.15-.825.241-1.655.941-.022.019-.06.015-.04-.004-.056-.044-.4-1.244-1.792-1.38a2 2 0 0 0-.204-.01Zm-31.115 2.545q1.08 0 1.718.72.638.7.638 1.815 0 1.139-.659 1.857-.659.7-1.697.7-1.098 0-1.736-.72-.62-.737-.62-1.837 0-1.118.638-1.815.64-.72 1.718-.72m-88.04.28q.884.008 1.491.591.71.667.798 1.759.089 1.116-.513 1.884-.6.77-1.634.85-1.137.089-1.792-.622a2.87 2.87 0 0 1-.737-1.744q-.085-1.096.494-1.86.58-.768 1.635-.851.133-.008.259-.008m123.23 1.326q.127 0 .258.013 1.054.104 1.62.881.565.778.46 1.87-.11 1.092-.815 1.768-.71.653-1.759.55a2.28 2.28 0 0 1-1.621-.861q-.589-.76-.476-1.913.106-1.092.815-1.745a2.17 2.17 0 0 1 1.517-.563" paint-order="stroke"/><path fill="url(#f)" d="m66.561 8.107-1.694.073a1.22 1.22 0 0 0-1.169 1.276q.025.617.058 1.233l-4.05.154a1.25 1.25 0 0 0-1.2 1.271l.033 1.691a1.204 1.204 0 0 0 1.249 1.18l4.074-.154q.068 1.157.064 2.313a13.9 13.9 0 0 0-3.183 1.53 8.4 8.4 0 0 0-2.416 2.521c-.63 1.034-.946 2.14-.902 3.345-.003.72.067 1.437.209 2.142q.213 1.05.933 1.882a3.13 3.13 0 0 0 1.755 1.089c.697.196 1.419.246 2.142.153a4.64 4.64 0 0 0 3.135-1.338 7 7 0 0 0 1.84-2.982c.342-1.13.537-2.285.59-3.488.001-.675.028-1.397.031-2.216.843-.045 1.661.126 2.454.466.77.363 1.298.968 1.584 1.835.143.723.066 1.421-.249 2.07-.339.65-.75 1.225-1.281 1.706q-.32.304-.644.576c-.517.435-.517 1.045.048 1.419l2.161 1.43c.565.374 1.46.344 1.964-.106q.506-.453.966-.945c.58-.626 1.084-1.32 1.5-2.066.43-.76.688-1.606.755-2.477.101-1.54-.352-2.915-1.31-4.098-.984-1.184-2.186-2.03-3.628-2.517a11.8 11.8 0 0 0-4.357-.616c-.022-.627-.044-1.204-.042-1.782l3.737-.187a1.265 1.265 0 0 0 1.2-1.287l-.034-1.692a1.195 1.195 0 0 0-1.25-1.17l-3.737.17q-.035-.617-.065-1.233a1.22 1.22 0 0 0-1.27-1.17m55.566.362a1.07 1.07 0 0 0-1.011.911l-.476 3.256c-.711.253-2.287.71-2.887 1.138-2.973 1.604-3.581 2.73-4.69 4.68a25 25 0 0 1-.196-3.218 57 57 0 0 1-.063-1.904.964.964 0 0 0-1.023-.961l-1.451.077a1.084 1.084 0 0 0-1.017 1.071q.016 3.026.301 6.016c.173 1.992.461 3.972.863 5.93.112.55.638.832 1.159.623.577-.233 1.153-.473 1.61-.667.518-.219.885-.86.976-1.41.11-.663.386-1.69 1.037-3.191.47-1.082 1.064-1.678 1.62-2.214 1.056-1.019 2.148-1.432 3.193-1.826l-.752 5.386a14 14 0 0 1-1.833-.96c-.475-.297-.919-.124-1.018.43l-.312 1.749c-.1.553.196 1.26.685 1.535q.951.531 1.98.886l-.576 4.165a.974.974 0 0 0 .873 1.103l2.2.21a1.056 1.056 0 0 0 1.147-.91l.48-3.59c.095.028.192.032.288.038a8.4 8.4 0 0 0 2.982-.333 6.5 6.5 0 0 0 2.607-1.509 6.16 6.16 0 0 0 1.646-2.546c.336-.962.532-1.967.583-2.984a7.5 7.5 0 0 0-.573-3.477c-.473-1.133-1.2-2.037-2.227-2.715a7.04 7.04 0 0 0-3.316-1.178l.316-2.3a.976.976 0 0 0-.873-1.103l-2.105-.203a1 1 0 0 0-.147-.005M91.895 9.836a.52.52 0 0 0-.43.284l-2.074 4.159c-1.485-.065-3.914.375-4.907.572a.52.52 0 0 0-.404.543l.27 3.012c.022.25.24.41.484.36q1.26-.268 2.532-.463l-4.138 8.272a.398.398 0 0 0 .226.556l3.279 1.135a.53.53 0 0 0 .642-.253l5.218-9.858c.284.055.563.132.814.23.834.38 1.306.987 1.44 1.822.11.83.054 1.628-.194 2.414-.249.787-.589 1.53-.97 2.241-.598 1.115-.763 1.575-1.295 2.386a.473.473 0 0 0 .116.638l2.545 1.848a.55.55 0 0 0 .69-.051c1.294-1.32 2.337-2.855 3.145-4.58.391-.907.658-1.862.792-2.84.143-1.002.088-1.993-.113-2.988a5.94 5.94 0 0 0-1.384-2.62 5.44 5.44 0 0 0-2.496-1.56c-.44-.134-.885-.243-1.31-.326l1.625-3.045a.39.39 0 0 0-.214-.553l-3.69-1.307a.6.6 0 0 0-.199-.028m120.772-1.923a3.55 3.55 0 0 0-2.289.88c-.608.529-.715 1.081-.738 1.879-.008.25.015.851.077 1.081l-14.244-.311a1.35 1.35 0 0 0-1.379 1.318l-.022.945a1.34 1.34 0 0 0 1.315 1.37l11.032.175a43 43 0 0 1-2.081 6.893 34.7 34.7 0 0 1-2.597 5.193c-.387.636-.15 1.333.553 1.573l1.557.533c.705.24 1.57-.092 1.917-.75a65 65 0 0 0 1.91-3.915 56 56 0 0 0 2.08-5.32 38 38 0 0 0 1.38-5.567l.043-.528c.432.173.764.233 1.31.25q1.163.035 2.077-.758c.587-.528.902-1.182.95-2.002a2.77 2.77 0 0 0-.827-2.032 3.07 3.07 0 0 0-2.024-.907M77.13 10.87a.97.97 0 0 0-.586.198l-1.51 1.155a.8.8 0 0 0-.121 1.153l3.186 3.73a.865.865 0 0 0 1.203.11l1.888-1.533a.756.756 0 0 0 .057-1.124l-3.435-3.409a.97.97 0 0 0-.682-.28m62.995-.884a1.76 1.76 0 0 0-1.452.672l-4.894 6.241a1.185 1.185 0 0 0 .372 1.776l.851.457c.727.391 1.627.23 2.171-.39l2.843-3.234 6.443 1.551-10.09 9.782a1.32 1.32 0 0 0 .033 1.925l1.082.978a1.51 1.51 0 0 0 2.06-.033l11.734-11.289c.56-.539.816-1.573.56-2.31l-.087-.255c-.258-.733-1.098-1.458-1.858-1.625l-7.609-1.667.118-.136a1.083 1.083 0 0 0-.357-1.68l-1.232-.592a1.8 1.8 0 0 0-.688-.17m-39.766 1.007a1.26 1.26 0 0 0-.97.441l-1.194 1.393a1.31 1.31 0 0 0 .095 1.79c2.179 2.036 3.383 3.088 4.875 4.738.457.505 1.16.493 1.586-.042l1.47-1.846a1.37 1.37 0 0 0-.129-1.817c-1.8-1.7-2.674-2.512-4.94-4.373a1.25 1.25 0 0 0-.792-.284m50.591-.602a.685.685 0 0 0-.7.687l.005 2.696a.76.76 0 0 0 .701.753l1.039.08a.634.634 0 0 0 .68-.65l-.074-2.83a.737.737 0 0 0-.72-.715Zm3.372.05a.7.7 0 0 0-.712.698l.006 2.67c0 .403.311.738.713.768l1.015.077a.645.645 0 0 0 .693-.66l-.075-2.805a.75.75 0 0 0-.734-.73Zm58.304-.52c.49.03.878.426.897.917a.96.96 0 0 1-.305.628.88.88 0 0 1-.646.231.91.91 0 0 1-.641-.27.81.81 0 0 1-.253-.646.81.81 0 0 1 .291-.606q.281-.25.658-.254m-48.052 2.401a1.306 1.306 0 0 0-1.23 1.241l-.65 13.532a3.07 3.07 0 0 0 .877 2.296c.371.377 1.245.498 1.93.216a18.9 18.9 0 0 0 5.452-3.473 53 53 0 0 0 4.664-4.841 1.364 1.364 0 0 0-.162-1.906l-1.376-1.18c-.561-.481-1.331-.36-1.757.246a21.6 21.6 0 0 1-2.632 3.092 25 25 0 0 1-1.41 1.334c-.471.421-.989.786-1.543 1.089l.583-10.105a1.364 1.364 0 0 0-1.26-1.44l-1.312-.1a1 1 0 0 0-.174 0m-40.134 3.4c1.835.43 2.791 1.561 2.842 3.444a9 9 0 0 1-.227 1.628 3.33 3.33 0 0 1-.724 1.46 2.75 2.75 0 0 1-1.32.874 4.1 4.1 0 0 1-1.601.185l.49-3.616Zm33.922.387a1.375 1.375 0 0 0-1.35.994c-.76 2.63-1.423 5.468-2.464 7.88-.312.726.007 1.43.779 1.604l1.09.245c.77.172 1.722-.242 2.03-.97.837-1.974 1.721-5.033 2.403-7.493a1.52 1.52 0 0 0-.979-1.828l-1.085-.359a1.4 1.4 0 0 0-.423-.073m21.884 1.913c-.98-.017-1.8.74-1.861 1.718l-.056.925a1.687 1.687 0 0 0 1.643 1.79l13.446.31c.98.022 1.803-.73 1.87-1.708l.067-1.02a1.67 1.67 0 0 0-1.636-1.78ZM64.015 20.589a36 36 0 0 1-.055 1.782 30 30 0 0 1-.125 1.54 4.8 4.8 0 0 1-.462 1.516c-.242.48-.628.792-1.159.886-.433.096-.747-.026-.963-.315a1.52 1.52 0 0 1-.357-.99 5.8 5.8 0 0 1 .027-1.106 3.67 3.67 0 0 1 1.068-2.044 5.56 5.56 0 0 1 2.025-1.27Z" paint-order="stroke" transform="translate(5.343 1.018)scale(2.15917)"/><path d="M29.972 94.941v3.486h1.389v.59h.754v-.59h1.343v-3.486Zm393.736 0v3.486h3.485v-3.486ZM34.37 96.375v.755h2.266v-.755Zm4.53 0v.755h2.263v-.755Zm4.527 0v.755h2.266v-.755Zm4.53 0v.755h2.263v-.755Zm4.527 0v.755h2.265v-.755Zm4.529 0v.755h2.264v-.755Zm4.527 0v.755h2.266v-.755Zm4.53 0v.755h2.263v-.755Zm4.529 0v.755h2.264v-.755Zm4.527 0v.755h2.264v-.755Zm4.53 0v.755h2.263v-.755Zm4.527 0v.755h2.263v-.755Zm4.53 0v.755h2.263v-.755Zm4.526 0v.755h2.264v-.755Zm4.53 0v.755h2.264v-.755Zm4.527 0v.755h2.266v-.755Zm4.53 0v.755h2.263v-.755Zm4.527 0v.755h2.265v-.755Zm4.529 0v.755h2.264v-.755Zm4.527 0v.755h2.266v-.755Zm4.53 0v.755h2.263v-.755Zm4.527 0v.755h2.266v-.755Zm4.53 0v.755h2.263v-.755Zm4.529 0v.755h2.263v-.755Zm4.527 0v.755h2.264v-.755Zm4.53 0v.755h2.263v-.755Zm4.527 0v.755h2.263v-.755Zm4.529 0v.755h2.264v-.755Zm4.527 0v.755h2.264v-.755Zm4.53 0v.755h2.263v-.755Zm4.527 0v.755h2.266v-.755Zm4.53 0v.755h2.263v-.755Zm4.527 0v.755h2.265v-.755Zm4.529 0v.755h2.264v-.755Zm4.527 0v.755h2.266v-.755Zm4.53 0v.755h2.263v-.755Zm4.527 0v.755h2.266v-.755Zm4.53 0v.755h2.263v-.755Zm4.528 0v.755h2.264v-.755Zm4.528 0v.755h2.264v-.755Zm4.53 0v.755h2.263v-.755Zm4.526 0v.755h2.266v-.755Zm4.53 0v.755h2.263v-.755Zm4.527 0v.755h2.266v-.755Zm4.53 0v.755h2.263v-.755Zm4.529 0v.755h2.263v-.755Zm4.527 0v.755h2.266v-.755Zm4.53 0v.755h2.263v-.755Zm4.527 0v.755h2.265v-.755Zm4.529 0v.755h2.264v-.755Zm4.528 0v.755h2.265v-.755Zm4.529 0v.755h2.263v-.755Zm4.527 0v.755h2.266v-.755Zm4.53 0v.755h2.263v-.755Zm4.529 0v.755h2.263v-.755Zm4.527 0v.755h2.266v-.755Zm4.53 0v.755h2.263v-.755Zm4.526 0v.755h2.266v-.755Zm4.53 0v.755h2.263v-.755Zm4.53 0v.755h2.263v-.755Zm4.526 0v.755h2.264v-.755Zm4.53 0v.755h2.263v-.755Zm4.527 0v.755h2.264v-.755Zm4.53 0v.755h2.263v-.755Zm4.527 0v.755h2.265v-.755Zm4.529 0v.755h2.264v-.755Zm4.527 0v.755h2.266v-.755Zm4.53 0v.755h2.263v-.755Zm4.53 0v.755h2.263v-.755Zm4.526 0v.755h2.264v-.755Zm4.53 0v.755h2.263v-.755Zm4.527 0v.755h2.264v-.755Zm4.53 0v.755h2.263v-.755Zm4.527 0v.755h2.263v-.755Zm4.529 0v.755h2.263v-.755Zm4.527 0v.755h2.266v-.755Zm4.53 0v.755h2.263v-.755Zm4.527 0v.755h2.265v-.755Zm4.53 0v.755h2.263v-.755Zm4.527 0v.755h2.265v-.755Zm4.529 0v.755h2.264v-.755Zm4.527 0v.755h2.266v-.755Zm4.53 0v.755h2.263v-.755Zm4.529 0v.755h2.263v-.755Zm4.527 0v.755h2.264v-.755Zm4.53 0v.755h2.263v-.755Zm5.915 3.14v2.264h.754v-2.264Zm-393.841 1.766v2.264h.754v-2.264Zm393.841 2.762v2.265h.754v-2.265ZM31.361 105.81v2.264h.754v-2.264Zm393.841 2.762v2.264h.754v-2.264Zm-393.841 1.766v2.263h.754v-2.263Zm393.841 2.761v2.266h.754v-2.266Zm-393.841 1.768v2.263h.754v-2.263Zm393.841 2.762v2.263h.754v-2.263Zm-393.841 1.765v2.266h.754v-2.266Zm393.841 2.764v2.264h.754v-2.264Zm-393.841 1.765v2.264h.754v-2.264Zm393.841 2.762v2.264h.754v-2.264Zm-393.841 1.766v2.265h.754v-2.265Zm393.841 2.763v2.264h.754v-2.264ZM31.361 132.98v2.264h.754v-2.264Zm393.841 2.762v2.265h.754v-2.265Zm-393.841 1.767v2.264h.754v-2.264Zm393.841 2.762v2.264h.754v-2.264Zm-393.841 1.766v2.263h.754v-2.263Zm393.841 2.761v2.266h.754v-2.266Zm-393.841 1.768v2.264h.754v-2.264Zm393.841 2.762v2.263h.754v-2.263Zm-393.841 1.765v2.264h.754v-2.264Zm393.841 2.762v2.266h.754v-2.266Zm-393.841 1.768v2.263h.754v-2.263Zm393.841 2.761v2.264h.754v-2.264ZM31.361 160.15v.791h-1.389v3.486h3.486v-3.486h-1.343v-.791Zm392.347.791v1.41h-.576v.754h.576v1.322h3.485v-3.486Zm-390.02 1.41v.754h2.264v-.754Zm4.528 0v.754h2.266v-.754Zm4.53 0v.754h2.263v-.754Zm4.527 0v.754h2.265v-.754Zm4.53 0v.754h2.263v-.754Zm4.528 0v.754h2.264v-.754Zm4.528 0v.754h2.263v-.754Zm4.529 0v.754h2.264v-.754Zm4.527 0v.754h2.264v-.754Zm4.53 0v.754h2.263v-.754Zm4.527 0v.754h2.264v-.754Zm4.53 0v.754h2.263v-.754Zm4.527 0v.754h2.265v-.754Zm4.529 0v.754h2.264v-.754Zm4.527 0v.754h2.266v-.754Zm4.53 0v.754h2.263v-.754Zm4.527 0v.754h2.265v-.754Zm4.53 0v.754h2.263v-.754Zm4.527 0v.754h2.265v-.754Zm4.529 0v.754h2.264v-.754Zm4.53 0v.754h2.263v-.754Zm4.526 0v.754h2.264v-.754Zm4.53 0v.754h2.263v-.754Zm4.527 0v.754h2.264v-.754Zm4.53 0v.754h2.263v-.754Zm4.527 0v.754h2.263v-.754Zm4.529 0v.754h2.264v-.754Zm4.527 0v.754h2.266v-.754Zm4.53 0v.754h2.263v-.754Zm4.527 0v.754h2.266v-.754Zm4.53 0v.754h2.263v-.754Zm4.527 0v.754h2.265v-.754Zm4.529 0v.754h2.264v-.754Zm4.527 0v.754h2.266v-.754Zm4.53 0v.754h2.263v-.754Zm4.529 0v.754h2.264v-.754Zm4.527 0v.754h2.264v-.754Zm4.53 0v.754h2.263v-.754Zm4.527 0v.754h2.264v-.754Zm4.53 0v.754h2.263v-.754Zm4.527 0v.754h2.265v-.754Zm4.529 0v.754h2.263v-.754Zm4.527 0v.754h2.266v-.754Zm4.53 0v.754h2.263v-.754Zm4.527 0v.754h2.265v-.754Zm4.53 0v.754h2.263v-.754Zm4.528 0v.754h2.264v-.754Zm4.528 0v.754h2.263v-.754Zm4.529 0v.754h2.264v-.754Zm4.53 0v.754h2.263v-.754Zm4.527 0v.754h2.263v-.754Zm4.529 0v.754h2.264v-.754Zm4.527 0v.754h2.264v-.754Zm4.53 0v.754h2.263v-.754Zm4.527 0v.754h2.266v-.754Zm4.53 0v.754h2.263v-.754Zm4.527 0v.754h2.265v-.754Zm4.529 0v.754h2.264v-.754Zm4.53 0v.754h2.263v-.754Zm4.526 0v.754h2.264v-.754Zm4.53 0v.754h2.263v-.754Zm4.527 0v.754h2.266v-.754Zm4.53 0v.754h2.263v-.754Zm4.527 0v.754h2.265v-.754Zm4.53 0v.754h2.263v-.754Zm4.528 0v.754h2.264v-.754Zm4.528 0v.754h2.263v-.754Zm4.53 0v.754h2.263v-.754Zm4.526 0v.754h2.264v-.754Zm4.53 0v.754h2.263v-.754Zm4.527 0v.754h2.264v-.754Zm4.53 0v.754h2.263v-.754Zm4.527 0v.754h2.265v-.754Zm4.529 0v.754h2.264v-.754Zm4.527 0v.754h2.266v-.754Zm4.53 0v.754h2.263v-.754Zm4.527 0v.754h2.266v-.754Zm4.53 0v.754h2.263v-.754Zm4.527 0v.754h2.265v-.754Zm4.529 0v.754h2.264v-.754Zm4.53 0v.754h2.263v-.754Zm4.527 0v.754h2.263v-.754Zm4.529 0v.754h2.263v-.754Zm4.527 0v.754h2.264v-.754Zm4.53 0v.754h2.263v-.754Zm4.527 0v.754h2.264v-.754Z" paint-order="stroke"/><path fill="#3b2207" d="M103.163 97.515c-.8 4.776-1.878 11.322-2.418 17.473 4.622.067 9.211.223 13.762.451.768-7.003 1.541-14.08 2.02-17.494Zm-59.556.227c-1.94 5.313-3.876 10.556-5.528 15.582-.907 2.796-2.117 6.184-3.08 9.175 4.487-1.006 9.742-2.571 15.178-3.503.435-1.18.82-2.203 1.113-2.944 4.74-.79 11.848-1.221 14.936-1.078q-.109.865-.254 1.75c4.625-.535 9.438-.976 14.396-1.285q.143-.517.29-1.039c.933-4.02 1.435-8.615 1.435-12.492-9.55.215-17.807.357-26.854.644.575-1.938.934-3.373 1.221-4.379Zm89.08.785a137 137 0 0 1-1.524 18.043c4.777.4 9.505.853 14.18 1.336 1.197-7.7 1.827-14.478 1.687-18.582Zm143.482.025c-4.432 6.153-10.568 12.996-15.947 18.67a267 267 0 0 1-5.102 5.133c6.178-.372 12.803-.695 19.674-.863 3.852-4.862 9.126-10.784 11.906-15.967Zm36.96 3.207c-1.076 4.165-2.224 8.616-3.804 12.924-.779 2.066-1.974 4.675-3.215 7.27 4.735.21 9.506.45 14.276.715.774-1.722 1.42-3.181 1.863-4.108 2.298 0 14.289.145 16.371.432-.26 1.88-.59 3.397-.963 4.728 4.426.294 8.814.603 13.133.92.7-2.79 1.282-5.455 1.688-7.802.574-3.662 1.004-6.535 1.076-9.12-5.457-.718-18.81-.573-27.57-1.003l.502-2.801Zm-141.362 10.375-.397 8.668c13.818 1.567 27.046 2.971 39.551 3.487 2.499-.026 4.907-.06 7.3-.092l.432-11.775c-15.796-.718-31.592-.934-46.886-.288m253.05 10.018c-9.478-.072-18.597.216-27.716.432-9.19.287-18.38 1.364-27.356 2.8l-.025.735a2357 2357 0 0 1 54.78 5.174Z" paint-order="stroke"/><path fill="#9100ef" d="m369.685 127.078-.371 10.369c8.472-.36 18.238-.863 26.998-1.365 8.831-.431 19.027-1.006 28.074-1.508l.082-2.373a2375 2375 0 0 0-54.783-5.123Z" paint-order="stroke"/><path fill="#d400cb" d="M305.622 122.97c-1.232 2.554-2.463 5.021-3.334 6.864l11.344 6.103c2.106-3.182 4.487-8.257 6.307-12.28-4.79-.256-9.575-.487-14.317-.687m31.746 1.725c-.481 1.536-1.015 2.854-1.549 4.277l-11.847-2.441-4.021 10.195c3.59 1.293 8.617 3.232 11.777 3.735-1.006 3.159-6.824 16.801-8.475 19.027l12.781 2.943c4.38-7.898 7.612-15.651 11.059-25.2a171 171 0 0 0 3.453-11.63c-4.34-.314-8.742-.618-13.178-.906" paint-order="stroke"/><path fill="#0072fd" d="M273.876 122.699c-7.087.219-13.875.588-20.137.992-3.942 3.783-8.169 7.541-13.918 12.322l7.442 9.64c2.452-2.291 10.201-7.958 13.775-11.286.595 8.819.615 17.582.774 26.197l13.191-.928c.215-5.393-.633-29.002-.73-35.32Z" paint-order="stroke"/><path fill="#ff5f05" d="m171.33 121.695-.137 3.004c6.39-.072 12.35-.143 17.95-.143L189 146.025c-5.026-.072-14.935.358-20.894.717l-.073 11.346c17.592.215 35.185.143 52.633 0l-.145-11.993c-5.385-.215-11.488.073-19.1-.215l.07-21.15c-9.688-.736-19.761-1.85-30.161-3.035Z" paint-order="stroke"/><path fill="red" d="M100.648 116.087c-.635 6.354-.643 11.664-.858 16.958l13.723-.409c.326-4.944.306-10.058.845-15.85q.019-.16.036-.322c-4.547-.205-9.13-.338-13.746-.377m30.367 1.432a118 118 0 0 1-1.926 9.533c-2.058 8.55-4.468 16.998-7.787 26.887l13.09 2.932c4.008-8.61 6.655-17.33 8.593-26.178a238 238 0 0 0 2.215-11.88c-4.678-.473-9.408-.912-14.185-1.294" paint-order="stroke"/><path fill="#52c500" d="M80.019 116.72c-4.934.352-9.714.831-14.297 1.399-.94 4.893-2.61 10.116-4.38 14.95-1.722 5.53-4.308 12.207-6.749 17.448l11.848 4.524c4.308-6.965 6.39-15.582 9.119-23.336 2.087-5.956 3.229-10.443 4.459-14.985m-30.422 3.854a300 300 0 0 0-14.898 3.08 171 171 0 0 0-2.007 6.83l12.065 2.728c.83-1.556 3.084-7.838 4.84-12.638" paint-order="stroke"/><g filter="url(#i)" opacity=".579" transform="translate(-1094.893 -4.337)scale(.97643)"><path d="M1303.843 179.648h57.77l2.848-6.337 2.785 6.337h57.968a4.6 4.6 0 0 1 4.609 4.609v9.337a4.6 4.6 0 0 1-4.609 4.608h-121.37a4.6 4.6 0 0 1-4.61-4.608v-9.337a4.6 4.6 0 0 1 4.61-4.609" paint-order="stroke"/></g><path fill="url(#j)" d="M1303.48 180.416h57.77l2.848-6.337 2.785 6.337h57.968a4.6 4.6 0 0 1 4.609 4.609v9.337a4.6 4.6 0 0 1-4.609 4.608H1303.48a4.6 4.6 0 0 1-4.609-4.608v-9.337a4.6 4.6 0 0 1 4.609-4.609" paint-order="stroke" transform="translate(-1094.538 -6.337)scale(.97643)"/><path fill="#fff" d="M182.972 176.288q.216.026.476.043.26.009.467.009h4.598l.311-.018q-.01.148-.017.338-.01.182-.01.338v4.467q0 .234.01.485.017.251.026.355h-.779q.01-.104.01-.312.01-.216.01-.45v-4.51h-4.148q-.242 0-.528.008-.277.009-.424.017Zm-.113 4.779q.165.017.424.034.269.018.537.018h4.64v.701h-4.623q-.26 0-.536.009-.269.009-.442.026Zm13.853-4.875q0 .234.164.399.165.164.407.164.234 0 .399-.164.173-.165.173-.399 0-.242-.173-.407-.165-.173-.399-.173-.242 0-.407.173-.164.165-.164.407m-.398 0q0-.268.13-.493t.346-.355q.225-.13.493-.13.269 0 .485.13.225.13.355.355t.13.493q0 .26-.13.485-.13.217-.355.347-.216.13-.485.13-.268 0-.493-.13-.217-.13-.347-.347-.13-.225-.13-.485m-3.758-.459q-.018.148-.034.338-.01.182-.01.364v4.572q0 .328.138.458.148.121.468.182.208.034.51.052.312.017.633.017.346 0 .744-.017.399-.018.806-.052.415-.035.779-.087.363-.052.632-.121v.788q-.373.06-.9.095-.52.043-1.074.06-.546.027-1.022.027-.38 0-.753-.026-.364-.018-.632-.06-.502-.088-.77-.339-.269-.26-.269-.787v-4.762q0-.113-.01-.234 0-.121-.017-.242-.01-.13-.027-.226Zm-.364 2.728q.39-.087.857-.208.477-.13.961-.277.494-.147.953-.312.467-.164.84-.329.199-.086.39-.182.19-.095.371-.207l.304.692-.407.173-.407.165q-.407.164-.91.338-.493.173-1.021.337-.528.156-1.03.295-.494.138-.9.233Zm7.49.017q.13.009.32.026.19.009.415.017h5.212q.33 0 .563-.017l.372-.026v.848l-.39-.025q-.25-.018-.536-.018h-4.753q-.355 0-.676.018-.32.008-.528.025ZM260.634 182.311q-.808 0-1.442-.388-.63-.394-.993-1.117-.36-.727-.36-1.724 0-1.002.36-1.725.363-.727.993-1.12.634-.394 1.442-.394.638 0 1.17.25.538.245.897.706.363.46.473 1.112h-.803q-.089-.432-.347-.727-.253-.296-.617-.444-.363-.153-.773-.153-.567 0-1.023.288-.457.287-.724.845-.266.554-.266 1.362 0 .803.266 1.36.271.555.728.842.456.283 1.019.283.414 0 .773-.152.364-.152.617-.448.258-.296.347-.723h.803q-.11.639-.47 1.104-.354.465-.891.714-.533.25-1.18.25m3.682-.084V177.5h.735v.727h.051q.131-.36.465-.575.338-.22.761-.22.085 0 .199.004.118.004.186.009v.765q-.035-.009-.17-.026-.135-.016-.287-.016-.511 0-.846.312-.333.309-.333.787v2.959Zm5.102.101q-.685 0-1.183-.304-.495-.304-.766-.85-.266-.545-.266-1.272t.262-1.281.74-.867q.482-.313 1.124-.313.377 0 .74.127.368.123.664.402.3.275.478.727.177.452.177 1.108v.317h-3.416q.03.74.423 1.137.398.393 1.027.393.419 0 .72-.182.304-.186.435-.545l.735.203q-.165.537-.668.87-.499.33-1.226.33m-1.441-2.849h2.638q-.055-.604-.381-.98-.321-.381-.905-.381-.405 0-.701.19-.292.19-.461.499-.17.308-.19.672m5.91 2.858q-.448 0-.816-.17-.364-.168-.58-.494t-.215-.79q0-.406.16-.66.161-.254.428-.397.27-.148.596-.22t.655-.114q.423-.055.689-.085t.393-.101q.131-.072.131-.245v-.026q0-.44-.25-.68-.249-.246-.739-.246-.512 0-.8.224-.286.22-.396.47l-.732-.241q.182-.432.49-.673.31-.245.681-.346.372-.102.736-.102.237 0 .537.06.304.055.583.224.283.169.465.503.186.33.186.883v3.116h-.748v-.643h-.05q-.081.165-.259.343-.177.173-.46.291-.284.119-.685.119m.13-.672q.424 0 .715-.165.292-.165.444-.427.152-.267.152-.554v-.655q-.047.055-.203.101-.156.042-.359.076-.199.034-.389.06l-.296.033q-.274.034-.516.119-.236.08-.38.24-.144.157-.144.428 0 .367.275.558.279.186.702.186m5.268-4.164v.65h-.972v2.85q0 .317.127.465.13.144.43.144.073 0 .183-.017.114-.017.207-.034l.156.643q-.118.042-.27.063-.148.021-.296.021-.613 0-.956-.321-.342-.326-.342-.905v-2.908h-.71v-.651h.71v-1.125h.76v1.125Zm2.811 4.827q-.642 0-1.128-.304-.482-.304-.753-.854-.27-.55-.27-1.277 0-.74.27-1.289.27-.554.753-.858.486-.305 1.128-.305.647 0 1.133.305.487.304.757.858.27.55.27 1.29 0 .726-.27 1.276t-.757.854-1.133.304m0-.68q.478 0 .787-.245.308-.246.456-.643.148-.402.148-.867 0-.469-.148-.87-.148-.406-.456-.652-.309-.249-.787-.249-.473 0-.777.25-.305.245-.453.646-.148.402-.148.875 0 .465.148.867.148.397.453.643.304.245.777.245m3.268.579V177.5h.736v.727h.05q.132-.36.466-.575.338-.22.76-.22.086 0 .2.004.118.004.185.009v.765q-.034-.009-.169-.026-.135-.016-.287-.016-.512 0-.846.312-.334.309-.334.787v2.959Zm4.866.101q-.727 0-1.209-.317t-.609-.93l.723-.173q.102.389.38.57.284.182.707.182.494 0 .786-.211.296-.211.296-.503 0-.486-.694-.651l-.786-.186q-1.268-.3-1.268-1.29 0-.405.228-.714.228-.313.622-.486.397-.178.9-.178.732 0 1.133.322.406.317.567.816l-.69.177q-.097-.254-.325-.46-.224-.208-.68-.208-.423 0-.707.195-.279.194-.279.49 0 .262.19.423.19.156.605.253l.715.17q.642.152.95.473.31.317.31.803 0 .415-.237.74-.233.321-.655.507-.42.186-.973.186M222.988 175.414q.016.103.027.232.015.13.025.26c.01.086.01.163.01.226q-.001.465-.033.883h-1.525q-.243 0-.502-.01a10 10 0 0 1-.485-.042v.736a4 4 0 0 1 .485-.026q.251-.009.511-.01h1.45q-.021.156-.047.303a7 7 0 0 1-.373 1.413q-.234.615-.563 1.091a4.733 4.733 0 0 1-1.168 1.193 4 4 0 0 1-.451.288l.633.51a6.3 6.3 0 0 0 1.135-.997q.5-.553.847-1.289a7.5 7.5 0 0 0 .555-1.732q.073-.367.123-.78h2.422c0 .185-.01.411-.018.676-.01.266-.02.546-.043.84a23 23 0 0 1-.088.875q-.052.433-.12.78-.07.345-.173.545a.42.42 0 0 1-.191.224.7.7 0 0 1-.31.06q-.27.001-.608-.025-.33-.026-.684-.07l.088.719.701.035q.364.025.692.025.355 0 .572-.129a.9.9 0 0 0 .356-.398q.111-.25.199-.666.086-.425.138-.928.06-.501.094-.994.044-.503.06-.928.024-.423.034-.666c0-.057 0-.124.01-.199q.016-.112.035-.225l-.485-.242q-.113.017-.251.034-.13.009-.303.01h-2.063q.033-.426.045-.893c.01-.104.011-.223.018-.356a8 8 0 0 1 .035-.353Zm16.582.111q.033.2.05.459.018.26.018.441v5.039c0 .162-.01.34-.018.53-.01.19-.02.353-.043.492h.84c-.01-.098-.013-.207-.025-.328q-.016-.191-.027-.373v-1.506c0-.306 0-.632-.01-.979v-.691q.298.093.658.225.459.154.943.353.495.2.961.408.468.199.84.407l.295-.737a11 11 0 0 0-.84-.38 19 19 0 0 0-1.012-.407q-.536-.2-1.056-.373-.424-.15-.79-.266v-1.414c0-.127.01-.276.018-.449q.026-.26.043-.451Zm-7.325 1.715-.632.217.164.398q.104.25.209.545.104.286.181.537.088.251.121.399l.64-.225a9 9 0 0 0-.128-.398 11 11 0 0 0-.2-.547q-.103-.284-.198-.536a5 5 0 0 0-.157-.39m2.39.252a5.9 5.9 0 0 1-.642 2.103 4.7 4.7 0 0 1-.552.858 5 5 0 0 1-.825.804 5.6 5.6 0 0 1-.976.623q-.51.261-1.014.416l.57.58a7 7 0 0 0 1.473-.788q.754-.51 1.352-1.272.466-.588.762-1.264.293-.683.466-1.394.026-.087.053-.192.035-.112.078-.242Zm-4.4.181-.64.25q.061.113.166.364a14 14 0 0 1 .45 1.144q.103.277.156.442l.658-.243q-.061-.165-.174-.433a20 20 0 0 0-.225-.572 17 17 0 0 0-.217-.553 10 10 0 0 0-.173-.399" paint-order="stroke"/><path fill="#fff" stroke="#5d5d5d" stroke-linejoin="bevel" stroke-width=".26070681" d="M214.41 169.808v18.161M251.722 169.808v18.161" paint-order="stroke"/><g filter="url(#k)" opacity=".427" transform="translate(-968.908 -45.278)scale(.89662)"><path d="m1554.411 157.543.65 31.418 6.12-5.875 5.53 11.684 6.555-1.836-5.847-12.754 10.003-.258Z" paint-order="stroke"/></g><path stroke="#fff" stroke-width="2.56312875" d="m425.366 98.142.46 22.124 4.662-4.476 5.257 11.106 3.39-.95-5.425-11.835 7.868-.204Z" paint-order="stroke"/><path d="M550.393 134.572c-3.527-.121-5.918 2.432-7.297 4.614a19 19 0 0 0-2.006 4.34c-.693 2.15.086 5.42.086 5.42s3.024-1.978 3.541-4.348c0 0 .523-1.73 1.574-3.393s2.373-2.91 3.973-2.855c.767.026.887.165 1.242.632.355.468.722 1.354 1.184 2.391s1.05 2.288 2.297 3.225c1.247.936 3.05 1.276 5.076.877 4.362-.861 7.578-2.673 9.443-3.975a7 7 0 0 1-.738-.318c-.912-.456-1.688-1.083-2.274-1.864l-.164-.22c-1.567.953-3.904 2.057-6.996 2.668-1.333.263-1.737.062-2.076-.192s-.716-.843-1.115-1.74c-.4-.897-.792-2.038-1.625-3.137-.833-1.098-2.326-2.063-4.123-2.125Zm19.328 4.15c-.065.065-.098.156-.168.214.015.008.023.02.04.029Z" paint-order="stroke"/><path d="m473.934 132.201-1.457-10.632Zm.364 2.658q-1.096.15-1.984-.523-.888-.674-1.038-1.77l-2.186-15.948q-.15-1.097.523-1.984.674-.888 1.77-1.039l3.387 4.952 3.987-.547-3.387-4.951 2.658-.364 3.387 4.951 3.987-.546-3.387-4.952 2.658-.364 3.387 4.951 3.987-.546-3.387-4.952 3.987-.546q1.096-.15 1.984.523.888.674 1.038 1.77l.729 5.316-23.921 3.28 1.457 10.631 10.632-1.457.364 2.658Zm13.472-.493-.56-4.086 6.34-8.316q.259-.34.606-.523t.713-.233q.398-.055.784.044.386.1.726.358l1.398 1.06q.307.263.506.608.2.345.25.71.05.366-.03.766-.081.4-.339.74l-6.307 8.312Zm8.77-10.104-1.398-1.06Zm-7.05 7.838 1.263-.174 3.464-4.604-.684-.55-.713-.51-3.503 4.575Zm4.043-5.327-.713-.512 1.397 1.061Z"/><path d="M571.623 140.734q-1.184 0-2.342-.579t-1.868-1.526q.684 0 1.394-.54.71-.539.71-1.565 0-1.316.922-2.237.92-.921 2.237-.921 1.315 0 2.236.921t.922 2.237q0 1.737-1.237 2.974-1.237 1.236-2.974 1.236m0-2.105q.868 0 1.487-.618.618-.619.618-1.487 0-.448-.302-.75-.303-.303-.75-.303-.448 0-.75.303-.303.302-.303.75 0 .605-.145 1.105t-.381.947q.131.053.263.053Zm6.053-4.21-2.895-2.895 9.42-9.421q.29-.29.725-.303.434-.013.75.303l1.42 1.42q.316.317.316.738 0 .42-.315.737Zm-5 2.105" paint-order="stroke"/><path d="m523.3 134.201-9.332-9.333q-.38-.38-.57-.834-.19-.456-.19-.949t.19-.948.57-.835l8.726-8.688-4.022-4.022 2.352-2.466 15.176 15.176q.38.38.55.835t.17.948-.17.949-.55.834l-9.333 9.333q-.38.38-.835.57t-.948.19-.949-.19-.834-.57m1.784-19.197-8.12 8.12h16.239Zm15.138 19.956q-1.366 0-2.315-.967-.948-.968-.948-2.371 0-1.025.512-1.935t1.157-1.784l1.594-2.048 1.669 2.048q.607.873 1.138 1.784.531.91.531 1.935 0 1.403-.986 2.37t-2.352.968"/></svg>